<?xml version="1.0" standalone="no"?>
<!DOCTYPE svg PUBLIC "-//W3C//DTD SVG 1.1//EN" "http://www.w3.org/Graphics/SVG/1.1/DTD/svg11.dtd" >
<svg xmlns="http://www.w3.org/2000/svg" xmlns:xlink="http://www.w3.org/1999/xlink" version="1.1">
<metadata></metadata>
<defs>
<font id="amaticbold" horiz-adv-x="656" >
<font-face units-per-em="2048" ascent="1638" descent="-410" />
<missing-glyph horiz-adv-x="500" />
<glyph unicode="&#xd;" horiz-adv-x="682" />
<glyph unicode="!" horiz-adv-x="286" d="M41 32.5q0 35.5 25 64t62 28.5t59.5 -29t22.5 -70q0 -72 -101 -72q-23 0 -45.5 21.5t-22.5 57zM88 1493q0 32 27 55.5t54 23.5t41.5 -14.5t14.5 -35.5q0 -164 -21.5 -490t-21.5 -489l2 -97q0 -140 -38 -140q-21 0 -38.5 50t-17.5 126l8 339z" />
<glyph unicode="&#x22;" horiz-adv-x="359" d="M-40 1531q0 20 13 33.5t28 13.5q42 0 49 -53l1 -14q0 -89 -23.5 -203.5t-51.5 -114.5h-7q-9 0 -9 338zM146 1531q0 20 19.5 33.5t43 13.5t32.5 -47q-3 -98 -20 -218t-39 -120h-7q-9 0 -19 128.5t-10 209.5z" />
<glyph unicode="#" horiz-adv-x="748" d="M31 637q0 46 96 46l62 -2q19 109 31 267q-39 -3 -51 -3q-97 0 -97 59v10l30 33l63 -1q31 0 63 3q4 35 18 125q27 175 27 283l-1 37q0 33 10.5 53t42.5 20h15l23 -47q0 -80 -18 -233.5t-19 -228.5q18 -4 82.5 -4t96.5 8q25 125 45 272t29 201q24 31 46.5 31t38.5 -13 t16 -28q0 -80 -35.5 -231t-37.5 -227h66l43 -47q-7 -28 -18.5 -44.5t-35.5 -16.5l-67 3q-23 -106 -25 -264l21 1q85 0 85 -62h1q-1 -51 -78 -51h-6l-30 1q-5 -71 -21 -197q-34 -279 -35 -429l-35 -42q-71 0 -71 44q0 110 31 316t34 302q-47 4 -142 4l-50 -3 q-3 -20 -8 -103.5t-12 -171.5q-7 -87 -18 -179q-25 -207 -73 -208q-21 0 -39.5 12t-18.5 32q0 246 71 612q-45 -5 -60 -5q-85 0 -85 66zM282 686q8 -1 69 -1t112 6q32 184 33 261q-35 8 -91.5 8t-90.5 -6q-26 -95 -32 -268z" />
<glyph unicode="$" horiz-adv-x="519" d="M-1 1245.5q0 83.5 53 164.5t150 125q0 42 -2 68t8 48q6 12 17 12q9 0 21 -8q26 -18 26 -69v-27q63 15 112.5 15t84.5 -20.5t49 -53.5l-35 -44q-21 0 -65 6.5t-71 8.5h-10q-25 0 -61 -7l29 -642q159 -208 192 -344q16 -66 16 -153t-41.5 -187t-122.5 -148v-145v-13 q0 -90 -59 -90q-36 0 -36 63v16l-4 136q-12 -2 -38 -2t-59 5t-66 22t-33 42q0 55 46 55q24 0 61 -15.5t54 -15.5t32 4q-5 162 -22 722q-5 7 -33 45.5t-46.5 64.5t-53.5 82q-36 58 -51 94q-42 102 -42 185.5zM98 1238q0 -124 122 -301q-4 108 -15 496q-53 -33 -80 -83 q-27 -48 -27 -112zM313 647l24 -534q39 48 60.5 116t21.5 116q0 135 -106 302z" />
<glyph unicode="%" horiz-adv-x="1077" d="M46 1154q0 52 8 110.5t25 127t53 115t83 46.5q229 0 229 -406v-7l-1 1q-15 -41 -17 -157q-2 -114 -14 -168q-26 -116 -171 -116q-73 0 -113 54q-45 61 -55.5 115t-16 86t-7.5 78q-3 69 -3 121zM145 1179q0 -36 1 -63.5t4 -72.5t9.5 -85t16.5 -77q32 -68 62 -81 q112 0 112 292q0 357 -128 357q-25 0 -51 -117t-26 -153zM328 64q0 50 25 181.5t73 320.5t82 321q100 383 149 551l1 -1q1 32 15.5 65.5t39 33.5t40.5 -13.5t16 -35.5q1 -143 -181 -825q-84 -317 -97 -388t-21 -107q-10 -36 -24 -80q-31 -93 -79 -95q-39 22 -39 72zM643 346 q0 60 0.5 83.5t2.5 69.5t7.5 79t14 75.5t23.5 72.5t35 57q40 55 112 55q87 0 132 -64q45 -65 55 -126q15 -92 15 -170v-100q0 -132 -42 -242q-23 -60 -71 -98q-48 -36 -101.5 -36t-84 29t-48.5 71q-18 44 -30 96q-20 88 -20 148zM741 384.5q0 -62.5 24.5 -165.5t50.5 -103 q124 0 124 270v81q0 71 -14 138q-44 106 -94 128q-59 -1 -77 -163q-14 -123 -14 -185.5z" />
<glyph unicode="&#x26;" horiz-adv-x="903" d="M48 341.5q0 64.5 5.5 114t10.5 84.5t22.5 85.5t25.5 72.5q8 23 36 82q36 74 82 165l-14 281v170q0 75 36 111.5t102 36.5t133 -55t67 -129q0 -123 -41.5 -221.5t-124.5 -194.5q-4 -8 -19 -29q-33 -46 -33 -69q0 -89 75.5 -320t129.5 -288q64 146 64 362v9q-15 0 -19 6 t-5.5 8t-5 10.5t-4.5 10.5v52q156 0 232 26q58 -12 58 -54q0 -56 -107 -56l-6 1h-51q0 -327 -84 -438q61 -63 130 -63l83 6l38 -31q0 -41 -28.5 -54.5t-75.5 -13.5q-92 0 -198 77q-115 -78 -212.5 -78t-164.5 52.5t-102 129.5t-35 141.5zM143 389q0 -104 46 -190 q51 -96 160 -96q33 0 81 17t69 38q-189 273 -248 631q-108 -170 -108 -400zM309 1291l3 -275v-23q52 65 101 155t49 135.5t-33 106t-65.5 60.5t-54.5 -50v-109z" />
<glyph unicode="'" horiz-adv-x="359" d="M146 1531q0 20 19.5 33.5t41.5 13.5q37 0 54 -47l-5 -6l1 -14q0 -89 -23.5 -203.5t-51.5 -114.5h-7q-9 0 -19 128.5t-10 209.5z" />
<glyph unicode="(" horiz-adv-x="418" d="M52 822.5q0 111.5 15 230.5t41.5 256.5t71 239.5t93.5 102h9l36 -30q0 -54 -33 -121t-40 -84q-91 -224 -91 -516t36 -570q40 -320 148 -518q44 -82 58 -131l-2 1q-18 -43 -56 -43q-54 0 -103 112t-81 273.5t-56 341.5q-46 345 -46 456.5z" />
<glyph unicode=")" horiz-adv-x="434" d="M25 -257q0 19 16.5 54t40.5 77q94 166 148.5 455.5t54.5 464.5q0 458 -120 681q-45 84 -45 135v11l37 29q58 0 105 -108q46 -109 72 -260q52 -302 54 -465v-2q0 -165 -90 -619q-40 -198 -100 -348.5t-119 -150.5q-21 0 -37.5 13.5t-16.5 32.5z" />
<glyph unicode="*" horiz-adv-x="1051" d="M136 1139.5q0 29.5 13.5 43t32.5 13.5h243q-2 5 -23.5 46.5t-37.5 72.5q-14 31 -34 73q-40 86 -40.5 110t16.5 36.5t40.5 12.5t54 -58.5t60.5 -139.5t35 -91q3 8 16.5 53.5t26 82t30.5 80.5q39 94 80 93q22 0 39.5 -16.5t17.5 -42.5t-22.5 -85t-58 -135.5t-42.5 -93.5 q39 -5 92 -5l135 10q104 0 104 -62q0 -52 -71 -52q-45 0 -134 4.5t-133 4.5q6 -16 79 -159.5t73 -174t-15 -45.5t-45 -15t-49 38.5t-21 82.5l-87 190q-11 -26 -37 -100q-55 -154 -97 -221h-49l-44 46l-1 9q3 41 74.5 182t81.5 169h-184.5t-77.5 1t-21 5q-20 8 -20 37.5z" />
<glyph unicode="+" horiz-adv-x="853" d="M140 655q0 21 12.5 37t33.5 16l121 -7q26 0 47 4l-12 150q0 113 66 113q23 0 37.5 -17t14.5 -42v-25q0 -183 27 -183l119 8q106 0 106 -62q0 -24 -17 -40t-41 -16l-121 11q-65 0 -65 -49l19 -164q0 -25 -20.5 -40.5t-45.5 -15.5t-46 14.5t-21 37.5l-13 199v15l-114 -9 q-87 0 -87 65z" />
<glyph unicode="," horiz-adv-x="451" d="M102 -176.5q0 25.5 25 46.5q45 52 66 194q18 121 80 121q71 0 71 -108q0 -47 -30.5 -112t-81.5 -116t-90.5 -51t-39.5 25.5z" />
<glyph unicode="-" horiz-adv-x="731" d="M145 715q0 25 48.5 43t118.5 26q123 14 207 14q26 0 47 -16.5t21 -42t-49 -43.5q-48 -18 -119 -26q-128 -14 -207 -14q-26 0 -46.5 17t-20.5 42z" />
<glyph unicode="." horiz-adv-x="445" d="M148 42.5q0 29.5 23 53.5t53 24t52 -24t22 -55.5t-23 -52t-54.5 -20.5t-52 22.5t-20.5 52z" />
<glyph unicode="/" horiz-adv-x="512" d="M31 -9q0 17 9.5 50t174.5 701.5t208 810.5q5 14 19.5 14t26 -12.5t11.5 -26t-21.5 -125.5t-170.5 -704t-213 -730q-5 -23 -20 -23q-24 0 -24 45z" />
<glyph unicode="0" horiz-adv-x="660" d="M98 1222q0 251 88 315q36 26 86 26q294 0 294 -1042q0 -514 -220 -514q-162 0 -219 501q-29 254 -29 714zM196 1395l8 -405l21 -200q1 -312 45 -533q32 -157 95 -157q30 0 53 61q24 61 34 148q20 162 19.5 252.5t-3.5 173.5t-10 196t-23 208t-39 181q-49 184 -147 198 q-32 -27 -42.5 -53t-10.5 -70z" />
<glyph unicode="1" horiz-adv-x="452" d="M-21 1521q0 54 165 54q86 0 105 -34q-12 -56 -12 -102.5t15.5 -171.5t15.5 -237t22 -435.5t22 -485.5v-13q48 6 75 6v1q87 0 87 -51q0 -60 -233 -60l-61 -1q-34 0 -49 10.5t-15 39.5t9.5 37t49 8t39.5 34q0 201 -31 599t-31 589l3 75q0 96 -71 96l-47 -2q-58 0 -58 44z " />
<glyph unicode="2" horiz-adv-x="537" d="M38 47v8q43 51 72 134.5t41 109.5q117 259 174 475t57 467t-98 259q-34 -18 -46 -98q-12 -75 -61 -75t-49 63q0 100 58 162q32 34 74 34v1q106 0 154 -66q35 -49 44.5 -88t13 -62t5.5 -59q3 -54 3 -157t-36 -268t-78.5 -279.5t-106.5 -275.5t-92 -246q124 21 242 21 q43 -31 43 -55.5t-27 -47.5l-312 -19q-29 0 -52 17t-23 45z" />
<glyph unicode="3" horiz-adv-x="476" d="M-13 1416q28 69 79.5 113t110.5 44t97 -31t59.5 -78t35.5 -110q23 -104 23 -182t-9.5 -107t-19 -44.5t-32.5 -48.5t-31 -45q126 -75 163 -425q8 -76 8 -131t-2 -90.5t-8.5 -83.5t-20.5 -83q-16 -36 -38 -68q-46 -66 -143 -66q-77 0 -114 31.5t-37 58t5.5 33.5t25.5 7 t31 -12q45 -31 73 -34q125 0 125 230q0 300 -54 434q-27 66 -71 121q-6 -2 -21 -2q-63 0 -63 42q0 32 45 80q86 93 86 181q0 79 -14 163q-27 164 -93 164q-25 0 -41.5 -18.5t-23.5 -40t-24.5 -40t-43 -18.5t-42.5 16.5t-21 39.5z" />
<glyph unicode="4" horiz-adv-x="554" d="M89 512q0 46 9 79q-9 48 -9 116.5t15.5 209.5t15.5 207v379q0 20 7 30t31 10t43 -14t19 -37l-9 -159l-1 -37q0 -21 4 -37v-7q6 -54 6 -125t-14.5 -244.5t-14.5 -228.5t3 -78q35 1 75 11l19 573q0 21 18 33.5t35 12.5l32 -36v-98q0 -319 -4 -476l59 5q61 0 61 -44 q0 -50 -82 -50q-33 0 -33 -18q0 -69 5.5 -190t15.5 -144q-4 -24 -4 -44t9 -35v-37q0 -77 -48 -77q-31 0 -48 32t-17 65v7q11 38 11 74l-15 199l2 89q0 35 -4 63l-112 -11v-1q-38 0 -80 33z" />
<glyph unicode="5" horiz-adv-x="429" d="M-12 1540l35 36h167q85 0 85 -52v-11l-38 -31h-51v6h-87q5 -129 40 -486q5 -1 39 -4q35 -4 49 -6q51 -9 78 -27q47 -32 78 -144q50 -181 50 -387q0 -175 -10 -215t-23 -77q-12 -38 -30 -64q-42 -62 -110 -114l-35 -1q-112 0 -112 58q0 23 19.5 34.5t46.5 11.5t50 -17 q49 17 77.5 112t28.5 157.5t-0.5 96t-2.5 86.5t-6.5 87t-12.5 79t-19.5 73.5t-29.5 60.5q-18 30 -40 48q-52 40 -122 41q-49 0 -63 39q-12 33 -12 78l11 104q0 128 -50 428z" />
<glyph unicode="6" horiz-adv-x="562" d="M95 597v283q0 706 220 706q16 0 32 -12.5t16 -34t-24 -40t-54 -24.5q-26 -25 -47 -142q-33 -186 -42 -384q17 3 32 3q202 0 238 -505q8 -104 8 -179.5t-2 -105t-11.5 -66t-26.5 -58.5q-40 -52 -125 -52q-193 12 -214 611zM195 772.5q0 -37.5 0.5 -72t2 -95.5t5.5 -115.5 t10 -118t16 -113.5t23 -94q27 -90 73 -91q53 0 53 139t-18 312q-36 341 -120 358q-28 -20 -36.5 -46t-8.5 -63.5z" />
<glyph unicode="7" horiz-adv-x="467" d="M70 1549q0 33 188 33h38q55 0 76 -16.5t28 -42.5q-37 -182 -71 -539q-62 -652 -136 -865q1 -5 1 -31t-22.5 -62.5t-57.5 -36.5l-39 35q1 42 17 93q85 259 141 659t63 718q-32 4 -56.5 4t-121.5 -9q-48 23 -48 60z" />
<glyph unicode="8" horiz-adv-x="531" d="M63 1398q0 209 142 209h43q66 -40 84.5 -69.5t26.5 -47.5q7 -18 11 -50q6 -50 6 -101t-1 -76t-4.5 -52.5t-5.5 -48t-8 -52.5l-9 -48q-12 -64 -18 -88t-15 -64t-11 -48q70 -163 116 -369t46 -374q0 -43 -1 -47l-1 -11v-1q-63 -142 -194 -142q-46 0 -79.5 29t-50.5 75 q-32 86 -32 188.5t48 331.5t48 304.5t-22 151t-48 137.5q-70 165 -71 263zM163 1415q0 -70 26 -200.5t51 -207.5q45 159 45 305q0 43 -14 123.5t-37 80.5l-22 -1h-21v1q-28 -31 -28 -101zM203 188q0 -52 26 -107v-10q2 -21 13.5 -43t29.5 -22q100 0 100 137t-29 279t-82 328 q-58 -191 -58 -560v-2z" />
<glyph unicode="9" horiz-adv-x="563" d="M94 1243q0 262 112 344q37 27 86 27q100 0 136 -46t36 -148l-24 -1183l-14 -147l1 -41q0 -34 -16.5 -58.5t-51.5 -24.5l-32 38q32 96 32 682l-4 245q-114 26 -187.5 111.5t-73.5 200.5zM194 1268q0 -45 2 -65.5t4.5 -36.5t9.5 -31t11 -25t16 -21.5t17.5 -17t22.5 -16 t23.5 -14.5t27.5 -15.5t29 -16.5q9 156 9 418q0 47 -14.5 73.5t-50.5 26.5t-57 -34.5t-31 -84.5q-19 -95 -19 -140z" />
<glyph unicode=":" horiz-adv-x="443" d="M138 251.5q0 29.5 23 53.5t53 24t51.5 -24t21.5 -55.5t-23 -52t-54 -20.5t-51.5 22.5t-20.5 52zM159 1025q0 29 23 53.5t52.5 24.5t51.5 -24t22 -55.5t-23 -52t-54.5 -20.5t-51.5 22.5t-20 51.5z" />
<glyph unicode=";" horiz-adv-x="438" d="M103 -2.5q0 25.5 25 46.5q25 37 39 119t28.5 139t48.5 57q71 0 71 -108q0 -47 -26 -112t-70 -116t-80 -51t-36 25.5zM179 1026q0 29 23 53.5t52.5 24.5t51.5 -24t22 -55.5t-23 -52t-54.5 -20.5t-51.5 22.5t-20 51.5z" />
<glyph unicode="&#x3c;" horiz-adv-x="524" d="M37 698q1 31 67.5 214.5t146.5 359t109 175.5l7 -1l45 -35q-18 -134 -140 -374q-118 -232 -118 -335q0 -16 139 -305t172 -348h26q-2 -27 -15.5 -49t-47.5 -22t-84.5 61.5t-97.5 159t-86 192t-75 188t-48 119.5z" />
<glyph unicode="=" horiz-adv-x="684" d="M57 634q0 21 12.5 33.5t33.5 12.5h307q209 0 209 -54q0 -21 -13.5 -34t-34.5 -13l-432 10q-82 0 -82 45zM57 826q0 21 12.5 33.5t33.5 12.5h367q159 0 159 -54t-216 -54q-92 0 -146 6h-9l-78 -3q-123 0 -123 59z" />
<glyph unicode="&#x3e;" horiz-adv-x="523" d="M45 33.5q0 30.5 81 189.5t162 309.5t81 169.5q-1 102 -91 280q-38 74 -74 147q-90 177 -92 282l55 35v-2q40 -18 118.5 -186t139 -341t62.5 -219l-361 -717l-38 -4q-17 0 -30 13t-13 43.5z" />
<glyph unicode="?" horiz-adv-x="464" d="M63 1336q0 72 11 111.5t44 69.5t82 30t82.5 -18.5t51.5 -44.5t28 -68q16 -61 16 -160.5t-20 -204.5q-18 -105 -42 -184q-62 -210 -63 -501q0 -99 1 -137q-36 0 -41.5 -3t-9.5 -3q-38 0 -50 46q0 226 57.5 515t57.5 476t-61 187q-39 0 -39 -91q0 -16 14 -111 q0 -9 -25 -25.5t-36 -16.5q-58 1 -58 133zM131 68q0 29 25 54.5t53.5 25.5t52.5 -26.5t24 -51.5q0 -78 -83 -78q-29 0 -50.5 23.5t-21.5 52.5z" />
<glyph unicode="@" horiz-adv-x="1030" d="M15 956q0 296 39 430q48 164 133 236q114 96 291 97q249 -1 379 -255q128 -251 128 -697q0 -125 -11 -174t-24 -82.5t-31 -54.5q-43 -50 -110 -50q-50 0 -103 113q-34 -94 -93.5 -153.5t-125.5 -59.5q-109 0 -161 100q-68 131 -68 445q0 152 7 200t15 88.5t19.5 68 t29.5 56.5q19 30 41 47q53 40 111.5 40t98 -24.5t66.5 -62t49 -96t34.5 -114.5t22.5 -130t15 -128.5t11 -125t10 -105.5v-9l29 -46q22 12 35 71q18 82 18 176t-4 165.5t-15.5 157t-30 159t-49.5 143.5t-72 120q-90 110 -231 110q-187 0 -263 -144q-61 -116 -67 -307 q-2 -46 -2 -111v-120q0 -800 212 -936q40 -26 104 -25.5t132.5 19t110.5 45.5q43 27 75 53q78 64 101 64t23 -20q0 -24 -29.5 -64t-83.5 -82.5t-147.5 -73t-203.5 -30.5q-415 0 -415 1076zM365 824.5q0 -169.5 36 -292t102 -122.5q43 0 89 74t46 121v154q0 122 -21 246 q-66 207 -126 241q-58 0 -92 -126t-34 -295.5z" />
<glyph unicode="A" d="M34 64q28 40 91 409t103.5 577.5t87.5 350.5t90 142t66 -18q0 -73 40 -395t40 -416.5t21.5 -314t21.5 -329.5q0 -69 -68 -69q-63 0 -63 53v267q-29 20 -104.5 34t-134.5 18q-21 -36 -34.5 -104t-28 -137t-38.5 -109q-80 0 -90 41zM238 464q85 -23 142.5 -23t81.5 6 q-3 41 -21 222.5t-32.5 346t-14.5 199t1 39.5q-32 -33 -92.5 -367t-64.5 -423z" />
<glyph unicode="B" horiz-adv-x="576" d="M74 1370v12q0 110 34 140q17 15 43 15q146 0 228 -94t82 -242q0 -93 -49 -193t-117 -149q125 -84 178.5 -213.5t53.5 -271.5q0 -75 -37.5 -154t-75 -126t-98.5 -79t-134 -32h-8q-96 0 -96 51l10 504zM185 1347.5q0 -73.5 4 -231t4 -228.5q53 12 91 88q31 64 51 123.5 t26 73.5v73q0 60 -44.5 117.5t-102.5 57.5q-29 0 -29 -73.5zM192 769q10 -283 10 -679q103 16 161 94t58 180t-17 179.5t-37.5 117t-47.5 67.5q-33 34 -54 41h-73z" />
<glyph unicode="C" horiz-adv-x="649" d="M51 792l2 245q0 117 14 189q-6 33 -6 64q0 126 94 200.5t232 74.5q49 0 96 -27.5t47 -72.5q0 -22 -17 -34t-57.5 -12t-55.5 25v-1h-28v5q-119 0 -162 -74q-40 -68 -40 -234l6 -141l-18 -143v-49q0 -238 10.5 -315t21.5 -138t28.5 -104t41.5 -81q48 -76 133 -76 q35 0 87 36.5t79 36.5t58 -31q0 -103 -117 -147q-58 -21 -126 -21t-116 27.5t-80 71t-56 111.5t-38 135q-12 68 -20 156q-12 148 -13 324z" />
<glyph unicode="D" horiz-adv-x="653" d="M36 1481q0 71 157 71h31q209 0 303 -234q66 -163 66 -450v-95q-5 -9 -5 -19l5 -43q1 -145 -77 -342q-88 -225 -208 -319q-68 -54 -140 -55q-38 0 -69 17.5t-31 52.5q45 47 45 241q0 114 -19 339t-19 337l6 224q0 54 -22.5 145.5t-22.5 129.5zM162 1427q0 -185 24.5 -557 t24.5 -560v-196q77 50 134 139.5t87 195.5q56 203 56 405q0 232 -58 366q-59 138 -146 182q-52 27 -117 27h-5v-2z" />
<glyph unicode="E" horiz-adv-x="457" d="M62 1454v7q34 56 51 72l152 18q31 0 62.5 -18.5t31.5 -48.5q0 -61 -93 -61l-59 2q-15 0 -22 -1l16 -338q0 -41 -5 -119.5t-5 -114.5q11 2 30 7q42 11 65.5 11t42 -17t18.5 -41t-15 -43t-39 -19l-51 2q-30 0 -42 -15v-632q105 6 114 6q117 0 117 -54v-7q-14 -28 -48 -43 t-60 -17t-67 -2h-64q-76 0 -94 30q-8 14 -8 37v1190q0 35 -14 104t-14 105z" />
<glyph unicode="F" horiz-adv-x="391" d="M39 1440q1 106 145 113q22 1 59.5 1t59 -14t21.5 -57t-57 -43l-50 2q-57 0 -57 -23q0 -95 15 -278.5t16 -271.5q13 2 35 8q52 14 77 14t41.5 -19.5t16.5 -43.5q0 -67 -170 -67q0 -111 19.5 -333t19.5 -334l-5 -13q4 -12 4 -31.5t-19 -35.5t-50 -16q-59 0 -59 131 q0 195 -20.5 737t-41.5 574z" />
<glyph unicode="G" horiz-adv-x="727" d="M51 862q0 198 13 284t26.5 141t31.5 97.5t44 82.5q26 41 60 67q72 58 165 58h2q94 -1 94 -59q0 -22 -16 -35t-38 -13l-59 10q-77 -1 -121 -93q-47 -101 -60 -192t-19 -147q-8 -55 -10 -125q-3 -78 -3 -155v-39l-1 -127q0 -196 17.5 -279t36.5 -132q18 -50 44 -82 q85 -65 149 -73q91 0 151 86q-3 182 -33 234l-80 -8q-70 0 -70 58q0 50 132 65q26 3 57 3t53 -32t22 -85.5t20.5 -174.5t20.5 -163q0 -75 -50.5 -75t-67.5 43v2q-12 -5 -45 -23q-62 -34 -123 -34q-44 0 -88 18q-94 37 -144 125q-54 93 -71 178t-23 134q-7 50 -11 114 q-5 81 -5 195z" />
<glyph unicode="H" horiz-adv-x="560" d="M54 1510q0 37 35 37q19 0 41 -10.5t31 -22.5q-7 -73 -7 -154l14 -421l-2 -77q0 -29 4 -53l199 15l-8 672v54q78 0 93 -70q7 -34 7 -173t19.5 -589.5t19.5 -674.5q0 -27 -17 -50.5t-43 -23.5q-52 0 -52 68q0 390 -18 722q-55 10 -103 10t-86 -16q0 -114 17 -345t17 -349 q0 -20 -12 -37t-32 -17q-56 0 -82 351q-35 477 -35 1154z" />
<glyph unicode="I" horiz-adv-x="432" d="M36 64q0 49 62 49l43 -3q30 0 30 48q0 158 -19 473.5t-19 473.5l4 209q0 66 -5 114q-27 -9 -48 -9q-48 0 -48 49q0 25 31 43.5t77 26.5q86 15 127.5 15t59.5 -16.5t18 -39t-13.5 -39t-34.5 -16.5l-36 1q-20 0 -29.5 -8.5t-9.5 -33.5q0 -200 25 -599t25 -599v-79 q21 3 42 3q85 0 85 -72v-12l-51 -35l-139 -5q-177 0 -177 61z" />
<glyph unicode="J" horiz-adv-x="419" d="M23 1481q0 72 245 72h26q92 0 92 -54.5t-85 -54.5l-6 1h-28v-16q0 -53 12 -158.5t12 -198.5t18.5 -358.5t18.5 -398.5l-1 -163q0 -121 -50.5 -216.5t-147.5 -129.5q-32 0 -53 16t-21 44t25.5 51t54.5 35q28 36 55 116t27 173l1 284q0 594 -54 920q-7 -1 -27 -6 q-40 -10 -61.5 -10t-37 15.5t-15.5 36.5z" />
<glyph unicode="K" horiz-adv-x="650" d="M70 96.5q0 103.5 13.5 287.5t13.5 276l3 389q0 102 -15 236t-15 175.5t16.5 61t41.5 19.5q76 0 76 -166q0 -1 -9 -421q7 17 39 100t66 167q35 83 74 173q88 202 128 202q23 0 40.5 -15.5t17.5 -37t-111.5 -255.5t-125.5 -297v-36q30 -76 163.5 -497t133.5 -446.5 t-20 -42.5t-45 -17l-48 8q-51 291 -106 507.5t-144 412.5q-61 -109 -64 -132q-6 -62 -6 -98l13 -380v-168q0 -109 -70 -109q-60 0 -60 103.5z" />
<glyph unicode="L" horiz-adv-x="430" d="M58 1529q0 19 15 30.5t37.5 11.5t41 -17t18.5 -42l20 -737l3 -65v-9q8 -178 8 -534v-52h156q44 -30 44 -57t-15 -44.5t-31 -17.5t-37 7q-17 -4 -39 -4l-66 3q-21 -25 -52.5 -25t-53 19.5t-21.5 45.5l13 90q0 233 -20.5 698.5t-20.5 698.5z" />
<glyph unicode="M" horiz-adv-x="824" d="M73 132l10 332l-7 793q0 133 3 265l57 32q61 -4 139 -326q63 -263 102 -472.5t43 -227.5q14 66 52 236t57 264q56 275 69 489v12q4 26 25 42t44 16t37.5 -16.5t14.5 -35.5q0 -245 18.5 -734t18.5 -734q0 -49 -26 -85t-50 -36q-50 0 -50 81l-8 862v104q-14 -79 -63 -276.5 t-63 -302.5v-13q-2 -8 -6 -38t-8.5 -49.5t-13.5 -43.5q-19 -48 -63 -48q-73 0 -73 191q0 189 -92 529q-46 170 -59 230q-4 -164 -4 -247l17 -842q0 -44 -31 -77q-53 0 -71.5 34t-18.5 92z" />
<glyph unicode="N" horiz-adv-x="737" d="M67 812v261l14 376v13q0 102 45 102q41 0 110 -190q126 -345 302 -1139l2 -10l8 714v606q12 51 67 51t55 -80v-12q-12 -25 -12 -60l-13 -757v-626q0 -31 -17 -61t-42 -30q-43 0 -168 421.5t-247 906.5v-672q0 -98 14.5 -292t14.5 -292q0 -19 -23 -31.5t-58.5 -12.5 t-35.5 32l10 147q0 106 -13 344t-13 291z" />
<glyph unicode="O" horiz-adv-x="650" d="M54 974v46.5v54.5q1 59 3.5 106t9 101.5t16.5 96t27 81.5q18 41 40 67q50 58 115 58t111 -23.5t77.5 -75.5t55 -101t37 -136.5t21.5 -141.5q8 -55 11 -157q4 -137 4 -214v-118l-18 -259v-9q-13 -57 -13 -123t-23 -127.5t-70 -109t-103 -47.5t-102 38t-76 97.5t-53 142 t-35.5 161t-20.5 165.5q-12 128 -12 201v6q0 24 1 46q0 44 -1 80q-1 52 -2 94zM149 852q0 -137 21 -295.5t43.5 -259.5t60.5 -171.5t85 -70.5q41 0 69 77q28 78 40 192q20 204 20 286v72v49q0 38 -2.5 110.5t-8.5 136t-15.5 140.5t-25 137t-36 112.5t-51 81t-60.5 28.5 t-49.5 -21t-33 -59.5t-24 -82.5t-16 -101.5t-9.5 -104.5q-3 -46 -5 -102q-2 -93 -3 -145v-9z" />
<glyph unicode="P" horiz-adv-x="495" d="M43 1520q32 46 79 46q76 0 138.5 -34t101.5 -90q81 -117 81 -267t-65 -272.5t-191 -190.5l16 -638q0 -85 -68 -85q-25 0 -37 21.5t-12 47.5l10 731q0 482 -53 731zM158 1459q0 -108 12 -324t12 -324q156 146 156 347v1q0 115 -28 161q-14 22 -22.5 34.5t-34.5 33.5 q-31 25 -95 71z" />
<glyph unicode="Q" horiz-adv-x="676" d="M56 574l10 334l-2 144q0 524 226 524q114 0 180 -82q64 -82 90 -206q28 -139 30 -238t4 -167q1 -34 1 -67q-1 -32 -1 -64q-1 -43 -1 -70v-23v-92q0 -173 -22 -278t-104 -219q2 -8 7.5 -41t11.5 -63t16 -62q21 -73 52 -73h8q64 0 76 -16.5t12 -33.5q0 -63 -91 -63 q-35 0 -85 29v1q-56 26 -78 91q-17 51 -24.5 107t-11.5 74h-84q-195 130 -216 426q-4 56 -4 128zM156 724q1 -114 3 -159t8 -114.5t19.5 -128.5t33 -114.5t53 -89.5t75.5 -38v2q15 26 56 26v-1q77 71 77 220v504q1 41 1 80q0 563 -209 563q-37 0 -63 -106q-26 -105 -36 -264 q-18 -258 -18 -373v-7z" />
<glyph unicode="R" horiz-adv-x="548" d="M78 44v16l8 1201v252q0 24 10 34t52.5 10t86 -20.5t73.5 -54.5q29 -36 50 -80q40 -85 40 -185t-50 -229q-6 -14 -24 -59t-21 -53q1 -152 77 -395q26 -82 74 -224.5t60 -180.5v-5q0 -69 -16 -80.5t-34 -11.5q-38 0 -74 55v7q-10 186 -128 563q-54 172 -75 255v-807 q0 -31 -11 -48t-40 -17t-43.5 16.5t-14.5 40.5zM180 1045q0 -63 2 -94q35 33 69 79l32 177q3 14 3 32q0 49 -20 119q-28 96 -75 105z" />
<glyph unicode="S" horiz-adv-x="523" d="M38 24q0 55 46 55q23 0 60.5 -15.5t65 -15.5t59.5 35t50 87q37 106 37 191.5t-30 183.5t-73 184t-87 172q-104 205 -103 374q-1 160 101 251q54 48 127 48q37 0 72 -20.5t49 -53.5l-35 -44q-51 0 -80 20q-38 -4 -66 -36q-51 -59 -51 -145.5t22 -168.5t55 -147t71 -141 q39 -76 72 -146q77 -162 77 -354q0 -130 -67 -250q-32 -58 -88 -95.5t-125 -37.5q-74 0 -116.5 22t-42.5 47z" />
<glyph unicode="T" horiz-adv-x="492" d="M21 1468.5q0 24.5 49 41.5q50 18 120 26q123 14 207 14q25 0 45.5 -16.5t20.5 -41.5t-18 -39.5t-44 -14.5l-73 4q-14 0 -21 -1q14 -118 14 -252l-4 -264l18 -471l17 -368q0 -100 -59 -100q-34 0 -50 32t-16 71l16 327q0 106 -14 319t-14 319l3 179q0 147 -19 191 l-111 -11q-26 0 -46.5 15.5t-20.5 40z" />
<glyph unicode="U" horiz-adv-x="699" d="M39 1477q0 25 17.5 44t41.5 19q74 0 74 -146l19 -712q12 -27 20.5 -109t8.5 -127.5t14.5 -112t40 -134.5t69 -116t82.5 -48t58 18.5t26 52.5q11 54 11 113v400q0 65 -13 193t-13 193v14l-4 119l-15 351q0 25 25 40.5t52 15.5l50 -48v-34l-15 -125q0 -171 19 -515 t18.5 -465.5t-4 -162t-15.5 -86.5t-33 -76q-49 -70 -150 -70h-2q-123 0 -199 109q-80 116 -112 278q-38 191 -46 335q-12 217 -12 430l2 320q-15 17 -15 42z" />
<glyph unicode="V" horiz-adv-x="620" d="M31 1523q12 40 57 40q56 0 189 -861q52 -337 57 -363q14 115 50 369q75 517 75 812v8q32 41 75 41l43 -23q-5 -35 -22 -199t-32 -294t-29 -245.5t-30.5 -244t-31.5 -231t-30 -187.5q-32 -179 -52 -179q-29 0 -48 22q-50 206 -146 799.5t-125 735.5z" />
<glyph unicode="W" horiz-adv-x="901" d="M26 1491q26 49 73 49t85 -213t66 -516.5t29 -307.5q3 28 20.5 172.5t27.5 232.5q30 266 30 378v39q0 22 16.5 42.5t37.5 20.5q73 0 73 -60v-31q0 -198 92 -573q40 -164 57 -263q11 113 40 327q63 466 63 718q0 45 15 65.5t49 20.5t53.5 -16t19.5 -41t-21 -46 q0 -298 -77.5 -722.5t-77.5 -723.5q0 -31 -15.5 -51t-45.5 -20q-74 0 -186 787q-16 116 -20 134q-38 -273 -58 -471.5t-20 -393.5q0 -22 -18.5 -39.5t-40.5 -17.5q-75 0 -75 156q0 96 -84.5 701.5t-107.5 662.5z" />
<glyph unicode="X" horiz-adv-x="520" d="M38 33q0 78 43 230t86 309.5t43 239.5t-20 174q-22 94 -46 166q-66 194 -65 321v5q19 42 48.5 42t50 -35t36.5 -94.5t27 -112t21.5 -115.5t13.5 -76q4 10 26 142q55 321 116 321q23 0 42 -12t19 -47.5t-76.5 -330t-76.5 -364.5q0 -24 52 -280t54 -268v-12q2 -25 18 -76 t16 -76.5t-17 -42.5t-39 -17q-60 0 -60 49q0 106 -18 189t-38.5 165.5t-26.5 110.5q-5 -21 -17 -94t-26 -144q-14 -72 -32 -146q-41 -166 -99 -167q-20 0 -37.5 13t-17.5 33z" />
<glyph unicode="Y" horiz-adv-x="453" d="M25 1513q0 15 17.5 25.5t36.5 10.5t40.5 -47t39.5 -120t33.5 -146t28.5 -141.5t19 -88.5q4 18 9.5 85.5t12.5 138.5q8 72 20 144q27 165 81.5 165t54.5 -22q0 -115 -49 -343t-49 -346l-6 -71v-31l11 -543l7 -102v-46q0 -27 -20.5 -43.5t-44.5 -16.5t-39.5 14.5 t-15.5 35.5l10 396q0 60 -19.5 177.5t-19.5 189t-24.5 174t-54.5 184.5q-79 215 -79 367z" />
<glyph unicode="Z" horiz-adv-x="429" d="M34 31q47 75 105.5 389.5t96 607.5t45.5 423q-70 -10 -117 -10q-111 0 -111 65v9l28 34v1q27 -7 58 -7l193 21q24 0 40 -17.5t16 -41.5q0 -536 -227 -1420l108 8q108 0 108 -63v-9l-32 -32l-253 -8q-39 0 -58 50z" />
<glyph unicode="[" horiz-adv-x="467" d="M42 -35q0 84 21.5 252.5t21.5 295t26.5 462.5t26.5 505l-2 39q0 23 8 35.5t33 22.5h78q118 -1 164 -31q22 -14 22 -35t-17.5 -33.5t-38.5 -12.5l-115 13q-38 0 -38 -20q0 -238 -40 -711.5t-40 -698.5v-42h21q182 0 182 -74q0 -44 -66 -44q-247 0 -247 77z" />
<glyph unicode="\" horiz-adv-x="511" d="M36 1492.5q0 34.5 16.5 48.5t38.5 14q41 0 110 -224t128.5 -502.5t103.5 -518t44 -276t-46 -64.5v-1q-34 0 -79 120t-88.5 308.5t-79.5 366t-68 348.5t-38 196q-4 25 -16 64q-26 86 -26 120.5z" />
<glyph unicode="]" horiz-adv-x="472" d="M32 1511q0 66 193 66l42 1q40 0 54.5 -17.5t14.5 -130t28 -435.5t28 -450t20.5 -308t20.5 -272q0 -77 -248 -77q-67 0 -67 44q0 74 182 74h21v42q-6 204 -43.5 678.5t-37.5 731.5v18l-134 -11q-74 0 -74 46z" />
<glyph unicode="^" horiz-adv-x="459" d="M38 1553.5q0 31.5 33 123t81.5 173.5t83.5 82t83.5 -157t48.5 -238q0 -24 -18.5 -40.5t-41.5 -16.5q-55 1 -77 189q-10 86 -13 97q0 -6 -15.5 -48.5t-27 -74.5t-23 -58t-24 -50t-24.5 -37.5t-25.5 -13.5t-27 19t-13.5 50.5z" />
<glyph unicode="_" horiz-adv-x="844" d="M-6 -47.5q0 18.5 14.5 33t35.5 14.5h659l97 2q50 0 50 -38q0 -17 -16 -31.5t-58.5 -14.5t-70.5 -2l-632 -10q-32 0 -55.5 14t-23.5 32.5z" />
<glyph unicode="a" horiz-adv-x="621" d="M42 44l5 18q138 533 205 1038q2 14 6 82q10 150 38 191h69q28 0 49 -13t21 -39q0 -156 41.5 -463t41.5 -442l22 -126q0 -25 19.5 -122t19.5 -127v-2q0 -45 -34 -58q-43 0 -67 14t-24 54q0 87 -30 253l-202 30q-19 -68 -29 -149t-19 -118q-18 -76 -67 -76 q-24 0 -44.5 15.5t-20.5 39.5zM230 408q35 -23 181 -33q-6 30 -6 104.5t-8.5 185t-24.5 257t-22 212.5q-93 -515 -120 -726z" />
<glyph unicode="b" horiz-adv-x="491" d="M65 88l20 436l9 649l-11 106v11q0 43 13.5 68t69 25t108.5 -29t84 -80q61 -100 61 -228t-19 -202.5t-64 -138.5q80 -77 92 -253q2 -40 2 -96q0 -3 1 -5q0 -53 -10 -105q-10 -54 -33 -103q-24 -49 -58 -85q-75 -78 -201 -78q-43 0 -55 38q-8 29 -9 70zM181 186l2 -10v-92 q69 16 103.5 81.5t34.5 122t-1.5 89.5t-9.5 81t-20 84q-30 88 -93 101q-9 -132 -9 -310zM194 763q108 3 108 259t-84 266q-24 -52 -24 -220v-305z" />
<glyph unicode="c" horiz-adv-x="505" d="M46 615v49q0 302 30 420q36 146 100 202q87 78 220 78q32 0 47.5 -15t15.5 -36t-12.5 -37.5t-31.5 -17.5h-96q-42 0 -73 -54q-30 -54 -44 -132q-25 -143 -25 -238v-7v-10l-9 -395q0 -125 13.5 -173t28 -77.5t34.5 -48.5q46 -44 118 -44q24 0 44 18q24 0 43 -11t19 -34 q0 -81 -113 -81q-46 0 -96.5 13.5t-75.5 29.5q-136 88 -136 481z" />
<glyph unicode="d" horiz-adv-x="610" d="M55 1275q0 37 23 57.5t49 20.5q211 0 343 -247q76 -141 76 -298l-4 -103v-113q0 -206 -18.5 -275t-38.5 -115t-48 -82q-65 -82 -164 -132h-148q-52 0 -52 268l6 645q0 66 -12 201.5t-12 172.5zM185 1035.5q0 -141.5 15.5 -442.5t15.5 -452v-49q178 0 214 360q8 83 8 160 q0 618 -238 646q-15 -81 -15 -222.5z" />
<glyph unicode="e" horiz-adv-x="455" d="M72 436l14 598l-11 173q0 145 86 145q55 0 150 -25.5t95 -65.5q0 -42 -60 -64q-95 32 -155 39q3 -44 3 -88l-9 -294q0 -2 6 -32l73 3q99 0 99 -56q0 -22 -18 -38.5t-45.5 -16.5t-59.5 4h-52q6 -78 6 -155l-9 -371q0 -115 4 -115l151 5q78 0 78 -50q0 -31 -27 -45t-61 -14 h-173q-27 0 -49 18.5t-23 44.5v54z" />
<glyph unicode="f" horiz-adv-x="483" d="M59 13q17 183 25.5 520.5t14.5 441.5v50q8 149 8 278q0 29 24.5 45t55 16t65.5 -2q36 -2 87 -10q116 -17 116 -71q0 -58 -104 -58q-41 20 -107 20h-24v-24l-19 -411v-55l38 1q99 0 99 -54q0 -27 -22 -43.5t-57.5 -16.5t-73.5 12v-580q0 -90 -53 -90q-32 0 -73 31z" />
<glyph unicode="g" horiz-adv-x="638" d="M46 568v88q0 289 17 365.5t39 142.5t54 102q77 88 178 88t101 -52q0 -24 -20 -39.5t-45 -15.5l-43 5q-71 0 -107 -140q-52 -200 -52 -483q0 -193 12.5 -265.5t27.5 -121.5q14 -50 34 -80q47 -71 121 -71q99 0 99 326v94q-15 8 -48 8l-40 -1q-71 0 -71 47q0 29 20.5 44 t49.5 15v-1h28q184 0 184 -63l-22 -149l10 -217q0 -101 -70.5 -155.5t-164.5 -54.5q-142 0 -206 106q-46 75 -58 141.5t-17 102.5t-7 97q-4 85 -4 137z" />
<glyph unicode="h" horiz-adv-x="571" d="M68 1294q0 24 17 42.5t41 18.5q65 0 65 -122l-8 -511q37 -10 112 -10h74q5 9 5 66t-13.5 250.5t-13.5 291.5q0 23 18 38.5t34 15.5t26 -3t22 -8t19 -7q0 -266 20 -777.5t19.5 -528.5t-22 -33.5t-48 -16.5t-42.5 39t-21.5 115.5t-7.5 132.5q-1 24 0 55q0 42 1 96 q2 95 2 110v8l3 59l-12 19v2q-17 -4 -37 -4l-132 19v-235l11 -337q0 -29 -14.5 -51.5t-42.5 -22.5q-41 0 -56.5 74.5t-15.5 203.5l6 312q0 97 -3 107v10q8 107 8 120z" />
<glyph unicode="i" horiz-adv-x="499" d="M25 1309q0 47 101 47h244q83 0 83 -43q0 -19 -18 -35t-41 -16h-105q8 -84 8 -190l-11 -391l10 -435v-61l-1 -57h27l59 2q84 0 84 -51q0 -26 -20.5 -44.5t-47.5 -18.5h-90q-93 0 -119 4q-16 -2 -25 -2q-73 0 -73 46q0 19 12 36t24 18h58l4 27l-14 435l11 456 q0 117 -10 220h-39l-47 -2q-30 0 -47 11.5t-17 43.5z" />
<glyph unicode="j" horiz-adv-x="520" d="M17 -168l2 34q0 12 29 22q106 37 133 66q59 64 59 233l-23 1046v9q-78 0 -111.5 13.5t-39.5 20.5t-6 21.5t23 28t74.5 13.5t193 -12.5t141.5 -34t-16.5 -34.5t-39.5 -13h-105l21 -863v-218q0 -102 -16.5 -147.5t-31 -75.5t-38.5 -53t-54 -42q-63 -39 -171 -39 q-24 0 -24 25z" />
<glyph unicode="k" horiz-adv-x="637" d="M66 34v622q0 111 19.5 331.5t19.5 330.5q18 39 52.5 39t53 -18.5t18.5 -44.5v-6q-27 -47 -27 -373v-73q3 5 75 150q175 352 216 352q30 0 54.5 -14t24.5 -41q0 -2 -49 -82q-151 -247 -171 -288l-4 -122q0 -88 70.5 -329t117.5 -319q6 -9 26.5 -37t30 -49t9.5 -44 t-17.5 -38.5t-40.5 -15.5q-48 0 -100 101.5t-92 248.5q-69 251 -102 437q-74 -147 -74 -356v-379q0 -48 -42 -48q-31 0 -49.5 17.5t-18.5 47.5z" />
<glyph unicode="l" horiz-adv-x="467" d="M67 39q0 152 13 457.5t13 457.5v15q-12 128 -12 192q0 194 71 194q21 0 36.5 -15t15.5 -36l-14 -156l6 -492q-12 -28 -12 -70v-41l-8 -326q0 -141 69 -141l85 3q110 0 110 -60q0 -22 -19 -36.5t-43 -17.5q-75 24 -183 24q-33 -19 -63.5 -19t-47.5 21t-17 46z" />
<glyph unicode="m" horiz-adv-x="1013" d="M58 9q0 209 31.5 626t31.5 626q-12 19 -12 42.5t25 35.5t54 12q44 0 174 -411.5t160 -569.5q9 30 37.5 151.5t60.5 252.5q32 132 70 266q86 308 146 308q27 0 51 -15t24 -41q0 -148 13 -442t13 -427l-5 -216v-1q0 -23 12 -146l4 -40q9 -22 9 -46.5t-19 -52.5t-50 -28 q-64 0 -64 128l1 262q0 91 -15 267t-15 237t4 145.5t4 126.5q-9 -27 -69 -283q-156 -662 -223 -662q-40 0 -62.5 24t-22.5 64q0 97 -76.5 399.5t-129.5 463.5q-39 -722 -39 -976l3 -61q0 -33 -14 -50.5t-44 -17.5t-49 14.5t-19 34.5z" />
<glyph unicode="n" horiz-adv-x="827" d="M64 829l12 382q0 95 75 151v-13q8 5 15 5q48 0 120 -165.5t130 -363.5t115.5 -399.5t71.5 -236.5q41 429 41 1039l-3 55q0 61 51 61q29 0 43.5 -24t14.5 -56v-155q-2 -241 -21.5 -643.5t-52.5 -454.5q-56 -17 -77.5 -17t-33 14.5t-18.5 44.5t-12 40l1 9q0 76 -147 483 t-213 560v-1031q2 -4 8 -14q13 -22 13 -41t-18.5 -38t-43.5 -19q-67 0 -67 125z" />
<glyph unicode="o" horiz-adv-x="651" d="M50 714v37q0 322 37 458q31 115 60 142t57 27q238 0 328 -240q52 -138 52 -340v-15l4 -232q0 -589 -273 -589q-113 0 -173 125q-57 120 -70 236q-21 175 -21 303l2 78q0 10 -3 10zM162 717q0 -297 48 -518q51 -129 97 -152q37 0 67 30t47.5 80.5t29.5 106.5q11 55 17 118 q10 109 10 186t-13.5 236t-13.5 237v36q-2 75 -49 133.5t-120 58.5q-70 0 -93 -79q-19 -66 -19 -163l2 -121z" />
<glyph unicode="p" horiz-adv-x="483" d="M64 702v7q20 40 20 176l3 195q0 125 -16 190q14 72 55 72h90q118 0 166 -98q42 -87 42 -200q0 -143 -7 -175.5t-15 -61.5t-19.5 -47t-29.5 -39.5t-41 -36.5q-51 -33 -123 -56v-219l16 -388q0 -25 -21 -42.5t-48 -17.5l-43 25q-25 113 -25 301l8 365q-12 27 -12 50z M186 1115l4 -399v-3q122 16 122 346q0 97 -24 132q-26 37 -80 37q0 3 -22 3v-116z" />
<glyph unicode="q" horiz-adv-x="644" d="M49 518q1 16 1 30q0 42 1 105.5t1 106.5t2.5 92.5t9.5 126t23 140t40 123t64.5 93.5t91.5 34q16 -7 47.5 -14.5t62 -20t66 -46.5t57 -80.5t36 -93t20.5 -104.5q10 -98 10 -171.5t-0.5 -112t-2.5 -111.5t-7.5 -133.5t-13.5 -136t-22 -135t-32 -115.5q-38 -116 -105 -144 q0 -67 25 -158.5t31 -118.5q95 0 95 -58q0 -21 -13.5 -35.5t-34.5 -14.5v2q-115 0 -158 47q0 53 -4.5 86.5t-6.5 51t-7.5 49t-8 43.5t-9.5 48t-9 45q-125 26 -183 142q-38 78 -48 149t-14 113q-3 44 -4 104q-1 40 -1 72zM152 637q0 -27 1.5 -91t5.5 -115t10 -118t17 -117 t25 -96q29 -94 82 -94q29 12 60 12q36 0 78 207t42 286v358q0 419 -202 419q-34 0 -60 -78q-25 -76 -37 -186q-22 -214 -22 -287q-1 -37 -1 -62t1 -38z" />
<glyph unicode="r" horiz-adv-x="504" d="M63 1268q0 97 68 97q107 0 180 -56t73 -160v-144q0 -59 -22 -107.5t-51 -102t-32 -59.5q11 -50 39 -196q60 -319 133 -459q21 -40 21 -62.5t-12.5 -38t-33.5 -15.5q-43 0 -82.5 98.5t-63.5 218.5q-73 367 -89 404h-25l-2 -222q0 -271 39 -427l-23 -55h-57l-27 30 q2 92 2 206.5t-17.5 489.5t-17.5 560zM167 1260q0 -84 4 -242.5t4 -230.5q48 25 77.5 130.5t29.5 161.5t-3 82.5t-13 58.5q-20 66 -92 69z" />
<glyph unicode="s" horiz-adv-x="445" d="M49 51l23 35l85 -15q39 0 68 34t43 85q27 98 27 173.5t-25 149.5t-61.5 137.5t-72.5 129.5q-86 156 -86 306q0 92 31 163q58 132 154 132q36 0 68.5 -23t32.5 -50q0 -47 -50 -47q-22 0 -43 12q-65 -3 -88 -145q-5 -31 -5 -72.5t18 -102.5t45.5 -108.5t59 -105 t59.5 -111.5q64 -125 63 -286q1 -124 -57 -237q-28 -56 -79.5 -91.5t-117.5 -36.5v-5q-84 12 -92 79z" />
<glyph unicode="t" horiz-adv-x="493" d="M23 1316q0 19 22 31.5t43 12.5l278 -19l33 1q64 0 64 -49q0 -25 -21 -40.5t-47 -15.5l-94 14l-4 -21q0 -194 34 -581t34 -582q0 -24 -22 -42.5t-48 -18.5l-38 27l-4 157q0 1 3 70q-8 26 -32.5 462t-26.5 533h-8q-166 3 -166 61z" />
<glyph unicode="u" horiz-adv-x="641" d="M54 1306q19 43 43.5 43t43.5 -37.5t19 -79.5v-557q0 -73 14.5 -217t14.5 -217q0 -150 130 -150q146 0 146 1101v115l-1 34q0 24 11 36t38.5 12t41.5 -9q13 -8 19 -24q8 -25 9 -66l-14 -206l-9 -171l2 -35q0 -909 -264 -909h-2q-100 0 -149 83q-51 86 -62 171 q-17 131 -19.5 300.5t-2.5 489.5z" />
<glyph unicode="v" horiz-adv-x="666" d="M28 1311q0 27 15.5 41t34.5 14q57 0 109 -196q52 -197 78 -368.5t39 -262.5t24.5 -182.5t14.5 -109.5q45 226 110.5 653t77.5 496h46q18 0 32.5 -13t14.5 -32q0 -115 -49 -289.5t-57.5 -225t-17.5 -163.5t-21 -222t-32 -222t-56.5 -183t-86.5 -70l-38 31q0 249 -47.5 508 t-93 435t-61.5 223q-36 111 -36 138z" />
<glyph unicode="w" horiz-adv-x="802" d="M31 1293q17 36 59 36q66 0 66 -148.5t43 -453t48 -444.5q87 593 87 903l55 24q25 0 43 -13t18 -37v-17q58 -197 92 -571q16 -171 30 -265q38 284 38 677q0 52 15.5 154t15.5 154q-7 18 -7 35q0 50 57.5 50t57.5 -48q0 -65 -5 -84v-11q-28 -85 -28 -188v-150 q0 -128 -31.5 -385.5t-31.5 -371.5q0 -208 -79 -208q-59 0 -59 87.5t-6 176.5t-19.5 196t-23.5 176.5t-30 199t-27 175.5q-7 -68 -7 -137t-15.5 -260.5t-54 -389.5t-87.5 -198q-79 1 -119 429q-18 184 -32 370q-36 476 -63 537z" />
<glyph unicode="x" horiz-adv-x="471" d="M35 1286q0 48 61 48q42 0 76 -132q30 -116 44.5 -205t17.5 -103q2 13 9 50.5t10 56t7 49.5q8 62 8 108l-1 67q0 54 18 85.5t74 46.5l38 -48q-31 -47 -33 -91t-2 -85v-24q-24 -65 -51 -228t-27 -235.5t37 -195t74 -235t37 -148t-16.5 -50t-36 -14.5t-36 19t-29.5 52.5 t-24.5 72t-20.5 84t-16 81.5t-13 72t-9 49q-5 -30 -18.5 -153t-33.5 -187q1 -7 1 -24q0 -76 -53 -76q-23 0 -42.5 12.5t-19.5 34.5q0 89 29 199.5l58 221t29 184t-51.5 307t-75.5 267.5v22q-19 19 -19 45z" />
<glyph unicode="y" horiz-adv-x="513" d="M30 1288v11l46 34q63 -1 150 -317q38 -138 38 -139q8 23 32 153q61 332 128 332q19 0 34.5 -12t15.5 -31q0 -102 -58.5 -296.5t-60.5 -296.5v-617q0 -137 -67 -137q-37 0 -57 45q23 45 23 347q0 55 -11 156t-13 144v53q-4 9 -64 162q-136 343 -136 409z" />
<glyph unicode="z" horiz-adv-x="493" d="M41 57q0 183 138 638t165 561l-167 -12q-22 0 -37.5 17.5t-15.5 39.5q0 58 225 58q101 0 101 -57q0 -72 -44.5 -195.5t-52.5 -173.5q-26 -163 -107 -475t-89 -353h35l86 6v1q83 0 83 -50q0 -25 -22 -37.5t-49 -12.5l-121 6q-13 0 -36 -11t-40.5 -11t-34.5 13.5t-17 47.5z " />
<glyph unicode="{" horiz-adv-x="649" d="M101 766q0 48 49 50q20 2 40 6q50 11 50 94l-10 214q0 74 13 96q-5 30 -5 54q0 94 53 154.5t152 60.5q65 0 104 -19.5t39 -41t-17.5 -33.5t-39.5 -12l-101 19q-98 0 -98 -251l8 -210q0 -132 -36 -179q34 -42 34 -146v-440q0 -143 92 -143l121 23q8 0 12.5 -17.5t4.5 -35 t-24 -33.5q-38 -24 -99 -24q-116 0 -159.5 62.5t-43.5 183.5v423q0 86 -50 96q-20 5 -40 5q-49 1 -49 44z" />
<glyph unicode="|" horiz-adv-x="467" d="M129 1510q0 74 71 74q18 0 30 -16t12 -35l4 -1154v-408q0 -21 -15.5 -36t-36.5 -15q-51 0 -51 194z" />
<glyph unicode="}" horiz-adv-x="649" d="M101 12.5q0 21.5 17.5 33.5t39.5 12l101 -19q98 0 98 250l-10 245q0 147 38 195q-37 47 -37 146l10 252q0 281 -99 281l-121 -23q-8 0 -12.5 17.5t-4.5 35.5q0 16 24 32q38 24 99 25q114 0 157.5 -63t44.5 -183l1 -373q0 -86 46 -96q19 -4 37 -6q46 -2 46 -43 q0 -48 -46 -50q-20 -1 -38 -5q-46 -10 -45 -95l8 -251q0 -91 -11 -109q4 -25 4 -55q0 -94 -52.5 -154t-151.5 -60q-65 0 -104 19.5t-39 41z" />
<glyph unicode="~" horiz-adv-x="675" d="M9 1115q0 39 40 74t99.5 35t185.5 -41.5t156 -41.5t40.5 13t13.5 28t14 28t37.5 13t43.5 -16t17 -37q0 -53 -39.5 -92.5t-92.5 -39.5q-190 0 -271 42q-85 44 -117 45q-29 -11 -24 -39t-29 -40q-31 0 -52.5 15t-21.5 54z" />
<glyph unicode="&#xa1;" horiz-adv-x="286" d="M41 -190q0 164 21.5 490t21.5 489l-2 97q0 140 38 140q21 0 38.5 -50t17.5 -126l-8 -339l10 -672q0 -32 -27 -55.5t-54 -23.5t-41.5 14.5t-14.5 35.5zM56 1306q0 72 101 72q23 0 45.5 -21.5t22.5 -57t-25 -64t-62 -28.5t-59.5 29t-22.5 70z" />
<glyph unicode="&#xa2;" horiz-adv-x="613" />
<glyph unicode="&#xa3;" horiz-adv-x="712" />
<glyph unicode="&#xa5;" horiz-adv-x="876" />
<glyph unicode="&#xa6;" horiz-adv-x="325" d="M104 1510q0 74 71 74q45 0 45 -191l-2 -108l-3 -408q0 -21 -15.5 -36t-36.5 -15q-51 0 -51 194zM114 339l1 305q0 19 12 35t30 16q61 0 61 -74l2 -637q0 -64 -51 -64q-21 0 -36.5 15t-15.5 36z" />
<glyph unicode="&#xa7;" horiz-adv-x="520" />
<glyph unicode="&#xa8;" horiz-adv-x="631" />
<glyph unicode="&#xa9;" horiz-adv-x="1207" />
<glyph unicode="&#xad;" horiz-adv-x="646" d="M102 715q0 25 48 43q50 18 120 26q123 14 206 14q26 0 47 -16.5t21 -42t-48 -43.5q-49 -18 -120 -26q-128 -14 -207 -14q-26 0 -46.5 17t-20.5 42z" />
<glyph unicode="&#xae;" horiz-adv-x="1216" />
<glyph unicode="&#xaf;" horiz-adv-x="651" d="M104 756q0 44 90 44l144 4q208 0 208 -55q0 -45 -66 -45l-148 -4q-228 0 -228 56z" />
<glyph unicode="&#xb0;" horiz-adv-x="728" d="M101 732q0 103 64 170.5t168 67.5q187 0 259 -116q36 -57 35.5 -103.5t-7 -80.5t-26.5 -76t-50 -76q-72 -80 -210 -80q-68 0 -116.5 29t-72.5 76q-44 86 -44 189zM178 665q0 -48 50.5 -99t108 -51t98 16.5t63 41t36.5 55.5q24 52 24.5 90t-9.5 65t-32 55t-67.5 45.5 t-106.5 17.5t-100 -38q-65 -63 -65 -198z" />
<glyph unicode="&#xb7;" horiz-adv-x="295" d="M74 707.5q0 29.5 23 53.5t53 24t52 -24t22 -55.5t-23 -52t-54.5 -20.5t-52 22.5t-20.5 52z" />
<glyph unicode="&#xbf;" horiz-adv-x="480" d="M85 110.5q0 99.5 20 204.5q18 105 42 184q62 210 63 501q0 99 -1 137q36 0 41.5 3t9.5 3q38 0 50 -46q0 -226 -57.5 -515t-57.5 -476t61 -187q39 0 39 91q0 16 -14 111q0 9 25 25.5t36 16.5q58 -1 58 -133q0 -72 -11 -111.5t-44 -69.5t-82 -30t-82.5 18.5t-51.5 44.5 t-28 68q-16 61 -16 160.5zM177 1296q0 78 83 78q29 0 50.5 -23.5t21.5 -52.5t-25 -54.5t-53.5 -25.5t-52.5 26.5t-24 51.5z" />
<glyph unicode="&#xc0;" d="M34 64q28 40 91 409t103.5 577.5t87.5 350.5t90 142t66 -18q0 -73 40 -395t40 -416.5t21.5 -314t21.5 -329.5q0 -69 -68 -69q-63 0 -63 53v267q-29 20 -104.5 34t-134.5 18q-21 -36 -34.5 -104t-28 -137t-38.5 -109q-80 0 -90 41zM238 464q85 -23 142.5 -23t81.5 6 q-3 41 -21 222.5t-32.5 346t-14.5 199t1 39.5q-32 -33 -92.5 -367t-64.5 -423z" />
<glyph unicode="&#xc1;" d="M34 64q28 40 91 409t103.5 577.5t87.5 350.5t90 142t66 -18q0 -73 40 -395t40 -416.5t21.5 -314t21.5 -329.5q0 -69 -68 -69q-63 0 -63 53v267q-29 20 -104.5 34t-134.5 18q-21 -36 -34.5 -104t-28 -137t-38.5 -109q-80 0 -90 41zM238 464q85 -23 142.5 -23t81.5 6 q-3 41 -21 222.5t-32.5 346t-14.5 199t1 39.5q-32 -33 -92.5 -367t-64.5 -423z" />
<glyph unicode="&#xc2;" d="M34 64q28 40 91 409t103.5 577.5t87.5 350.5t90 142t66 -18q0 -73 40 -395t40 -416.5t21.5 -314t21.5 -329.5q0 -69 -68 -69q-63 0 -63 53v267q-29 20 -104.5 34t-134.5 18q-21 -36 -34.5 -104t-28 -137t-38.5 -109q-80 0 -90 41zM238 464q85 -23 142.5 -23t81.5 6 q-3 41 -21 222.5t-32.5 346t-14.5 199t1 39.5q-32 -33 -92.5 -367t-64.5 -423zM270 1760.5q0 31.5 33 123t81.5 173.5t83.5 82t83.5 -157t48.5 -238q0 -24 -18.5 -40.5t-41.5 -16.5q-55 1 -77 189q-10 86 -13 97q0 -6 -15.5 -48.5t-27 -74.5t-23 -58t-24 -50t-24.5 -37.5 t-25.5 -13.5t-27 19t-13.5 50.5z" />
<glyph unicode="&#xc3;" d="M34 64q28 40 91 409t103.5 577.5t87.5 350.5t90 142t66 -18q0 -73 40 -395t40 -416.5t21.5 -314t21.5 -329.5q0 -69 -68 -69q-63 0 -63 53v267q-29 20 -104.5 34t-134.5 18q-21 -36 -34.5 -104t-28 -137t-38.5 -109q-80 0 -90 41zM174 1764q0 39 40 74t108 35 q25 0 89 -41.5t84 -41.5t30.5 13t13.5 28t14 28t37.5 13t43.5 -16t17 -37q0 -53 -39.5 -92.5t-93 -39.5t-89.5 14q-34 14 -48 30q-36 44 -80 43q-29 -11 -24 -39t-29 -40q-31 0 -52.5 15t-21.5 54zM238 464q85 -23 142.5 -23t81.5 6q-3 41 -21 222.5t-32.5 346t-14.5 199 t1 39.5q-32 -33 -92.5 -367t-64.5 -423z" />
<glyph unicode="&#xc4;" d="M34 64q28 40 91 409t103.5 577.5t87.5 350.5t90 142t66 -18q0 -73 40 -395t40 -416.5t21.5 -314t21.5 -329.5q0 -69 -68 -69q-63 0 -63 53v267q-29 20 -104.5 34t-134.5 18q-21 -36 -34.5 -104t-28 -137t-38.5 -109q-80 0 -90 41zM238 464q85 -23 142.5 -23t81.5 6 q-3 41 -21 222.5t-32.5 346t-14.5 199t1 39.5q-32 -33 -92.5 -367t-64.5 -423z" />
<glyph unicode="&#xc5;" d="M34 64q28 40 91 409t103.5 577.5t87.5 350.5t90 142t66 -18q0 -73 40 -395t40 -416.5t21.5 -314t21.5 -329.5q0 -69 -68 -69q-63 0 -63 53v267q-29 20 -104.5 34t-134.5 18q-21 -36 -34.5 -104t-28 -137t-38.5 -109q-80 0 -90 41zM181 1870.5q0 93.5 63.5 161t168.5 67.5 q97 0 144 -23t70.5 -42.5t37.5 -40.5q14 -22 24 -46q18 -43 18 -78.5t-7 -69.5t-27 -76q-19 -42 -50 -76q-74 -80 -210 -80q-150 0 -205 141q-27 69 -27 162.5zM238 464q85 -23 142.5 -23t81.5 6q-3 41 -21 222.5t-32.5 346t-14.5 199t1 39.5q-32 -33 -92.5 -367t-64.5 -423 zM257 1794q0 -48 50.5 -99t104 -51t89 11.5t58.5 30.5t40 41q16 22 24 48q16 51 16 77.5t-6 48t-21 45.5t-38 42t-62.5 30t-87.5 12t-82 -21q-33 -21 -51 -57q-34 -69 -34 -158z" />
<glyph unicode="&#xc7;" horiz-adv-x="649" d="M51 792l2 245q0 117 14 189q-6 33 -6 64q0 126 94 200.5t232 74.5q49 0 96 -27.5t47 -72.5q0 -22 -17 -34t-57.5 -12t-55.5 25v-1h-28v5q-119 0 -162 -74q-40 -68 -40 -234l6 -141l-18 -143v-49q0 -238 10.5 -315t21.5 -138t28.5 -104t41.5 -81q48 -76 133 -76 q35 0 87 36.5t79 36.5t58 -31q0 -103 -117 -147q-58 -21 -126 -21t-116 27.5t-80 71t-56 111.5t-38 135q-12 68 -20 156q-12 148 -13 324z" />
<glyph unicode="&#xc8;" horiz-adv-x="457" d="M62 1454v7q34 56 51 72l152 18q31 0 62.5 -18.5t31.5 -48.5q0 -61 -93 -61l-59 2q-15 0 -22 -1l16 -338q0 -41 -5 -119.5t-5 -114.5q11 2 30 7q42 11 65.5 11t42 -17t18.5 -41t-15 -43t-39 -19l-51 2q-30 0 -42 -15v-632q105 6 114 6q117 0 117 -54v-7q-14 -28 -48 -43 t-60 -17t-67 -2h-64q-76 0 -94 30q-8 14 -8 37v1190q0 35 -14 104t-14 105z" />
<glyph unicode="&#xc9;" horiz-adv-x="457" d="M62 1454v7q34 56 51 72l152 18q31 0 62.5 -18.5t31.5 -48.5q0 -61 -93 -61l-59 2q-15 0 -22 -1l16 -338q0 -41 -5 -119.5t-5 -114.5q11 2 30 7q42 11 65.5 11t42 -17t18.5 -41t-15 -43t-39 -19l-51 2q-30 0 -42 -15v-632q105 6 114 6q117 0 117 -54v-7q-14 -28 -48 -43 t-60 -17t-67 -2h-64q-76 0 -94 30q-8 14 -8 37v1190q0 35 -14 104t-14 105z" />
<glyph unicode="&#xca;" horiz-adv-x="457" d="M14 1760.5q0 31.5 33 123t81.5 173.5t83.5 82t83.5 -157t48.5 -238q0 -24 -18.5 -40.5t-41.5 -16.5q-55 1 -77 189q-10 86 -13 97q0 -6 -15.5 -48.5t-27 -74.5t-23 -58t-24 -50t-24.5 -37.5t-25.5 -13.5t-27 19t-13.5 50.5zM62 1454v7q34 56 51 72l152 18 q31 0 62.5 -18.5t31.5 -48.5q0 -61 -93 -61l-59 2q-15 0 -22 -1l16 -338q0 -41 -5 -119.5t-5 -114.5q11 2 30 7q42 11 65.5 11t42 -17t18.5 -41t-15 -43t-39 -19l-51 2q-30 0 -42 -15v-632q105 6 114 6q117 0 117 -54v-7q-14 -28 -48 -43t-60 -17t-67 -2h-64q-76 0 -94 30 q-8 14 -8 37v1190q0 35 -14 104t-14 105z" />
<glyph unicode="&#xcb;" horiz-adv-x="457" d="M62 1454v7q34 56 51 72l152 18q31 0 62.5 -18.5t31.5 -48.5q0 -61 -93 -61l-59 2q-15 0 -22 -1l16 -338q0 -41 -5 -119.5t-5 -114.5q11 2 30 7q42 11 65.5 11t42 -17t18.5 -41t-15 -43t-39 -19l-51 2q-30 0 -42 -15v-632q105 6 114 6q117 0 117 -54v-7q-14 -28 -48 -43 t-60 -17t-67 -2h-64q-76 0 -94 30q-8 14 -8 37v1190q0 35 -14 104t-14 105z" />
<glyph unicode="&#xcc;" horiz-adv-x="432" d="M36 64q0 49 62 49l43 -3q30 0 30 48q0 158 -19 473.5t-19 473.5l4 209q0 66 -5 114q-27 -9 -48 -9q-48 0 -48 49q0 25 31 43.5t77 26.5q86 15 127.5 15t59.5 -16.5t18 -39t-13.5 -39t-34.5 -16.5l-36 1q-20 0 -29.5 -8.5t-9.5 -33.5q0 -200 25 -599t25 -599v-79 q21 3 42 3q85 0 85 -72v-12l-51 -35l-139 -5q-177 0 -177 61z" />
<glyph unicode="&#xcd;" horiz-adv-x="432" d="M36 64q0 49 62 49l43 -3q30 0 30 48q0 158 -19 473.5t-19 473.5l4 209q0 66 -5 114q-27 -9 -48 -9q-48 0 -48 49q0 25 31 43.5t77 26.5q86 15 127.5 15t59.5 -16.5t18 -39t-13.5 -39t-34.5 -16.5l-36 1q-20 0 -29.5 -8.5t-9.5 -33.5q0 -200 25 -599t25 -599v-79 q21 3 42 3q85 0 85 -72v-12l-51 -35l-139 -5q-177 0 -177 61z" />
<glyph unicode="&#xce;" horiz-adv-x="432" d="M-19 1760.5q0 31.5 33 123t81.5 173.5t83.5 82t83.5 -157t48.5 -238q0 -24 -18.5 -40.5t-41.5 -16.5q-55 1 -77 189q-10 86 -13 97q0 -6 -15.5 -48.5t-27 -74.5t-23 -58t-24 -50t-24.5 -37.5t-25.5 -13.5t-27 19t-13.5 50.5zM36 64q0 49 62 49l43 -3q30 0 30 48 q0 158 -19 473.5t-19 473.5l4 209q0 66 -5 114q-27 -9 -48 -9q-48 0 -48 49q0 25 31 43.5t77 26.5q86 15 127.5 15t59.5 -16.5t18 -39t-13.5 -39t-34.5 -16.5l-36 1q-20 0 -29.5 -8.5t-9.5 -33.5q0 -200 25 -599t25 -599v-79q21 3 42 3q85 0 85 -72v-12l-51 -35l-139 -5 q-177 0 -177 61z" />
<glyph unicode="&#xcf;" horiz-adv-x="432" d="M36 64q0 49 62 49l43 -3q30 0 30 48q0 158 -19 473.5t-19 473.5l4 209q0 66 -5 114q-27 -9 -48 -9q-48 0 -48 49q0 25 31 43.5t77 26.5q86 15 127.5 15t59.5 -16.5t18 -39t-13.5 -39t-34.5 -16.5l-36 1q-20 0 -29.5 -8.5t-9.5 -33.5q0 -200 25 -599t25 -599v-79 q21 3 42 3q85 0 85 -72v-12l-51 -35l-139 -5q-177 0 -177 61z" />
<glyph unicode="&#xd1;" horiz-adv-x="737" d="M67 812v261l14 376v13q0 102 45 102q41 0 110 -190q126 -345 302 -1139l2 -10l8 714v606q12 51 67 51t55 -80v-12q-12 -25 -12 -60l-13 -757v-626q0 -31 -17 -61t-42 -30q-43 0 -168 421.5t-247 906.5v-672q0 -98 14.5 -292t14.5 -292q0 -19 -23 -31.5t-58.5 -12.5 t-35.5 32l10 147q0 106 -13 344t-13 291zM88 1775q0 39 40 74t108 35q25 0 89 -41.5t84 -41.5t30.5 13t13.5 28t14 28t37.5 13t43.5 -16t17 -37q0 -53 -39.5 -92.5t-93 -39.5t-89.5 14q-34 14 -48 30q-36 44 -80 43q-29 -11 -24 -39t-29 -40q-31 0 -52.5 15t-21.5 54z" />
<glyph unicode="&#xd2;" horiz-adv-x="650" d="M54 974v46.5v54.5q1 59 3.5 106t9 101.5t16.5 96t27 81.5q18 41 40 67q50 58 115 58t111 -23.5t77.5 -75.5t55 -101t37 -136.5t21.5 -141.5q8 -55 11 -157q4 -137 4 -214v-118l-18 -259v-9q-13 -57 -13 -123t-23 -127.5t-70 -109t-103 -47.5t-102 38t-76 97.5t-53 142 t-35.5 161t-20.5 165.5q-12 133 -11.5 206.5t-0.5 126t-2 94.5zM149 852q0 -137 21 -295.5t43.5 -259.5t60.5 -171.5t85 -70.5q41 0 69 77q28 78 40 192q20 204 20.5 286.5t0 120.5t-3 110.5t-8.5 136t-15.5 140.5t-25 137t-36 112.5t-51 81t-60.5 28.5t-49.5 -21t-33 -59.5 t-24 -82.5t-16 -101.5t-9.5 -104.5q-3 -46 -5 -102q-2 -93 -3 -145v-9z" />
<glyph unicode="&#xd3;" horiz-adv-x="650" d="M54 974v46.5v54.5q1 59 3.5 106t9 101.5t16.5 96t27 81.5q18 41 40 67q50 58 115 58t111 -23.5t77.5 -75.5t55 -101t37 -136.5t21.5 -141.5q8 -55 11 -157q4 -137 4 -214v-118l-18 -259v-9q-13 -57 -13 -123t-23 -127.5t-70 -109t-103 -47.5t-102 38t-76 97.5t-53 142 t-35.5 161t-20.5 165.5q-12 133 -11.5 206.5t-0.5 126t-2 94.5zM149 852q0 -137 21 -295.5t43.5 -259.5t60.5 -171.5t85 -70.5q41 0 69 77q28 78 40 192q20 204 20.5 286.5t0 120.5t-3 110.5t-8.5 136t-15.5 140.5t-25 137t-36 112.5t-51 81t-60.5 28.5t-49.5 -21t-33 -59.5 t-24 -82.5t-16 -101.5t-9.5 -104.5q-3 -46 -5 -102q-2 -93 -3 -145v-9z" />
<glyph unicode="&#xd4;" horiz-adv-x="650" d="M54 974v46.5v54.5q1 59 3.5 106t9 101.5t16.5 96t27 81.5q18 41 40 67q50 58 115 58t111 -23.5t77.5 -75.5t55 -101t37 -136.5t21.5 -141.5q8 -55 11 -157q4 -137 4 -214v-118l-18 -259v-9q-13 -57 -13 -123t-23 -127.5t-70 -109t-103 -47.5t-102 38t-76 97.5t-53 142 t-35.5 161t-20.5 165.5q-12 133 -11.5 206.5t-0.5 126t-2 94.5zM104 1760.5q0 31.5 33 123t81.5 173.5t83.5 82t83.5 -157t48.5 -238q0 -24 -18.5 -40.5t-41.5 -16.5q-55 1 -77 189q-10 86 -13 97q0 -6 -15.5 -48.5t-27 -74.5t-23 -58t-24 -50t-24.5 -37.5t-25.5 -13.5 t-27 19t-13.5 50.5zM149 852q0 -137 21 -295.5t43.5 -259.5t60.5 -171.5t85 -70.5q41 0 69 77q28 78 40 192q20 204 20.5 286.5t0 120.5t-3 110.5t-8.5 136t-15.5 140.5t-25 137t-36 112.5t-51 81t-60.5 28.5t-49.5 -21t-33 -59.5t-24 -82.5t-16 -101.5t-9.5 -104.5 q-3 -46 -5 -102q-2 -93 -3 -145v-9z" />
<glyph unicode="&#xd5;" horiz-adv-x="650" d="M29 1764q0 39 40 74t108 35q25 0 89 -41.5t84 -41.5t30.5 13t13.5 28t14 28t37.5 13t43.5 -16t17 -37q0 -53 -39.5 -92.5t-93 -39.5t-89.5 14q-34 14 -48 30q-36 44 -80 43q-29 -11 -24 -39t-29 -40q-31 0 -52.5 15t-21.5 54zM54 974v46.5v54.5q1 59 3.5 106t9 101.5 t16.5 96t27 81.5q18 41 40 67q50 58 115 58t111 -23.5t77.5 -75.5t55 -101t37 -136.5t21.5 -141.5q8 -55 11 -157q4 -137 4 -214v-118l-18 -259v-9q-13 -57 -13 -123t-23 -127.5t-70 -109t-103 -47.5t-102 38t-76 97.5t-53 142t-35.5 161t-20.5 165.5q-12 133 -11.5 206.5 t-0.5 126t-2 94.5zM149 852q0 -137 21 -295.5t43.5 -259.5t60.5 -171.5t85 -70.5q41 0 69 77q28 78 40 192q20 204 20.5 286.5t0 120.5t-3 110.5t-8.5 136t-15.5 140.5t-25 137t-36 112.5t-51 81t-60.5 28.5t-49.5 -21t-33 -59.5t-24 -82.5t-16 -101.5t-9.5 -104.5 q-3 -46 -5 -102q-2 -93 -3 -145v-9z" />
<glyph unicode="&#xd6;" horiz-adv-x="650" d="M54 974v46.5v54.5q1 59 3.5 106t9 101.5t16.5 96t27 81.5q18 41 40 67q50 58 115 58t111 -23.5t77.5 -75.5t55 -101t37 -136.5t21.5 -141.5q8 -55 11 -157q4 -137 4 -214v-118l-18 -259v-9q-13 -57 -13 -123t-23 -127.5t-70 -109t-103 -47.5t-102 38t-76 97.5t-53 142 t-35.5 161t-20.5 165.5q-12 133 -11.5 206.5t-0.5 126t-2 94.5zM149 852q0 -137 21 -295.5t43.5 -259.5t60.5 -171.5t85 -70.5q41 0 69 77q28 78 40 192q20 204 20.5 286.5t0 120.5t-3 110.5t-8.5 136t-15.5 140.5t-25 137t-36 112.5t-51 81t-60.5 28.5t-49.5 -21t-33 -59.5 t-24 -82.5t-16 -101.5t-9.5 -104.5q-3 -46 -5 -102q-2 -93 -3 -145v-9z" />
<glyph unicode="&#xd7;" horiz-adv-x="684" d="M88 823q0 23 18.5 40t36 17t55.5 -32t85 -76.5t54 -50.5q28 14 62 60q63 85 111 85q21 0 37.5 -17t16.5 -38.5t-22 -44.5q-21 -24 -47 -40q-69 -44 -69 -83q0 -35 79.5 -82.5t79.5 -82t-22.5 -57t-50.5 -22.5l-33 13q-8 8 -43 46q-92 101 -103 104q-11 -1 -35 -34 q-73 -98 -117 -98q-23 0 -42.5 19t-19.5 38.5t27 47.5t62 58.5t45 44.5q-5 5 -58 47q-107 85 -107 138z" />
<glyph unicode="&#xd8;" horiz-adv-x="728" d="M100 1039q0 208 17.5 287.5t34 122.5t38.5 72q50 64 125.5 64t129.5 -40l45 254h79l-64 -318q124 -181 124 -747l-1 -116l-18 -259v-9q-13 -57 -13 -123t-23 -127.5t-70 -109t-99 -47.5t-87 26t-68 78l-72 -327l-45 56l62 367q-53 138 -72.5 324t-19.5 332zM195 852 q0 -204 45 -456l182 1019q-40 62 -93 62q-49 -1 -77 -81q-31 -88 -38 -164.5t-11 -123.5q-3 -46 -5 -102q-2 -93 -3 -145v-9zM276 239q53 -184 129 -184q41 0 69 77q28 78 40 192q20 204 21 329q0 427 -64 646z" />
<glyph unicode="&#xd9;" horiz-adv-x="699" d="M39 1477q0 25 17.5 44t41.5 19q74 0 74 -146l19 -712q12 -27 20.5 -109t8.5 -127.5t14.5 -112t40 -134.5t69 -116t82.5 -48t58 18.5t26 52.5q11 54 11 113v400q0 65 -13 193t-13 193v14l-4 119l-15 351q0 25 25 40.5t52 15.5l50 -48v-34l-15 -125q0 -171 18.5 -515 t18.5 -465.5t-3.5 -162t-15.5 -86.5t-33 -76q-49 -70 -150 -70q-125 -1 -201 109q-80 116 -112 278q-38 191 -46 335q-12 217 -12 430l2 320q-15 17 -15 42z" />
<glyph unicode="&#xda;" horiz-adv-x="699" d="M39 1477q0 25 17.5 44t41.5 19q74 0 74 -146l19 -712q12 -27 20.5 -109t8.5 -127.5t14.5 -112t40 -134.5t69 -116t82.5 -48t58 18.5t26 52.5q11 54 11 113v400q0 65 -13 193t-13 193v14l-4 119l-15 351q0 25 25 40.5t52 15.5l50 -48v-34l-15 -125q0 -171 18.5 -515 t18.5 -465.5t-3.5 -162t-15.5 -86.5t-33 -76q-49 -70 -150 -70q-125 -1 -201 109q-80 116 -112 278q-38 191 -46 335q-12 217 -12 430l2 320q-15 17 -15 42z" />
<glyph unicode="&#xdb;" horiz-adv-x="699" d="M39 1477q0 25 17.5 44t41.5 19q74 0 74 -146l19 -712q12 -27 20.5 -109t8.5 -127.5t14.5 -112t40 -134.5t69 -116t82.5 -48t58 18.5t26 52.5q11 54 11 113v400q0 65 -13 193t-13 193v14l-4 119l-15 351q0 25 25 40.5t52 15.5l50 -48v-34l-15 -125q0 -171 18.5 -515 t18.5 -465.5t-3.5 -162t-15.5 -86.5t-33 -76q-49 -70 -150 -70q-125 -1 -201 109q-80 116 -112 278q-38 191 -46 335q-12 217 -12 430l2 320q-15 17 -15 42zM142 1760.5q0 31.5 33 123t81.5 173.5t83.5 82t83.5 -157t48.5 -238q0 -24 -18.5 -40.5t-41.5 -16.5q-55 1 -77 189 q-10 86 -13 97q0 -6 -15.5 -48.5t-27 -74.5t-23 -58t-24 -50t-24.5 -37.5t-25.5 -13.5t-27 19t-13.5 50.5z" />
<glyph unicode="&#xdc;" horiz-adv-x="699" d="M39 1477q0 25 17.5 44t41.5 19q74 0 74 -146l19 -712q12 -27 20.5 -109t8.5 -127.5t14.5 -112t40 -134.5t69 -116t82.5 -48t58 18.5t26 52.5q11 54 11 113v400q0 65 -13 193t-13 193v14l-4 119l-15 351q0 25 25 40.5t52 15.5l50 -48v-34l-15 -125q0 -171 18.5 -515 t18.5 -465.5t-3.5 -162t-15.5 -86.5t-33 -76q-49 -70 -150 -70q-125 -1 -201 109q-80 116 -112 278q-38 191 -46 335q-12 217 -12 430l2 320q-15 17 -15 42z" />
<glyph unicode="&#xdd;" horiz-adv-x="453" d="M25 1513q0 15 17.5 25.5t36.5 10.5t40.5 -47t39.5 -120t33.5 -146t28.5 -141.5t19 -88.5q4 18 9.5 85.5t12.5 138.5q8 72 20 144q27 165 81.5 165t54.5 -22q0 -115 -49 -343t-49 -346l-6 -71v-31l11 -543l7 -102v-46q0 -27 -20.5 -43.5t-44.5 -16.5t-39.5 14.5 t-15.5 35.5l10 396q0 60 -19.5 177.5t-19.5 189t-24.5 174t-54.5 184.5q-79 215 -79 367z" />
<glyph unicode="&#xe0;" horiz-adv-x="621" d="M42 44l5 18q138 533 205 1038q2 14 6 82q10 150 38 191h69q28 0 49 -13t21 -39q0 -156 41.5 -463t41.5 -442l22 -126q0 -25 19.5 -122t19.5 -127v-2q0 -45 -34 -58q-43 0 -67 14t-24 54q0 87 -30 253l-202 30q-19 -68 -29 -149t-19 -118q-18 -76 -67 -76 q-24 0 -44.5 15.5t-20.5 39.5zM230 408q35 -23 181 -33q-6 30 -6 104.5t-8.5 185t-24.5 257t-22 212.5q-93 -515 -120 -726z" />
<glyph unicode="&#xe1;" horiz-adv-x="621" d="M42 44l5 18q138 533 205 1038q2 14 6 82q10 150 38 191h69q28 0 49 -13t21 -39q0 -156 41.5 -463t41.5 -442l22 -126q0 -25 19.5 -122t19.5 -127v-2q0 -45 -34 -58q-43 0 -67 14t-24 54q0 87 -30 253l-202 30q-19 -68 -29 -149t-19 -118q-18 -76 -67 -76 q-24 0 -44.5 15.5t-20.5 39.5zM230 408q35 -23 181 -33q-6 30 -6 104.5t-8.5 185t-24.5 257t-22 212.5q-93 -515 -120 -726z" />
<glyph unicode="&#xe2;" horiz-adv-x="621" d="M42 44l5 18q138 533 205 1038q2 14 6 82q10 150 38 191h69q28 0 49 -13t21 -39q0 -156 41.5 -463t41.5 -442l22 -126q0 -25 19.5 -122t19.5 -127v-2q0 -45 -34 -58q-43 0 -67 14t-24 54q0 87 -30 253l-202 30q-19 -68 -29 -149t-19 -118q-18 -76 -67 -76 q-24 0 -44.5 15.5t-20.5 39.5zM208 1553.5q0 31.5 33 123t81.5 173.5t83.5 82t83.5 -157t48.5 -238q0 -24 -18.5 -40.5t-41.5 -16.5q-55 1 -77 189q-10 86 -13 97q0 -6 -15.5 -48.5t-27 -74.5t-23 -58t-24 -50t-24.5 -37.5t-25.5 -13.5t-27 19t-13.5 50.5zM230 408 q35 -23 181 -33q-6 30 -6 104.5t-8.5 185t-24.5 257t-22 212.5q-93 -515 -120 -726z" />
<glyph unicode="&#xe3;" horiz-adv-x="621" d="M42 44l5 18q138 533 205 1038q2 14 6 82q10 150 38 191h69q28 0 49 -13t21 -39q0 -156 41.5 -463t41.5 -442l22 -126q0 -25 19.5 -122t19.5 -127v-2q0 -45 -34 -58q-43 0 -67 14t-24 54q0 87 -30 253l-202 30q-19 -68 -29 -149t-19 -118q-18 -76 -67 -76 q-24 0 -44.5 15.5t-20.5 39.5zM118 1557q0 39 40 74t108 35q25 0 89 -41.5t84 -41.5t30.5 13t13.5 28t14 28t37.5 13t43.5 -16t17 -37q0 -53 -39.5 -92.5t-93 -39.5t-89.5 14q-34 14 -48 30q-36 44 -80 43q-29 -11 -24 -39t-29 -40q-31 0 -52.5 15t-21.5 54zM230 408 q35 -23 181 -33q-6 30 -6 104.5t-8.5 185t-24.5 257t-22 212.5q-93 -515 -120 -726z" />
<glyph unicode="&#xe4;" horiz-adv-x="621" d="M42 44l5 18q138 533 205 1038q2 14 6 82q10 150 38 191h69q28 0 49 -13t21 -39q0 -156 41.5 -463t41.5 -442l22 -126q0 -25 19.5 -122t19.5 -127v-2q0 -45 -34 -58q-43 0 -67 14t-24 54q0 87 -30 253l-202 30q-19 -68 -29 -149t-19 -118q-18 -76 -67 -76 q-24 0 -44.5 15.5t-20.5 39.5zM230 408q35 -23 181 -33q-6 30 -6 104.5t-8.5 185t-24.5 257t-22 212.5q-93 -515 -120 -726z" />
<glyph unicode="&#xe5;" horiz-adv-x="621" d="M42 44l5 18q138 533 205 1038q2 14 6 82q10 150 38 191h69q28 0 49 -13t21 -39q0 -156 41.5 -463t41.5 -442l22 -126q0 -25 19.5 -122t19.5 -127v-2q0 -45 -34 -58q-43 0 -67 14t-24 54q0 87 -30 253l-202 30q-19 -68 -29 -149t-19 -118q-18 -76 -67 -76 q-24 0 -44.5 15.5t-20.5 39.5zM120 1783.5q0 93.5 63.5 161t168.5 67.5q97 0 144 -23t70.5 -42.5t37.5 -40.5q14 -22 24 -46q18 -43 18 -78.5t-7 -69.5t-27 -76q-19 -42 -50 -76q-74 -80 -210 -80q-150 0 -205 141q-27 69 -27 162.5zM196 1707q0 -48 50.5 -99t104 -51 t89 11.5t58.5 30.5t40 41q16 22 24 48q16 51 16 77.5t-6 48t-21 45.5t-38 42t-62.5 30t-87.5 12t-82 -21q-33 -21 -51 -57q-34 -69 -34 -158zM230 408q35 -23 181 -33q-6 30 -6 104.5t-8.5 185t-24.5 257t-22 212.5q-93 -515 -120 -726z" />
<glyph unicode="&#xe7;" horiz-adv-x="505" d="M46 615v49q0 302 30 420q36 146 100 202q87 78 220 78q32 0 47.5 -15t15.5 -36t-12.5 -37.5t-31.5 -17.5h-96q-42 0 -73 -54q-30 -54 -44 -132q-26 -148 -25 -245v-10l-9 -395q0 -125 13.5 -173t28 -77.5t34.5 -48.5q46 -44 118 -44q24 0 44 18q24 0 43 -11t19 -34 q0 -81 -113 -81q-46 0 -96.5 13.5t-75.5 29.5q-136 88 -136 481z" />
<glyph unicode="&#xe8;" horiz-adv-x="455" d="M72 436l14 598l-11 173q0 145 86 145q55 0 150 -25.5t95 -65.5q0 -42 -60 -64q-95 32 -155 39q3 -44 3 -88l-9 -294q0 -2 6 -32l73 3q99 0 99 -56q0 -22 -18 -38.5t-45.5 -16.5t-59.5 4h-52q6 -78 6 -155l-9 -371q0 -115 4 -115l151 5q78 0 78 -50q0 -31 -27 -45t-61 -14 h-173q-27 0 -49 18.5t-23 44.5v54z" />
<glyph unicode="&#xe9;" horiz-adv-x="455" d="M72 436l14 598l-11 173q0 145 86 145q55 0 150 -25.5t95 -65.5q0 -42 -60 -64q-95 32 -155 39q3 -44 3 -88l-9 -294q0 -2 6 -32l73 3q99 0 99 -56q0 -22 -18 -38.5t-45.5 -16.5t-59.5 4h-52q6 -78 6 -155l-9 -371q0 -115 4 -115l151 5q78 0 78 -50q0 -31 -27 -45t-61 -14 h-173q-27 0 -49 18.5t-23 44.5v54z" />
<glyph unicode="&#xea;" horiz-adv-x="455" d="M38 1553.5q0 31.5 33 123t81.5 173.5t83.5 82t83.5 -157t48.5 -238q0 -24 -18.5 -40.5t-41.5 -16.5q-55 1 -77 189q-10 86 -13 97q0 -6 -15.5 -48.5t-27 -74.5t-23 -58t-24 -50t-24.5 -37.5t-25.5 -13.5t-27 19t-13.5 50.5zM72 436l14 598l-11 173q0 145 86 145 q55 0 150 -25.5t95 -65.5q0 -42 -60 -64q-95 32 -155 39q3 -44 3 -88l-9 -294q0 -2 6 -32l73 3q99 0 99 -56q0 -22 -18 -38.5t-45.5 -16.5t-59.5 4h-52q6 -78 6 -155l-9 -371q0 -115 4 -115l151 5q78 0 78 -50q0 -31 -27 -45t-61 -14h-173q-27 0 -49 18.5t-23 44.5v54z" />
<glyph unicode="&#xeb;" horiz-adv-x="455" d="M72 436l14 598l-11 173q0 145 86 145q55 0 150 -25.5t95 -65.5q0 -42 -60 -64q-95 32 -155 39q3 -44 3 -88l-9 -294q0 -2 6 -32l73 3q99 0 99 -56q0 -22 -18 -38.5t-45.5 -16.5t-59.5 4h-52q6 -78 6 -155l-9 -371q0 -115 4 -115l151 5q78 0 78 -50q0 -31 -27 -45t-61 -14 h-173q-27 0 -49 18.5t-23 44.5v54z" />
<glyph unicode="&#xec;" horiz-adv-x="499" d="M25 1309q0 47 101 47h17q263 0 263 -83q0 -11 -12 -38l-70 -5l-35 12q8 -75 8 -170l-11 -391l15 -435l-3 -62l-2 1q0 -39 10 -54l16 -3l59 2q84 0 84 -51q0 -26 -20.5 -44.5t-47.5 -18.5l-68 7q-5 0 -31 -11.5t-57.5 -11.5t-52.5 20q-16 -2 -25 -2q-57 0 -76 37 q0 40 32 55l7 8h58l4 27l-14 435l11 456q0 115 -10 218l-39 2q-8 1 -24 -0.5t-34.5 -1.5t-35.5 11.5t-17 43.5z" />
<glyph unicode="&#xed;" horiz-adv-x="499" d="M25 1309q0 47 101 47h17q263 0 263 -83q0 -11 -12 -38l-70 -5l-35 12q8 -75 8 -170l-11 -391l15 -435l-3 -62l-2 1q0 -39 10 -54l16 -3l59 2q84 0 84 -51q0 -26 -20.5 -44.5t-47.5 -18.5l-68 7q-5 0 -31 -11.5t-57.5 -11.5t-52.5 20q-16 -2 -25 -2q-57 0 -76 37 q0 40 32 55l7 8h58l4 27l-14 435l11 456q0 115 -10 218l-39 2q-8 1 -24 -0.5t-34.5 -1.5t-35.5 11.5t-17 43.5z" />
<glyph unicode="&#xee;" horiz-adv-x="499" d="M25 1309q0 47 101 47h17q263 0 263 -83q0 -11 -12 -38l-70 -5l-35 12q8 -75 8 -170l-11 -391l15 -435l-3 -62l-2 1q0 -39 10 -54l16 -3l59 2q84 0 84 -51q0 -26 -20.5 -44.5t-47.5 -18.5l-68 7q-5 0 -31 -11.5t-57.5 -11.5t-52.5 20q-16 -2 -25 -2q-57 0 -76 37 q0 40 32 55l7 8h58l4 27l-14 435l11 456q0 115 -10 218l-39 2q-8 1 -24 -0.5t-34.5 -1.5t-35.5 11.5t-17 43.5zM39 1553.5q0 31.5 33 123t81.5 173.5t83.5 82t83.5 -157t48.5 -238q0 -24 -18.5 -40.5t-41.5 -16.5q-55 1 -77 189q-10 86 -13 97q0 -6 -15.5 -48.5t-27 -74.5 t-23 -58t-24 -50t-24.5 -37.5t-25.5 -13.5t-27 19t-13.5 50.5z" />
<glyph unicode="&#xef;" horiz-adv-x="499" d="M25 1309q0 47 101 47h17q263 0 263 -83q0 -11 -12 -38l-70 -5l-35 12q8 -75 8 -170l-11 -391l15 -435l-3 -62l-2 1q0 -39 10 -54l16 -3l59 2q84 0 84 -51q0 -26 -20.5 -44.5t-47.5 -18.5l-68 7q-5 0 -31 -11.5t-57.5 -11.5t-52.5 20q-16 -2 -25 -2q-57 0 -76 37 q0 40 32 55l7 8h58l4 27l-14 435l11 456q0 115 -10 218l-39 2q-8 1 -24 -0.5t-34.5 -1.5t-35.5 11.5t-17 43.5z" />
<glyph unicode="&#xf1;" horiz-adv-x="827" d="M64 829l12 382q0 95 75 151v-13q8 5 15 5q48 0 120 -165.5t130 -363.5t115.5 -399.5t71.5 -236.5q41 429 41 1039l-3 55q0 61 51 61q29 0 43.5 -24t14.5 -56v-155q-2 -241 -21.5 -643.5t-52.5 -454.5q-56 -17 -77.5 -17t-33 14.5t-18.5 44.5t-12 40l1 9q0 76 -147 483 t-213 560v-1031q2 -4 8 -14q13 -22 13 -41t-18.5 -38t-43.5 -19q-67 0 -67 125zM128 1557q0 39 40 74t108 35q25 0 89 -41.5t84 -41.5t30.5 13t13.5 28t14 28t37.5 13t43.5 -16t17 -37q0 -53 -39.5 -92.5t-93 -39.5t-89.5 14q-34 14 -48 30q-36 44 -80 43q-29 -11 -24 -39 t-29 -40q-31 0 -52.5 15t-21.5 54z" />
<glyph unicode="&#xf2;" horiz-adv-x="651" d="M50 714v37q0 322 37 458q31 115 60 142t57 27q238 0 328 -240q52 -138 52 -340v-15l4 -232q0 -589 -273 -589q-113 0 -173 125q-57 120 -70 236q-21 175 -21 303l2 78q0 10 -3 10zM162 717q0 -297 48 -518q51 -129 97 -152q37 0 67 30t47.5 80.5t29.5 106.5q11 55 17 118 q10 109 10 186t-13.5 236t-13.5 237v36q-2 75 -49 133.5t-120 58.5q-70 0 -93 -79q-19 -66 -19 -163l2 -121z" />
<glyph unicode="&#xf3;" horiz-adv-x="651" d="M50 714v37q0 322 37 458q31 115 60 142t57 27q238 0 328 -240q52 -138 52 -340v-15l4 -232q0 -589 -273 -589q-113 0 -173 125q-57 120 -70 236q-21 175 -21 303l2 78q0 10 -3 10zM162 717q0 -297 48 -518q51 -129 97 -152q37 0 67 30t47.5 80.5t29.5 106.5q11 55 17 118 q10 109 10 186t-13.5 236t-13.5 237v36q-2 75 -49 133.5t-120 58.5q-70 0 -93 -79q-19 -66 -19 -163l2 -121z" />
<glyph unicode="&#xf4;" horiz-adv-x="651" d="M50 714v37q0 322 37 458q31 115 60 142t57 27q238 0 328 -240q52 -138 52 -340v-15l4 -232q0 -589 -273 -589q-113 0 -173 125q-57 120 -70 236q-21 175 -21 303l2 78q0 10 -3 10zM112 1553.5q0 31.5 33 123t81.5 173.5t83.5 82t83.5 -157t48.5 -238q0 -24 -18.5 -40.5 t-41.5 -16.5q-55 1 -77 189q-10 86 -13 97q0 -6 -15.5 -48.5t-27 -74.5t-23 -58t-24 -50t-24.5 -37.5t-25.5 -13.5t-27 19t-13.5 50.5zM162 717q0 -297 48 -518q51 -129 97 -152q37 0 67 30t47.5 80.5t29.5 106.5q11 55 17 118q10 109 10 186t-13.5 236t-13.5 237v36 q-2 75 -49 133.5t-120 58.5q-70 0 -93 -79q-19 -66 -19 -163l2 -121z" />
<glyph unicode="&#xf5;" horiz-adv-x="651" d="M37 1557q0 39 40 74t108 35q25 0 89 -41.5t84 -41.5t30.5 13t13.5 28t14 28t37.5 13t43.5 -16t17 -37q0 -53 -39.5 -92.5t-93 -39.5t-89.5 14q-34 14 -48 30q-36 44 -80 43q-29 -11 -24 -39t-29 -40q-31 0 -52.5 15t-21.5 54zM50 714v37q0 322 37 458q31 115 60 142 t57 27q238 0 328 -240q52 -138 52 -340v-15l4 -232q0 -589 -273 -589q-113 0 -173 125q-57 120 -70 236q-21 175 -21 303l2 78q0 10 -3 10zM162 717q0 -297 48 -518q51 -129 97 -152q37 0 67 30t47.5 80.5t29.5 106.5q11 55 17 118q10 109 10 186t-13.5 236t-13.5 237v36 q-2 75 -49 133.5t-120 58.5q-70 0 -93 -79q-19 -66 -19 -163l2 -121z" />
<glyph unicode="&#xf6;" horiz-adv-x="651" d="M50 714v37q0 322 37 458q31 115 60 142t57 27q238 0 328 -240q52 -138 52 -340v-15l4 -232q0 -589 -273 -589q-113 0 -173 125q-57 120 -70 236q-21 175 -21 303l2 78q0 10 -3 10zM162 717q0 -297 48 -518q51 -129 97 -152q37 0 67 30t47.5 80.5t29.5 106.5q11 55 17 118 q10 109 10 186t-13.5 236t-13.5 237v36q-2 75 -49 133.5t-120 58.5q-70 0 -93 -79q-19 -66 -19 -163l2 -121z" />
<glyph unicode="&#xf7;" horiz-adv-x="684" d="M57 655q0 21 12.5 33.5t33.5 12.5h301l126 7q99 0 99 -61q0 -47 -58 -47l-432 -10q-82 0 -82 65zM267 861q0 28 22.5 48.5t52 20.5t49.5 -23t20 -51.5t-21 -47.5t-49 -19t-51 22t-23 50zM270 438.5q0 29.5 20 50.5t49.5 21t50.5 -25.5t21 -55t-19 -45t-49 -15.5t-51.5 20 t-21.5 49.5z" />
<glyph unicode="&#xf9;" horiz-adv-x="641" d="M54 1306q19 43 43.5 43t43.5 -37.5t19 -79.5v-557q0 -73 14.5 -217t14.5 -217q0 -150 130 -150q146 0 146 1101v115l-1 34q0 24 11 36t38.5 12t41.5 -9q13 -8 19 -24q8 -25 9 -66l-14 -206l-9 -171l2 -35q0 -909 -264 -909q-102 -1 -151 83q-51 86 -62 171 q-17 131 -19.5 300.5t-2.5 489.5z" />
<glyph unicode="&#xfa;" horiz-adv-x="641" d="M54 1306q19 43 43.5 43t43.5 -37.5t19 -79.5v-557q0 -73 14.5 -217t14.5 -217q0 -150 130 -150q146 0 146 1101v115l-1 34q0 24 11 36t38.5 12t41.5 -9q13 -8 19 -24q8 -25 9 -66l-14 -206l-9 -171l2 -35q0 -909 -264 -909q-102 -1 -151 83q-51 86 -62 171 q-17 131 -19.5 300.5t-2.5 489.5z" />
<glyph unicode="&#xfb;" horiz-adv-x="641" d="M54 1306q19 43 43.5 43t43.5 -37.5t19 -79.5v-557q0 -73 14.5 -217t14.5 -217q0 -150 130 -150q146 0 146 1101v115l-1 34q0 24 11 36t38.5 12t41.5 -9q13 -8 19 -24q8 -25 9 -66l-14 -206l-9 -171l2 -35q0 -909 -264 -909q-102 -1 -151 83q-51 86 -62 171 q-17 131 -19.5 300.5t-2.5 489.5zM128 1564.5q0 31.5 33 123t81.5 173.5t83.5 82t83.5 -157t48.5 -238q0 -24 -18.5 -40.5t-41.5 -16.5q-55 1 -77 189q-10 86 -13 97q0 -6 -15.5 -48.5t-27 -74.5t-23 -58t-24 -50t-24.5 -37.5t-25.5 -13.5t-27 19t-13.5 50.5z" />
<glyph unicode="&#xfc;" horiz-adv-x="641" d="M54 1306q19 43 43.5 43t43.5 -37.5t19 -79.5v-557q0 -73 14.5 -217t14.5 -217q0 -150 130 -150q146 0 146 1101v115l-1 34q0 24 11 36t38.5 12t41.5 -9q13 -8 19 -24q8 -25 9 -66l-14 -206l-9 -171l2 -35q0 -909 -264 -909q-102 -1 -151 83q-51 86 -62 171 q-17 131 -19.5 300.5t-2.5 489.5z" />
<glyph unicode="&#xfd;" horiz-adv-x="513" d="M30 1288v11l46 34q63 -1 150 -317q38 -138 38 -139q8 23 32 153q61 332 128 332q19 0 34.5 -12t15.5 -31q0 -102 -58.5 -296.5t-60.5 -296.5v-617q0 -137 -67 -137q-37 0 -57 45q23 45 23 347q0 55 -11 156t-13 144v53q-4 9 -64 162q-136 343 -136 409z" />
<glyph unicode="&#xff;" horiz-adv-x="513" d="M30 1288v11l46 34q63 -1 150 -317q38 -138 38 -139q8 23 32 153q61 332 128 332q19 0 34.5 -12t15.5 -31q0 -102 -58.5 -296.5t-60.5 -296.5v-617q0 -137 -67 -137q-37 0 -57 45q23 45 23 347q0 55 -11 156t-13 144v53q-4 9 -64 162q-136 343 -136 409z" />
<glyph unicode="&#x100;" d="M34 64q28 40 91 409t103.5 577.5t87.5 350.5t90 142t66 -18q0 -73 40 -395t40 -416.5t21.5 -314t21.5 -329.5q0 -69 -68 -69q-63 0 -63 53v267q-29 20 -104.5 34t-134.5 18q-21 -36 -34.5 -104t-28 -137t-38.5 -109q-80 0 -90 41zM163 1743q0 44 90 44l144 4 q208 0 208 -55q0 -45 -66 -45l-148 -4q-228 0 -228 56zM238 464q85 -23 142.5 -23t81.5 6q-3 41 -21 222.5t-32.5 346t-14.5 199t1 39.5q-32 -33 -92.5 -367t-64.5 -423z" />
<glyph unicode="&#x101;" horiz-adv-x="621" d="M42 44l5 18q138 533 205 1038q2 14 6 82q10 150 38 191h69q28 0 49 -13t21 -39q0 -156 41.5 -463t41.5 -442l22 -126q0 -25 19.5 -122t19.5 -127v-2q0 -45 -34 -58q-43 0 -67 14t-24 54q0 87 -30 253l-202 30q-19 -68 -29 -149t-19 -118q-18 -76 -67 -76 q-24 0 -44.5 15.5t-20.5 39.5zM137 1536q0 44 90 44l144 4q208 0 208 -55q0 -45 -66 -45l-148 -4q-228 0 -228 56zM230 408q35 -23 181 -33q-6 30 -6 104.5t-8.5 185t-24.5 257t-22 212.5q-93 -515 -120 -726z" />
<glyph unicode="&#x102;" d="M34 64q28 40 91 409t103.5 577.5t87.5 350.5t90 142t66 -18q0 -73 40 -395t40 -416.5t21.5 -314t21.5 -329.5q0 -69 -68 -69q-63 0 -63 53v267q-29 20 -104.5 34t-134.5 18q-21 -36 -34.5 -104t-28 -137t-38.5 -109q-80 0 -90 41zM238 464q85 -23 142.5 -23t81.5 6 q-3 41 -21 222.5t-32.5 346t-14.5 199t1 39.5q-32 -33 -92.5 -367t-64.5 -423zM247 1920v10l38 32q46 0 60 -75q15 -81 48 -105h44q14 0 30 32t16 52t1 31t6 26.5t17.5 22.5t33.5 7t37.5 -15.5t16.5 -28.5t-8 -41l4 -16v-1q-52 -133 -108 -154q-26 -10 -75 -10t-89 37 q-72 65 -72 196z" />
<glyph unicode="&#x103;" horiz-adv-x="621" d="M42 44l5 18q138 533 205 1038q2 14 6 82q10 150 38 191h69q28 0 49 -13t21 -39q0 -156 41.5 -463t41.5 -442l22 -126q0 -25 19.5 -122t19.5 -127v-2q0 -45 -34 -58q-43 0 -67 14t-24 54q0 87 -30 253l-202 30q-19 -68 -29 -149t-19 -118q-18 -76 -67 -76 q-24 0 -44.5 15.5t-20.5 39.5zM209 1713v10l38 32q46 0 60 -75q15 -81 48 -105h44q14 0 30 32t16 52t1 31t6 26.5t17.5 22.5t33.5 7t37.5 -15.5t16.5 -28.5t-8 -41l4 -16v-1q-52 -133 -108 -154q-26 -10 -75 -10t-89 37q-72 65 -72 196zM230 408q35 -23 181 -33 q-6 30 -6 104.5t-8.5 185t-24.5 257t-22 212.5q-93 -515 -120 -726z" />
<glyph unicode="&#x104;" d="M34 64q28 40 91 409t103.5 577.5t87.5 350.5t90 142t66 -18q0 -73 40 -395t40 -416.5t21.5 -314t21.5 -329.5q0 -69 -68 -69q-63 0 -63 53v267q-29 20 -104.5 34t-134.5 18q-21 -36 -34.5 -104t-28 -137t-38.5 -109q-80 0 -90 41zM238 464q85 -23 142.5 -23t81.5 6 q-3 41 -21 222.5t-32.5 346t-14.5 199t1 39.5q-32 -33 -92.5 -367t-64.5 -423zM324 -241q0 82 56 156t136 123l55 -27q-12 -8 -31.5 -25.5t-37.5 -33t-24.5 -22.5t-21 -22.5t-21 -25.5t-16.5 -26t-14 -28q-11 -34 -11 -72.5t27 -38.5q40 0 86 33l14 -34q0 -27 -38 -45.5 t-74 -18.5t-60.5 32t-24.5 75z" />
<glyph unicode="&#x105;" horiz-adv-x="621" d="M42 44l5 18q138 533 205 1038q2 14 6 82q10 150 38 191h69q28 0 49 -13t21 -39q0 -156 41.5 -463t41.5 -442l22 -126q0 -25 19.5 -122t19.5 -127v-2q0 -45 -34 -58q-43 0 -67 14t-24 54q0 87 -30 253l-202 30q-19 -68 -29 -149t-19 -118q-18 -76 -67 -76 q-24 0 -44.5 15.5t-20.5 39.5zM230 408q35 -23 181 -33q-6 30 -6 104.5t-8.5 185t-24.5 257t-22 212.5q-93 -515 -120 -726zM310 -255q0 82 56 156t136 123l55 -27q-12 -8 -31.5 -25.5t-37.5 -33t-24.5 -22.5t-21 -22.5t-21 -25.5t-16.5 -26t-14 -28q-11 -34 -11 -72.5 t27 -38.5q40 0 86 33l14 -34q0 -27 -38 -45.5t-74 -18.5t-60.5 32t-24.5 75z" />
<glyph unicode="&#x106;" horiz-adv-x="649" d="M51 792l2 245q0 117 14 189q-6 33 -6 64q0 126 94 200.5t232 74.5q49 0 96 -27.5t47 -72.5q0 -22 -17 -34t-57.5 -12t-55.5 25v-1h-28v5q-119 0 -162 -74q-40 -68 -40 -234l6 -141l-18 -143v-49q0 -238 10.5 -315t21.5 -138t28.5 -104t41.5 -81q48 -76 133 -76 q35 0 87 36.5t79 36.5t58 -31q0 -103 -117 -147q-58 -21 -126 -21t-116 27.5t-80 71t-56 111.5t-38 135q-12 68 -20 156q-12 148 -13 324z" />
<glyph unicode="&#x107;" horiz-adv-x="505" d="M46 615v49q0 302 30 420q36 146 100 202q87 78 220 78q32 0 47.5 -15t15.5 -36t-12.5 -37.5t-31.5 -17.5h-96q-42 0 -73 -54q-30 -54 -44 -132q-26 -148 -25 -245v-10l-9 -395q0 -125 13.5 -173t28 -77.5t34.5 -48.5q46 -44 118 -44q24 0 44 18q24 0 43 -11t19 -34 q0 -81 -113 -81q-46 0 -96.5 13.5t-75.5 29.5q-136 88 -136 481z" />
<glyph unicode="&#x108;" horiz-adv-x="649" d="M51 792l2 245q0 117 14 189q-6 33 -6 64q0 126 94 200.5t232 74.5q49 0 96 -27.5t47 -72.5q0 -22 -17 -34t-57.5 -12t-55.5 25v-1h-28v5q-119 0 -162 -74q-40 -68 -40 -234l6 -141l-18 -143v-49q0 -238 10.5 -315t21.5 -138t28.5 -104t41.5 -81q48 -76 133 -76 q35 0 87 36.5t79 36.5t58 -31q0 -103 -117 -147q-58 -21 -126 -21t-116 27.5t-80 71t-56 111.5t-38 135q-12 68 -20 156q-12 148 -13 324zM107 1760.5q0 31.5 33 123t81.5 173.5t83.5 82t83.5 -157t48.5 -238q0 -24 -18.5 -40.5t-41.5 -16.5q-55 1 -77 189q-10 86 -13 97 q0 -6 -15.5 -48.5t-27 -74.5t-23 -58t-24 -50t-24.5 -37.5t-25.5 -13.5t-27 19t-13.5 50.5z" />
<glyph unicode="&#x109;" horiz-adv-x="505" d="M46 615v49q0 302 30 420q36 146 100 202q87 78 220 78q32 0 47.5 -15t15.5 -36t-12.5 -37.5t-31.5 -17.5h-96q-42 0 -73 -54q-30 -54 -44 -132q-26 -148 -25 -245v-10l-9 -395q0 -125 13.5 -173t28 -77.5t34.5 -48.5q46 -44 118 -44q24 0 44 18q24 0 43 -11t19 -34 q0 -81 -113 -81q-46 0 -96.5 13.5t-75.5 29.5q-136 88 -136 481zM57 1553.5q0 31.5 33 123t81.5 173.5t83.5 82t83.5 -157t48.5 -238q0 -24 -18.5 -40.5t-41.5 -16.5q-55 1 -77 189q-10 86 -13 97q0 -6 -15.5 -48.5t-27 -74.5t-23 -58t-24 -50t-24.5 -37.5t-25.5 -13.5 t-27 19t-13.5 50.5z" />
<glyph unicode="&#x10a;" horiz-adv-x="649" d="M51 792l2 245q0 117 14 189q-6 33 -6 64q0 126 94 200.5t232 74.5q49 0 96 -27.5t47 -72.5q0 -22 -17 -34t-57.5 -12t-55.5 25v-1h-28v5q-119 0 -162 -74q-40 -68 -40 -234l6 -141l-18 -143v-49q0 -238 10.5 -315t21.5 -138t28.5 -104t41.5 -81q48 -76 133 -76 q35 0 87 36.5t79 36.5t58 -31q0 -103 -117 -147q-58 -21 -126 -21t-116 27.5t-80 71t-56 111.5t-38 135q-12 68 -20 156q-12 148 -13 324zM197 1761.5q0 29.5 23 53.5t53 24t52 -24t22 -55.5t-23 -52t-54.5 -20.5t-52 22.5t-20.5 52z" />
<glyph unicode="&#x10b;" horiz-adv-x="505" d="M46 615v49q0 302 30 420q36 146 100 202q87 78 220 78q32 0 47.5 -15t15.5 -36t-12.5 -37.5t-31.5 -17.5h-96q-42 0 -73 -54q-30 -54 -44 -132q-26 -148 -25 -245v-10l-9 -395q0 -125 13.5 -173t28 -77.5t34.5 -48.5q46 -44 118 -44q24 0 44 18q24 0 43 -11t19 -34 q0 -81 -113 -81q-46 0 -96.5 13.5t-75.5 29.5q-136 88 -136 481zM147 1554.5q0 29.5 23 53.5t53 24t52 -24t22 -55.5t-23 -52t-54.5 -20.5t-52 22.5t-20.5 52z" />
<glyph unicode="&#x10c;" horiz-adv-x="649" d="M51 792l2 245q0 117 14 189q-6 33 -6 64q0 126 94 200.5t232 74.5q49 0 96 -27.5t47 -72.5q0 -22 -17 -34t-57.5 -12t-55.5 25v-1h-28v5q-119 0 -162 -74q-40 -68 -40 -234l6 -141l-18 -143v-49q0 -238 10.5 -315t21.5 -138t28.5 -104t41.5 -81q48 -76 133 -76 q35 0 87 36.5t79 36.5t58 -31q0 -103 -117 -147q-58 -21 -126 -21t-116 27.5t-80 71t-56 111.5t-38 135q-12 68 -20 156q-12 148 -13 324zM101 2076q0 16 15 27.5t34 11.5q43 0 101 -211l27 -94q4 22 9 69t10 84q6 37 14 76q18 83 57 83q18 0 30.5 -11.5t12.5 -31.5l-15 -31 v-37l-29 -112q-29 -112 -29 -146q0 -66 -52 -66q-40 0 -112.5 166t-72.5 223z" />
<glyph unicode="&#x10d;" horiz-adv-x="505" d="M46 615v49q0 302 30 420q36 146 100 202q87 78 220 78q32 0 47.5 -15t15.5 -36t-12.5 -37.5t-31.5 -17.5h-96q-42 0 -73 -54q-30 -54 -44 -132q-26 -148 -25 -245v-10l-9 -395q0 -125 13.5 -173t28 -77.5t34.5 -48.5q46 -44 118 -44q24 0 44 18q24 0 43 -11t19 -34 q0 -81 -113 -81q-46 0 -96.5 13.5t-75.5 29.5q-136 88 -136 481zM51 1869q0 16 15 27.5t34 11.5q43 0 101 -211l27 -94q4 22 9 69t10 84q6 37 14 76q18 83 57 83q18 0 30.5 -11.5t12.5 -31.5l-15 -31v-37l-29 -112q-29 -112 -29 -146q0 -66 -52 -66q-40 0 -112.5 166 t-72.5 223z" />
<glyph unicode="&#x10e;" horiz-adv-x="653" d="M36 1481q0 71 157 71h31q209 0 303 -234q66 -163 66 -450v-95q-5 -9 -5 -19l5 -43q1 -145 -77 -342q-88 -225 -208 -319q-68 -54 -140 -55q-38 0 -69 17.5t-31 52.5q45 47 45 241q0 114 -19 339t-19 337l6 224q0 54 -22.5 145.5t-22.5 129.5zM98 2076q0 16 15 27.5 t34 11.5q43 0 101 -211l27 -94q4 22 9 69t10 84q6 37 14 76q18 83 57 83q18 0 30.5 -11.5t12.5 -31.5l-15 -31v-37l-29 -112q-29 -112 -29 -146q0 -66 -52 -66q-40 0 -112.5 166t-72.5 223zM162 1427q0 -185 24.5 -557t24.5 -560v-196q77 50 134 139.5t87 195.5 q56 203 56 405q0 232 -58 366q-59 138 -146 182q-54 28 -122 27v-2z" />
<glyph unicode="&#x10f;" horiz-adv-x="610" d="M55 1275q0 37 23 57.5t49 20.5q211 0 343 -247q76 -141 76 -298l-4 -103v-113q0 -206 -18.5 -275t-38.5 -115t-48 -82q-65 -82 -164 -132h-148q-52 0 -52 268l6 645q0 66 -12 201.5t-12 172.5zM98 1821q0 16 15 27.5t34 11.5q43 0 101 -211l27 -94q4 22 9 69t10 84 q6 37 14 76q18 83 57 83q18 0 30.5 -11.5t12.5 -31.5l-15 -31v-37l-29 -112q-29 -112 -29 -146q0 -66 -52 -66q-40 0 -112.5 166t-72.5 223zM185 1035.5q0 -141.5 15.5 -442.5t15.5 -452v-49q178 0 214 360q8 83 8 160q0 618 -238 646q-15 -81 -15 -222.5z" />
<glyph unicode="&#x112;" horiz-adv-x="457" d="M-11 1743q0 44 90 44l144 4q208 0 208 -55q0 -45 -66 -45l-148 -4q-228 0 -228 56zM62 1454v7q34 56 51 72l152 18q31 0 62.5 -18.5t31.5 -48.5q0 -61 -93 -61l-59 2q-15 0 -22 -1l16 -338q0 -41 -5 -119.5t-5 -114.5q11 2 30 7q42 11 65.5 11t42 -17t18.5 -41t-15 -43 t-39 -19l-51 2q-30 0 -42 -15v-632q105 6 114 6q117 0 117 -54v-7q-14 -28 -48 -43t-60 -17t-67 -2h-64q-76 0 -94 30q-8 14 -8 37v1190q0 35 -14 104t-14 105z" />
<glyph unicode="&#x113;" horiz-adv-x="455" d="M12 1536q0 44 90 44l144 4q208 0 208 -55q0 -45 -66 -45l-148 -4q-228 0 -228 56zM72 436l14 598l-11 173q0 145 86 145q55 0 150 -25.5t95 -65.5q0 -42 -60 -64q-95 32 -155 39q3 -44 3 -88l-9 -294q0 -2 6 -32l73 3q99 0 99 -56q0 -22 -18 -38.5t-45.5 -16.5t-59.5 4 h-52q6 -78 6 -155l-9 -371q0 -115 4 -115l151 5q78 0 78 -50q0 -31 -27 -45t-61 -14h-173q-27 0 -49 18.5t-23 44.5v54z" />
<glyph unicode="&#x116;" horiz-adv-x="457" d="M62 1454v7q34 56 51 72l152 18q31 0 62.5 -18.5t31.5 -48.5q0 -61 -93 -61l-59 2q-15 0 -22 -1l16 -338q0 -41 -5 -119.5t-5 -114.5q11 2 30 7q42 11 65.5 11t42 -17t18.5 -41t-15 -43t-39 -19l-51 2q-30 0 -42 -15v-632q105 6 114 6q117 0 117 -54v-7q-14 -28 -48 -43 t-60 -17t-67 -2h-64q-76 0 -94 30q-8 14 -8 37v1190q0 35 -14 104t-14 105zM104 1761.5q0 29.5 23 53.5t53 24t52 -24t22 -55.5t-23 -52t-54.5 -20.5t-52 22.5t-20.5 52z" />
<glyph unicode="&#x117;" horiz-adv-x="455" d="M72 436l14 598l-11 173q0 145 86 145q55 0 150 -25.5t95 -65.5q0 -42 -60 -64q-95 32 -155 39q3 -44 3 -88l-9 -294q0 -2 6 -32l73 3q99 0 99 -56q0 -22 -18 -38.5t-45.5 -16.5t-59.5 4h-52q6 -78 6 -155l-9 -371q0 -115 4 -115l151 5q78 0 78 -50q0 -31 -27 -45t-61 -14 h-173q-27 0 -49 18.5t-23 44.5v54zM128 1554.5q0 29.5 23 53.5t53 24t52 -24t22 -55.5t-23 -52t-54.5 -20.5t-52 22.5t-20.5 52z" />
<glyph unicode="&#x118;" horiz-adv-x="457" d="M62 1454v7q34 56 51 72l152 18q31 0 62.5 -18.5t31.5 -48.5q0 -61 -93 -61l-59 2q-15 0 -22 -1l16 -338q0 -41 -5 -119.5t-5 -114.5q11 2 30 7q42 11 65.5 11t42 -17t18.5 -41t-15 -43t-39 -19l-51 2q-30 0 -42 -15v-632q105 6 114 6q117 0 117 -54v-7q-14 -28 -48 -43 t-60 -17t-67 -2h-64q-76 0 -94 30q-8 14 -8 37v1190q0 35 -14 104t-14 105zM63 -254q0 82 56 156t136 123l55 -27q-12 -8 -31.5 -25.5t-37.5 -33t-24.5 -22.5t-21 -22.5t-21 -25.5t-16.5 -26t-14 -28q-11 -34 -11 -72.5t27 -38.5q40 0 86 33l14 -34q0 -27 -38 -45.5 t-74 -18.5t-60.5 32t-24.5 75z" />
<glyph unicode="&#x119;" horiz-adv-x="455" d="M65 -272q0 82 56 156t136 123l55 -27q-12 -8 -31.5 -25.5t-37.5 -33t-24.5 -22.5t-21 -22.5t-21 -25.5t-16.5 -26t-14 -28q-11 -34 -11 -72.5t27 -38.5q40 0 86 33l14 -34q0 -27 -38 -45.5t-74 -18.5t-60.5 32t-24.5 75zM72 436l14 598l-11 173q0 145 86 145 q55 0 150 -25.5t95 -65.5q0 -42 -60 -64q-95 32 -155 39q3 -44 3 -88l-9 -294q0 -2 6 -32l73 3q99 0 99 -56q0 -22 -18 -38.5t-45.5 -16.5t-59.5 4h-52q6 -78 6 -155l-9 -371q0 -115 4 -115l151 5q78 0 78 -50q0 -31 -27 -45t-61 -14h-173q-27 0 -49 18.5t-23 44.5v54z" />
<glyph unicode="&#x11a;" horiz-adv-x="457" d="M8 2076q0 16 15 27.5t34 11.5q43 0 101 -211l27 -94q4 22 9 69t10 84q6 37 14 76q18 83 57 83q18 0 30.5 -11.5t12.5 -31.5l-15 -31v-37l-29 -112q-29 -112 -29 -146q0 -66 -52 -66q-40 0 -112.5 166t-72.5 223zM62 1454v7q34 56 51 72l152 18q31 0 62.5 -18.5 t31.5 -48.5q0 -61 -93 -61l-59 2q-15 0 -22 -1l16 -338q0 -41 -5 -119.5t-5 -114.5q11 2 30 7q42 11 65.5 11t42 -17t18.5 -41t-15 -43t-39 -19l-51 2q-30 0 -42 -15v-632q105 6 114 6q117 0 117 -54v-7q-14 -28 -48 -43t-60 -17t-67 -2h-64q-76 0 -94 30q-8 14 -8 37v1190 q0 35 -14 104t-14 105z" />
<glyph unicode="&#x11b;" horiz-adv-x="455" d="M32 1869q0 16 15 27.5t34 11.5q43 0 101 -211l27 -94q4 22 9 69t10 84q6 37 14 76q18 83 57 83q18 0 30.5 -11.5t12.5 -31.5l-15 -31v-37l-29 -112q-29 -112 -29 -146q0 -66 -52 -66q-40 0 -112.5 166t-72.5 223zM72 436l14 598l-11 173q0 145 86 145q55 0 150 -25.5 t95 -65.5q0 -42 -60 -64q-95 32 -155 39q3 -44 3 -88l-9 -294q0 -2 6 -32l73 3q99 0 99 -56q0 -22 -18 -38.5t-45.5 -16.5t-59.5 4h-52q6 -78 6 -155l-9 -371q0 -115 4 -115l151 5q78 0 78 -50q0 -31 -27 -45t-61 -14h-173q-27 0 -49 18.5t-23 44.5v54z" />
<glyph unicode="&#x11c;" horiz-adv-x="727" d="M51 862q0 198 13 284t26.5 141t31.5 97.5t44 82.5q26 41 60 67q73 58 167 57.5t94 -58.5q0 -22 -16 -35t-38 -13l-59 10q-77 -1 -121 -93q-47 -101 -60 -192t-19 -147q-8 -55 -10 -125q-4 -97 -3 -194l-1 -127q0 -196 17.5 -279t36.5 -132q18 -50 44 -82q85 -65 149 -73 q91 0 151 86q-3 182 -33 234l-80 -8q-70 0 -70 58q0 50 132 65q26 3 57 3t53 -32t22 -85.5t20.5 -174.5t20.5 -163q0 -75 -50.5 -75t-67.5 43v2q-12 -5 -45 -23q-62 -34 -123 -34q-44 0 -88 18q-94 37 -144 125q-54 93 -71 178t-23 134q-7 50 -11 114q-5 81 -5 195z M133 1766.5q0 31.5 33 123t81.5 173.5t83.5 82t83.5 -157t48.5 -238q0 -24 -18.5 -40.5t-41.5 -16.5q-55 1 -77 189q-10 86 -13 97q0 -6 -15.5 -48.5t-27 -74.5t-23 -58t-24 -50t-24.5 -37.5t-25.5 -13.5t-27 19t-13.5 50.5z" />
<glyph unicode="&#x11d;" horiz-adv-x="638" d="M46 568v88q0 289 17 365.5t39 142.5t54 102q77 88 178 88t101 -52q0 -24 -20 -39.5t-45 -15.5l-43 5q-71 0 -107 -140q-52 -200 -52 -483q0 -193 12.5 -265.5t27.5 -121.5q14 -50 34 -80q47 -71 121 -71q99 0 99 326v94q-15 8 -48 8l-40 -1q-71 0 -71 47q0 29 20.5 44 t49.5 15v-1h28q184 0 184 -63l-22 -149l10 -217q0 -101 -70.5 -155.5t-164.5 -54.5q-142 0 -206 106q-46 75 -58 141.5t-17 102.5t-7 97q-4 85 -4 137zM105 1553.5q0 31.5 33 123t81.5 173.5t83.5 82t83.5 -157t48.5 -238q0 -24 -18.5 -40.5t-41.5 -16.5q-55 1 -77 189 q-10 86 -13 97q0 -6 -15.5 -48.5t-27 -74.5t-23 -58t-24 -50t-24.5 -37.5t-25.5 -13.5t-27 19t-13.5 50.5z" />
<glyph unicode="&#x11e;" horiz-adv-x="727" d="M51 862q0 198 13 284t26.5 141t31.5 97.5t44 82.5q26 41 60 67q73 58 167 57.5t94 -58.5q0 -22 -16 -35t-38 -13l-59 10q-77 -1 -121 -93q-47 -101 -60 -192t-19 -147q-8 -55 -10 -125q-4 -97 -3 -194l-1 -127q0 -196 17.5 -279t36.5 -132q18 -50 44 -82q85 -65 149 -73 q91 0 151 86q-3 182 -33 234l-80 -8q-70 0 -70 58q0 50 132 65q26 3 57 3t53 -32t22 -85.5t20.5 -174.5t20.5 -163q0 -75 -50.5 -75t-67.5 43v2q-12 -5 -45 -23q-62 -34 -123 -34q-44 0 -88 18q-94 37 -144 125q-54 93 -71 178t-23 134q-7 50 -11 114q-5 81 -5 195z M117 1926v10l38 32q46 0 60 -75q15 -81 48 -105h44q14 0 30 32t16 52t1 31t6 26.5t17.5 22.5t33.5 7t37.5 -15.5t16.5 -28.5t-8 -41l4 -16v-1q-52 -133 -108 -154q-26 -10 -75 -10t-89 37q-72 65 -72 196z" />
<glyph unicode="&#x11f;" horiz-adv-x="638" d="M46 568v88q0 289 17 365.5t39 142.5t54 102q77 88 178 88t101 -52q0 -24 -20 -39.5t-45 -15.5l-43 5q-71 0 -107 -140q-52 -200 -52 -483q0 -193 12.5 -265.5t27.5 -121.5q14 -50 34 -80q47 -71 121 -71q99 0 99 326v94q-15 8 -48 8l-40 -1q-71 0 -71 47q0 29 20.5 44 t49.5 15v-1h28q184 0 184 -63l-22 -149l10 -217q0 -101 -70.5 -155.5t-164.5 -54.5q-142 0 -206 106q-46 75 -58 141.5t-17 102.5t-7 97q-4 85 -4 137zM88 1713v10l38 32q46 0 60 -75q15 -81 48 -105h44q14 0 30 32t16 52t1 31t6 26.5t17.5 22.5t33.5 7t37.5 -15.5 t16.5 -28.5t-8 -41l4 -16v-1q-52 -133 -108 -154q-26 -10 -75 -10t-89 37q-72 65 -72 196z" />
<glyph unicode="&#x120;" horiz-adv-x="727" d="M51 862q0 198 13 284t26.5 141t31.5 97.5t44 82.5q26 41 60 67q73 58 167 57.5t94 -58.5q0 -22 -16 -35t-38 -13l-59 10q-77 -1 -121 -93q-47 -101 -60 -192t-19 -147q-8 -55 -10 -125q-4 -97 -3 -194l-1 -127q0 -196 17.5 -279t36.5 -132q18 -50 44 -82q85 -65 149 -73 q91 0 151 86q-3 182 -33 234l-80 -8q-70 0 -70 58q0 50 132 65q26 3 57 3t53 -32t22 -85.5t20.5 -174.5t20.5 -163q0 -75 -50.5 -75t-67.5 43v2q-12 -5 -45 -23q-62 -34 -123 -34q-44 0 -88 18q-94 37 -144 125q-54 93 -71 178t-23 134q-7 50 -11 114q-5 81 -5 195z M223 1767.5q0 29.5 23 53.5t53 24t52 -24t22 -55.5t-23 -52t-54.5 -20.5t-52 22.5t-20.5 52z" />
<glyph unicode="&#x121;" horiz-adv-x="638" d="M46 568v88q0 289 17 365.5t39 142.5t54 102q77 88 178 88t101 -52q0 -24 -20 -39.5t-45 -15.5l-43 5q-71 0 -107 -140q-52 -200 -52 -483q0 -193 12.5 -265.5t27.5 -121.5q14 -50 34 -80q47 -71 121 -71q99 0 99 326v94q-15 8 -48 8l-40 -1q-71 0 -71 47q0 29 20.5 44 t49.5 15v-1h28q184 0 184 -63l-22 -149l10 -217q0 -101 -70.5 -155.5t-164.5 -54.5q-142 0 -206 106q-46 75 -58 141.5t-17 102.5t-7 97q-4 85 -4 137zM195 1554.5q0 29.5 23 53.5t53 24t52 -24t22 -55.5t-23 -52t-54.5 -20.5t-52 22.5t-20.5 52z" />
<glyph unicode="&#x122;" horiz-adv-x="727" d="M51 862q0 198 13 284t26.5 141t31.5 97.5t44 82.5q26 41 60 67q73 58 167 57.5t94 -58.5q0 -22 -16 -35t-38 -13l-59 10q-77 -1 -121 -93q-47 -101 -60 -192t-19 -147q-8 -55 -10 -125q-4 -97 -3 -194l-1 -127q0 -196 17.5 -279t36.5 -132q18 -50 44 -82q85 -65 149 -73 q91 0 151 86q-3 182 -33 234l-80 -8q-70 0 -70 58q0 50 132 65q26 3 57 3t53 -32t22 -85.5t20.5 -174.5t20.5 -163q0 -75 -50.5 -75t-67.5 43v2q-12 -5 -45 -23q-62 -34 -123 -34q-44 0 -88 18q-94 37 -144 125q-54 93 -71 178t-23 134q-7 50 -11 114q-5 81 -5 195z" />
<glyph unicode="&#x123;" horiz-adv-x="638" d="M46 568v88q0 289 17 365.5t39 142.5t54 102q77 88 178 88t101 -52q0 -24 -20 -39.5t-45 -15.5l-43 5q-71 0 -107 -140q-52 -200 -52 -483q0 -193 12.5 -265.5t27.5 -121.5q14 -50 34 -80q47 -71 121 -71q99 0 99 326v94q-15 8 -48 8l-40 -1q-71 0 -71 47q0 29 20.5 44 t49.5 15v-1h28q184 0 184 -63l-22 -149l10 -217q0 -101 -70.5 -155.5t-164.5 -54.5q-142 0 -206 106q-46 75 -58 141.5t-17 102.5t-7 97q-4 85 -4 137z" />
<glyph unicode="&#x124;" horiz-adv-x="560" d="M54 1510q0 37 35 37q19 0 41 -10.5t31 -22.5q-7 -73 -7 -154l14 -421l-2 -77q0 -29 4 -53l199 15l-8 672v54q78 0 93 -70q7 -34 7 -173t19.5 -589.5t19.5 -674.5q0 -27 -17 -50.5t-43 -23.5q-52 0 -52 68q0 390 -18 722q-55 10 -103 10t-86 -16q0 -114 17 -345t17 -349 q0 -20 -12 -37t-32 -17q-56 -1 -82 351q-35 477 -35 1154zM79 1760.5q0 31.5 33 123t81.5 173.5t83.5 82t83.5 -157t48.5 -238q0 -24 -18.5 -40.5t-41.5 -16.5q-55 1 -77 189q-10 86 -13 97q0 -6 -15.5 -48.5t-27 -74.5t-23 -58t-24 -50t-24.5 -37.5t-25.5 -13.5t-27 19 t-13.5 50.5z" />
<glyph unicode="&#x125;" horiz-adv-x="571" d="M68 1294q0 24 17 42.5t41 18.5q65 0 65 -122l-8 -511q37 -10 112 -10h74q5 9 5 66t-13.5 250.5t-13.5 291.5q0 23 18 38.5t34 15.5t26 -3t22 -8t19 -7q0 -266 19.5 -777.5t19.5 -528.5t-21.5 -33.5t-48 -16.5t-42.5 39t-21.5 115.5t-7.5 132.5q-1 24 0 55q0 42 1 96 q2 95 2 110v8l3 59l-12 19v2q-17 -4 -37 -4l-132 19v-235l12 -337q0 -29 -15 -51.5t-43 -22.5q-41 0 -56.5 74.5t-15.5 203.5l6 312q0 97 -3 107v10q8 107 8 120zM68 1553.5q0 31.5 33 123t81.5 173.5t83.5 82t83.5 -157t48.5 -238q0 -24 -18.5 -40.5t-41.5 -16.5 q-55 1 -77 189q-10 86 -13 97q0 -6 -15.5 -48.5t-27 -74.5t-23 -58t-24 -50t-24.5 -37.5t-25.5 -13.5t-27 19t-13.5 50.5z" />
<glyph unicode="&#x126;" horiz-adv-x="560" />
<glyph unicode="&#x127;" horiz-adv-x="571" />
<glyph unicode="&#x128;" horiz-adv-x="432" d="M-4 1764q0 39 40 74t108 35q25 0 89 -41.5t84 -41.5t30.5 13t13.5 28t14 28t37.5 13t43.5 -16t17 -37q0 -53 -39.5 -92.5t-93 -39.5t-89.5 14q-34 14 -48 30q-36 44 -80 43q-29 -11 -24 -39t-29 -40q-31 0 -52.5 15t-21.5 54zM36 64q0 49 62 49l43 -3q30 0 30 48 q0 158 -19 473.5t-19 473.5l4 209q0 66 -5 114q-27 -9 -48 -9q-48 0 -48 49q0 25 31 43.5t77 26.5q86 15 127.5 15t59.5 -16.5t18 -39t-13.5 -39t-34.5 -16.5l-36 1q-20 0 -29.5 -8.5t-9.5 -33.5q0 -200 25 -599t25 -599v-79q21 3 42 3q85 0 85 -72v-12l-51 -35l-139 -5 q-177 0 -177 61z" />
<glyph unicode="&#x129;" horiz-adv-x="499" d="M-36 1557q0 39 40 74t108 35q25 0 89 -41.5t84 -41.5t30.5 13t13.5 28t14 28t37.5 13t43.5 -16t17 -37q0 -53 -39.5 -92.5t-93 -39.5t-89.5 14q-34 14 -48 30q-36 44 -80 43q-29 -11 -24 -39t-29 -40q-31 0 -52.5 15t-21.5 54zM25 1309q0 47 101 47h17q263 0 263 -83 q0 -11 -12 -38l-70 -5l-35 12q8 -75 8 -170l-11 -391l15 -435l-3 -62l-2 1q0 -39 10 -54l16 -3l59 2q84 0 84 -51q0 -26 -20.5 -44.5t-47.5 -18.5l-68 7q-5 0 -31 -11.5t-57.5 -11.5t-52.5 20q-16 -2 -25 -2q-57 0 -76 37q0 40 32 55l7 8h58l4 27l-14 435l11 456 q0 115 -10 218l-39 2q-8 1 -24 -0.5t-34.5 -1.5t-35.5 11.5t-17 43.5z" />
<glyph unicode="&#x12a;" horiz-adv-x="432" d="M-44 1743q0 44 90 44l144 4q208 0 208 -55q0 -45 -66 -45l-148 -4q-228 0 -228 56zM36 64q0 49 62 49l43 -3q30 0 30 48q0 158 -19 473.5t-19 473.5l4 209q0 66 -5 114q-27 -9 -48 -9q-48 0 -48 49q0 25 31 43.5t77 26.5q86 15 127.5 15t59.5 -16.5t18 -39t-13.5 -39 t-34.5 -16.5l-36 1q-20 0 -29.5 -8.5t-9.5 -33.5q0 -200 25 -599t25 -599v-79q21 3 42 3q85 0 85 -72v-12l-51 -35l-139 -5q-177 0 -177 61z" />
<glyph unicode="&#x12b;" horiz-adv-x="499" d="M14 1536q0 44 90 44l144 4q208 0 208 -55q0 -45 -66 -45l-148 -4q-228 0 -228 56zM25 1309q0 47 101 47h17q263 0 263 -83q0 -11 -12 -38l-70 -5l-35 12q8 -75 8 -170l-11 -391l15 -435l-3 -62l-2 1q0 -39 10 -54l16 -3l59 2q84 0 84 -51q0 -26 -20.5 -44.5t-47.5 -18.5 l-68 7q-5 0 -31 -11.5t-57.5 -11.5t-52.5 20q-16 -2 -25 -2q-57 0 -76 37q0 40 32 55l7 8h58l4 27l-14 435l11 456q0 115 -10 218l-39 2q-8 1 -24 -0.5t-34.5 -1.5t-35.5 11.5t-17 43.5z" />
<glyph unicode="&#x12c;" horiz-adv-x="432" d="M30 1920v10l38 32q46 0 60 -75q15 -81 48 -105h44q14 0 30 32t16 52t1 31t6 26.5t17.5 22.5t33.5 7t37.5 -15.5t16.5 -28.5t-8 -41l4 -16v-1q-52 -133 -108 -154q-26 -10 -75 -10t-89 37q-72 65 -72 196zM36 64q0 49 62 49l43 -3q30 0 30 48q0 158 -19 473.5t-19 473.5 l4 209q0 66 -5 114q-27 -9 -48 -9q-48 0 -48 49q0 25 31 43.5t77 26.5q86 15 127.5 15t59.5 -16.5t18 -39t-13.5 -39t-34.5 -16.5l-36 1q-20 0 -29.5 -8.5t-9.5 -33.5q0 -200 25 -599t25 -599v-79q21 3 42 3q85 0 85 -72v-12l-51 -35l-139 -5q-177 0 -177 61z" />
<glyph unicode="&#x12d;" horiz-adv-x="499" d="M23 1713v10l38 32q46 0 60 -75q15 -81 48 -105h44q14 0 30 32t16 52t1 31t6 26.5t17.5 22.5t33.5 7t37.5 -15.5t16.5 -28.5t-8 -41l4 -16v-1q-52 -133 -108 -154q-26 -10 -75 -10t-89 37q-72 65 -72 196zM25 1309q0 47 101 47h17q263 0 263 -83q0 -11 -12 -38l-70 -5 l-35 12q8 -75 8 -170l-11 -391l15 -435l-3 -62l-2 1q0 -39 10 -54l16 -3l59 2q84 0 84 -51q0 -26 -20.5 -44.5t-47.5 -18.5l-68 7q-5 0 -31 -11.5t-57.5 -11.5t-52.5 20q-16 -2 -25 -2q-57 0 -76 37q0 40 32 55l7 8h58l4 27l-14 435l11 456q0 115 -10 218l-39 2 q-8 1 -24 -0.5t-34.5 -1.5t-35.5 11.5t-17 43.5z" />
<glyph unicode="&#x12e;" horiz-adv-x="432" d="M35 -240q0 82 56 156t136 123l55 -27q-12 -8 -31.5 -25.5t-37.5 -33t-24.5 -22.5t-21 -22.5t-21 -25.5t-16.5 -26t-14 -28q-11 -34 -11 -72.5t27 -38.5q40 0 86 33l14 -34q0 -27 -38 -45.5t-74 -18.5t-60.5 32t-24.5 75zM36 64q0 49 62 49l43 -3q30 0 30 48 q0 158 -19 473.5t-19 473.5l4 209q0 66 -5 114q-27 -9 -48 -9q-48 0 -48 49q0 25 31 43.5t77 26.5q86 15 127.5 15t59.5 -16.5t18 -39t-13.5 -39t-34.5 -16.5l-36 1q-20 0 -29.5 -8.5t-9.5 -33.5q0 -200 25 -599t25 -599v-79q21 3 42 3q85 0 85 -72v-12l-51 -35l-139 -5 q-177 0 -177 61z" />
<glyph unicode="&#x12f;" horiz-adv-x="499" d="M25 1309q0 47 101 47h244q83 0 83 -43q0 -19 -18 -35t-41 -16h-105q8 -84 8 -190l-11 -391l10 -435v-61l-1 -57h27l59 2q84 0 84 -51q0 -26 -20.5 -44.5t-47.5 -18.5h-90q-93 0 -119 4q-16 -2 -25 -2q-73 0 -73 46q0 19 12 36t24 18h58l4 27l-14 435l11 456 q0 117 -10 220h-39l-47 -2q-30 0 -47 11.5t-17 43.5zM71 -230q0 82 56 156t136 123l55 -27q-12 -8 -31.5 -25.5t-37.5 -33t-24.5 -22.5t-21 -22.5t-21 -25.5t-16.5 -26t-14 -28q-11 -34 -11 -72.5t27 -38.5q40 0 86 33l14 -34q0 -27 -38 -45.5t-74 -18.5t-60.5 32t-24.5 75z " />
<glyph unicode="&#x130;" horiz-adv-x="432" d="M36 64q0 49 62 49l43 -3q30 0 30 48q0 158 -19 473.5t-19 473.5l4 209q0 66 -5 114q-27 -9 -48 -9q-48 0 -48 49q0 25 31 43.5t77 26.5q86 15 127.5 15t59.5 -16.5t18 -39t-13.5 -39t-34.5 -16.5l-36 1q-20 0 -29.5 -8.5t-9.5 -33.5q0 -200 25 -599t25 -599v-79 q21 3 42 3q85 0 85 -72v-12l-51 -35l-139 -5q-177 0 -177 61zM125 1761.5q0 29.5 23 53.5t53 24t52 -24t22 -55.5t-23 -52t-54.5 -20.5t-52 22.5t-20.5 52z" />
<glyph unicode="&#x131;" horiz-adv-x="499" d="M25 1309q0 47 101 47h17q263 0 263 -83q0 -11 -12 -38l-70 -5l-35 12q8 -75 8 -170l-11 -391l15 -435l-3 -62l-2 1q0 -39 10 -54l16 -3l59 2q84 0 84 -51q0 -26 -20.5 -44.5t-47.5 -18.5l-68 7q-5 0 -31 -11.5t-57.5 -11.5t-52.5 20q-16 -2 -25 -2q-57 0 -76 37 q0 40 32 55l7 8h58l4 27l-14 435l11 456q0 115 -10 218l-39 2q-8 1 -24 -0.5t-34.5 -1.5t-35.5 11.5t-17 43.5z" />
<glyph unicode="&#x134;" horiz-adv-x="419" d="M5 1760.5q0 31.5 33 123t81.5 173.5t83.5 82t83.5 -157t48.5 -238q0 -24 -18.5 -40.5t-41.5 -16.5q-55 1 -77 189q-10 86 -13 97q0 -6 -15.5 -48.5t-27 -74.5t-23 -58t-24 -50t-24.5 -37.5t-25.5 -13.5t-27 19t-13.5 50.5zM23 1481q0 72 245 72h26q92 0 92 -54.5 t-85 -54.5l-6 1h-28v-16q0 -53 12 -158.5t12 -198.5t18.5 -358.5t18.5 -398.5l-1 -163q0 -121 -50.5 -216.5t-147.5 -129.5q-32 0 -53 16t-21 44t25.5 51t54.5 35q28 36 55 116t27 173l1 284q0 594 -54 920q-7 -1 -27 -6q-40 -10 -61.5 -10t-37 15.5t-15.5 36.5z" />
<glyph unicode="&#x135;" horiz-adv-x="520" d="M19 -174q0 19 36 48q51 41 126 80q59 70 59 233l-18 1046l-5 9q-22 0 -60 7t-49 12q-12 5 -24 12q-24 14 -24 36.5t23 36t54.5 13.5t111.5 -10t161.5 -36.5t81.5 -59.5q0 -22 -16.5 -35t-38.5 -13t-60 9.5t-45 10.5l-1 -17l21 -826v-224q-25 -42 -39 -147 q-15 -105 -31 -155q-36 -110 -176 -110h-24l-61 61zM108 1553.5q0 31.5 33 123t81.5 173.5t83.5 82t83.5 -157t48.5 -238q0 -24 -18.5 -40.5t-41.5 -16.5q-55 1 -77 189q-10 86 -13 97q0 -6 -15.5 -48.5t-27 -74.5t-23 -58t-24 -50t-24.5 -37.5t-25.5 -13.5t-27 19 t-13.5 50.5z" />
<glyph unicode="&#x138;" horiz-adv-x="637" d="M66 34v622q0 111 19.5 331.5t19.5 330.5q18 39 52.5 39t53 -18.5t18.5 -44.5v-6q-27 -47 -27 -373v-73q3 5 75 150q175 352 216 352q30 0 54.5 -14t24.5 -41q0 -2 -49 -82q-151 -247 -171 -288l-4 -122q0 -88 70.5 -329t117.5 -319q6 -9 26.5 -37t30 -49t9.5 -44 t-17.5 -38.5t-40.5 -15.5q-48 0 -100 101.5t-92 248.5q-69 251 -102 437q-74 -147 -74 -356v-379q0 -48 -42 -48q-31 0 -49.5 17.5t-18.5 47.5z" />
<glyph unicode="&#x143;" horiz-adv-x="737" d="M67 812v261l14 376v13q0 102 45 102q41 0 110 -190q126 -345 302 -1139l2 -10l8 714v606q12 51 67 51t55 -80v-12q-12 -25 -12 -60l-13 -757v-626q0 -31 -17 -61t-42 -30q-43 0 -168 421.5t-247 906.5v-672q0 -98 14.5 -292t14.5 -292q0 -19 -23 -31.5t-58.5 -12.5 t-35.5 32l10 147q0 106 -13 344t-13 291z" />
<glyph unicode="&#x144;" horiz-adv-x="827" d="M64 829l12 382q0 95 75 151v-13q8 5 15 5q48 0 120 -165.5t130 -363.5t115.5 -399.5t71.5 -236.5q41 429 41 1039l-3 55q0 61 51 61q29 0 43.5 -24t14.5 -56v-155q-2 -241 -21.5 -643.5t-52.5 -454.5q-56 -17 -77.5 -17t-33 14.5t-18.5 44.5t-12 40l1 9q0 76 -147 483 t-213 560v-1031q2 -4 8 -14q13 -22 13 -41t-18.5 -38t-43.5 -19q-67 0 -67 125z" />
<glyph unicode="&#x147;" horiz-adv-x="737" d="M67 812v261l14 376v13q0 102 45 102q41 0 110 -190q126 -345 302 -1139l2 -10l8 714v606q12 51 67 51t55 -80v-12q-12 -25 -12 -60l-13 -757v-626q0 -31 -17 -61t-42 -30q-43 0 -168 421.5t-247 906.5v-672q0 -98 14.5 -292t14.5 -292q0 -19 -23 -31.5t-58.5 -12.5 t-35.5 32l10 147q0 106 -13 344t-13 291zM158 2087q0 16 15 27.5t34 11.5q43 0 101 -211l27 -94q4 22 9 69t10 84q6 37 14 76q18 83 57 83q18 0 30.5 -11.5t12.5 -31.5l-15 -31v-37l-29 -112q-29 -112 -29 -146q0 -66 -52 -66q-40 0 -112.5 166t-72.5 223z" />
<glyph unicode="&#x148;" horiz-adv-x="827" d="M64 829l12 382q0 95 75 151v-13q8 5 15 5q48 0 120 -165.5t130 -363.5t115.5 -399.5t71.5 -236.5q41 429 41 1039l-3 55q0 61 51 61q29 0 43.5 -24t14.5 -56v-155q-2 -241 -21.5 -643.5t-52.5 -454.5q-56 -17 -77.5 -17t-33 14.5t-18.5 44.5t-12 40l1 9q0 76 -147 483 t-213 560v-1031q2 -4 8 -14q13 -22 13 -41t-18.5 -38t-43.5 -19q-67 0 -67 125zM197 1869q0 16 15 27.5t34 11.5q43 0 101 -211l27 -94q4 22 9 69t10 84q6 37 14 76q18 83 57 83q18 0 30.5 -11.5t12.5 -31.5l-15 -31v-37l-29 -112q-29 -112 -29 -146q0 -66 -52 -66 q-40 0 -112.5 166t-72.5 223z" />
<glyph unicode="&#x14c;" horiz-adv-x="650" d="M48 1743q0 44 90 44l144 4q208 0 208 -55q0 -45 -66 -45l-148 -4q-228 0 -228 56zM54 974v46.5v54.5q1 59 3.5 106t9 101.5t16.5 96t27 81.5q18 41 40 67q50 58 115 58t111 -23.5t77.5 -75.5t55 -101t37 -136.5t21.5 -141.5q8 -55 11 -157q4 -137 4 -214v-118l-18 -259 v-9q-13 -57 -13 -123t-23 -127.5t-70 -109t-103 -47.5t-102 38t-76 97.5t-53 142t-35.5 161t-20.5 165.5q-12 133 -11.5 206.5t-0.5 126t-2 94.5zM149 852q0 -137 21 -295.5t43.5 -259.5t60.5 -171.5t85 -70.5q41 0 69 77q28 78 40 192q20 204 20.5 286.5t0 120.5t-3 110.5 t-8.5 136t-15.5 140.5t-25 137t-36 112.5t-51 81t-60.5 28.5t-49.5 -21t-33 -59.5t-24 -82.5t-16 -101.5t-9.5 -104.5q-3 -46 -5 -102q-2 -93 -3 -145v-9z" />
<glyph unicode="&#x14d;" horiz-adv-x="651" d="M50 714v37q0 322 37 458q31 115 60 142t57 27q238 0 328 -240q52 -138 52 -340v-15l4 -232q0 -589 -273 -589q-113 0 -173 125q-57 120 -70 236q-21 175 -21 303l2 78q0 10 -3 10zM56 1536q0 44 90 44l144 4q208 0 208 -55q0 -45 -66 -45l-148 -4q-228 0 -228 56z M162 717q0 -297 48 -518q51 -129 97 -152q37 0 67 30t47.5 80.5t29.5 106.5q11 55 17 118q10 109 10 186t-13.5 236t-13.5 237v36q-2 75 -49 133.5t-120 58.5q-70 0 -93 -79q-19 -66 -19 -163l2 -121z" />
<glyph unicode="&#x14e;" horiz-adv-x="650" d="M54 974v46.5v54.5q1 59 3.5 106t9 101.5t16.5 96t27 81.5q18 41 40 67q50 58 115 58t111 -23.5t77.5 -75.5t55 -101t37 -136.5t21.5 -141.5q8 -55 11 -157q4 -137 4 -214v-118l-18 -259v-9q-13 -57 -13 -123t-23 -127.5t-70 -109t-103 -47.5t-102 38t-76 97.5t-53 142 t-35.5 161t-20.5 165.5q-12 133 -11.5 206.5t-0.5 126t-2 94.5zM87 1920v10l38 32q46 0 60 -75q15 -81 48 -105h44q14 0 30 32t16 52t1 31t6 26.5t17.5 22.5t33.5 7t37.5 -15.5t16.5 -28.5t-8 -41l4 -16v-1q-52 -133 -108 -154q-26 -10 -75 -10t-89 37q-72 65 -72 196z M149 852q0 -137 21 -295.5t43.5 -259.5t60.5 -171.5t85 -70.5q41 0 69 77q28 78 40 192q20 204 20.5 286.5t0 120.5t-3 110.5t-8.5 136t-15.5 140.5t-25 137t-36 112.5t-51 81t-60.5 28.5t-49.5 -21t-33 -59.5t-24 -82.5t-16 -101.5t-9.5 -104.5q-3 -46 -5 -102 q-2 -93 -3 -145v-9z" />
<glyph unicode="&#x14f;" horiz-adv-x="651" d="M50 714v37q0 322 37 458q31 115 60 142t57 27q238 0 328 -240q52 -138 52 -340v-15l4 -232q0 -589 -273 -589q-113 0 -173 125q-57 120 -70 236q-21 175 -21 303l2 78q0 10 -3 10zM95 1713v10l38 32q46 0 60 -75q15 -81 48 -105h44q14 0 30 32t16 52t1 31t6 26.5 t17.5 22.5t33.5 7t37.5 -15.5t16.5 -28.5t-8 -41l4 -16v-1q-52 -133 -108 -154q-26 -10 -75 -10t-89 37q-72 65 -72 196zM162 717q0 -297 48 -518q51 -129 97 -152q37 0 67 30t47.5 80.5t29.5 106.5q11 55 17 118q10 109 10 186t-13.5 236t-13.5 237v36q-2 75 -49 133.5 t-120 58.5q-70 0 -93 -79q-19 -66 -19 -163l2 -121z" />
<glyph unicode="&#x154;" horiz-adv-x="548" d="M78 44v16l8 1201v252q0 24 10 34t52.5 10t86 -20.5t73.5 -54.5q29 -36 50 -80q40 -85 40 -185t-50 -229q-6 -14 -24 -59t-21 -53q1 -152 77 -395q26 -82 74 -224.5t60 -180.5v-5q0 -69 -16 -80.5t-34 -11.5q-38 0 -74 55v7q-10 186 -128 563q-54 172 -75 255v-807 q0 -31 -11 -48t-40 -17t-43.5 16.5t-14.5 40.5zM180 1045q0 -63 2 -94q35 33 69 79l32 177q3 14 3 32q0 49 -20 119q-28 96 -75 105z" />
<glyph unicode="&#x155;" horiz-adv-x="504" d="M63 1268q0 97 68 97q107 0 180 -56t73 -160v-144q0 -59 -22 -107.5t-51 -102t-32 -59.5q11 -50 39 -196q60 -319 133 -459q21 -40 21 -62.5t-12.5 -38t-33.5 -15.5q-43 0 -82.5 98.5t-63.5 218.5q-73 367 -89 404h-25l-2 -222q0 -271 39 -427l-23 -55h-57l-27 30 q2 92 2 206.5t-17.5 489.5t-17.5 560zM167 1260q0 -84 4 -242.5t4 -230.5q48 25 77.5 130.5t29.5 161.5t-3 82.5t-13 58.5q-20 66 -92 69z" />
<glyph unicode="&#x156;" horiz-adv-x="548" d="M78 44v16l8 1201v252q0 24 10 34t52.5 10t86 -20.5t73.5 -54.5q29 -36 50 -80q40 -85 40 -185t-50 -229q-6 -14 -24 -59t-21 -53q1 -152 77 -395q26 -82 74 -224.5t60 -180.5v-5q0 -69 -16 -80.5t-34 -11.5q-38 0 -74 55v7q-10 186 -128 563q-54 172 -75 255v-807 q0 -31 -11 -48t-40 -17t-43.5 16.5t-14.5 40.5zM180 1045q0 -63 2 -94q35 33 69 79l32 177q3 14 3 32q0 49 -20 119q-28 96 -75 105z" />
<glyph unicode="&#x157;" horiz-adv-x="504" d="M63 1268q0 97 68 97q107 0 180 -56t73 -160v-144q0 -59 -22 -107.5t-51 -102t-32 -59.5q11 -50 39 -196q60 -319 133 -459q21 -40 21 -62.5t-12.5 -38t-33.5 -15.5q-43 0 -82.5 98.5t-63.5 218.5q-73 367 -89 404h-25l-2 -222q0 -271 39 -427l-23 -55h-57l-27 30 q2 92 2 206.5t-17.5 489.5t-17.5 560zM167 1260q0 -84 4 -242.5t4 -230.5q48 25 77.5 130.5t29.5 161.5t-3 82.5t-13 58.5q-20 66 -92 69z" />
<glyph unicode="&#x158;" horiz-adv-x="548" d="M44 2076q0 16 15 27.5t34 11.5q43 0 101 -211l27 -94q4 22 9 69t10 84q6 37 14 76q18 83 57 83q18 0 30.5 -11.5t12.5 -31.5l-15 -31v-37l-29 -112q-29 -112 -29 -146q0 -66 -52 -66q-40 0 -112.5 166t-72.5 223zM78 44v16l8 1201v252q0 24 10 34t52.5 10t86 -20.5 t73.5 -54.5q29 -36 50 -80q40 -85 40 -185t-50 -229q-6 -14 -24 -59t-21 -53q1 -152 77 -395q26 -82 74 -224.5t60 -180.5v-5q0 -69 -16 -80.5t-34 -11.5q-38 0 -74 55v7q-10 186 -128 563q-54 172 -75 255v-807q0 -31 -11 -48t-40 -17t-43.5 16.5t-14.5 40.5zM180 1045 q0 -63 2 -94q35 33 69 79l32 177q3 14 3 32q0 49 -20 119q-28 96 -75 105z" />
<glyph unicode="&#x159;" horiz-adv-x="504" d="M39 1869q0 16 15 27.5t34 11.5q43 0 101 -211l27 -94q4 22 9 69t10 84q6 37 14 76q18 83 57 83q18 0 30.5 -11.5t12.5 -31.5l-15 -31v-37l-29 -112q-29 -112 -29 -146q0 -66 -52 -66q-40 0 -112.5 166t-72.5 223zM63 1268q0 97 68 97q107 0 180 -56t73 -160v-144 q0 -59 -22 -107.5t-51 -102t-32 -59.5q11 -50 39 -196q60 -319 133 -459q21 -40 21 -62.5t-12.5 -38t-33.5 -15.5q-43 0 -82.5 98.5t-63.5 218.5q-73 367 -89 404h-25l-2 -222q0 -271 39 -427l-23 -55h-57l-27 30q2 92 2 206.5t-17.5 489.5t-17.5 560zM167 1260 q0 -84 4 -242.5t4 -230.5q48 25 77.5 130.5t29.5 161.5t-3 82.5t-13 58.5q-20 66 -92 69z" />
<glyph unicode="&#x15a;" horiz-adv-x="523" d="M38 24q0 55 46 55q23 0 60.5 -15.5t65 -15.5t59.5 35t50 87q37 106 37 191.5t-30 183.5t-73 184t-87 172q-104 205 -103 374q-1 160 101 251q54 48 127 48q37 0 72 -20.5t49 -53.5l-35 -44q-51 0 -80 20q-38 -4 -66 -36q-51 -59 -51 -145.5t22 -168.5t55 -147t71 -141 q39 -76 72 -146q77 -162 77 -350q1 -132 -67 -254q-32 -58 -88 -95.5t-125 -37.5q-74 0 -116.5 22t-42.5 47z" />
<glyph unicode="&#x15b;" horiz-adv-x="445" d="M49 51l23 35l85 -15q39 0 68 34t43 85q27 98 27 173.5t-25 149.5t-61.5 137.5t-72.5 129.5q-86 156 -86 306q0 92 31 163q58 132 154 132q36 0 68.5 -23t32.5 -50q0 -47 -50 -47q-22 0 -43 12q-65 -3 -88 -145q-5 -31 -5 -72.5t18 -102.5t45.5 -108.5t59 -105 t59.5 -111.5q64 -125 63 -286q1 -124 -57 -237q-28 -56 -79.5 -91.5t-117.5 -36.5v-5q-84 12 -92 79z" />
<glyph unicode="&#x15d;" horiz-adv-x="445" d="M-8 1556.5q0 31.5 33 123t81.5 173.5t83.5 82t83.5 -157t48.5 -238q0 -24 -18.5 -40.5t-41.5 -16.5q-55 1 -77 189q-10 86 -13 97q0 -6 -15.5 -48.5t-27 -74.5t-23 -58t-24 -50t-24.5 -37.5t-25.5 -13.5t-27 19t-13.5 50.5zM49 51l23 35l85 -15q39 0 68 34t43 85 q27 98 27 173.5t-25 149.5t-61.5 137.5t-72.5 129.5q-86 156 -86 306q0 92 31 163q58 132 154 132q36 0 68.5 -23t32.5 -50q0 -47 -50 -47q-22 0 -43 12q-65 -3 -88 -145q-5 -31 -5 -72.5t18 -102.5t45.5 -108.5t59 -105t59.5 -111.5q64 -125 63 -286q1 -124 -57 -237 q-28 -56 -79.5 -91.5t-117.5 -36.5v-5q-84 12 -92 79z" />
<glyph unicode="&#x15e;" horiz-adv-x="523" d="M38 24q0 55 46 55q23 0 60.5 -15.5t65 -15.5t59.5 35t50 87q37 106 37 191.5t-30 183.5t-73 184t-87 172q-104 205 -103 374q-1 160 101 251q54 48 127 48q37 0 72 -20.5t49 -53.5l-35 -44q-51 0 -80 20q-38 -4 -66 -36q-51 -59 -51 -145.5t22 -168.5t55 -147t71 -141 q39 -76 72 -146q77 -162 77 -350q1 -132 -67 -254q-32 -58 -88 -95.5t-125 -37.5q-74 0 -116.5 22t-42.5 47z" />
<glyph unicode="&#x15f;" horiz-adv-x="445" d="M49 51l23 35l85 -15q39 0 68 34t43 85q27 98 27 173.5t-25 149.5t-61.5 137.5t-72.5 129.5q-86 156 -86 306q0 92 31 163q58 132 154 132q36 0 68.5 -23t32.5 -50q0 -47 -50 -47q-22 0 -43 12q-65 -3 -88 -145q-5 -31 -5 -72.5t18 -102.5t45.5 -108.5t59 -105 t59.5 -111.5q64 -125 63 -286q1 -124 -57 -237q-28 -56 -79.5 -91.5t-117.5 -36.5v-5q-84 12 -92 79z" />
<glyph unicode="&#x160;" horiz-adv-x="523" d="M11 2076q0 16 15 27.5t34 11.5q43 0 101 -211l27 -94q4 22 9 69t10 84q6 37 14 76q18 83 57 83q18 0 30.5 -11.5t12.5 -31.5l-15 -31v-37l-29 -112q-29 -112 -29 -146q0 -66 -52 -66q-40 0 -112.5 166t-72.5 223zM38 24q0 55 46 55q23 0 60.5 -15.5t65 -15.5t59.5 35 t50 87q37 106 37 191.5t-30 183.5t-73 184t-87 172q-104 205 -103 374q-1 160 101 251q54 48 127 48q37 0 72 -20.5t49 -53.5l-35 -44q-51 0 -80 20q-38 -4 -66 -36q-51 -59 -51 -145.5t22 -168.5t55 -147t71 -141q39 -76 72 -146q77 -162 77 -350q1 -132 -67 -254 q-32 -58 -88 -95.5t-125 -37.5q-74 0 -116.5 22t-42.5 47z" />
<glyph unicode="&#x161;" horiz-adv-x="445" d="M-14 1872q0 16 15 27.5t34 11.5q43 0 101 -211l27 -94q4 22 9 69t10 84q6 37 14 76q18 83 57 83q18 0 30.5 -11.5t12.5 -31.5l-15 -31v-37l-29 -112q-29 -112 -29 -146q0 -66 -52 -66q-40 0 -112.5 166t-72.5 223zM49 51l23 35l85 -15q39 0 68 34t43 85q27 98 27 173.5 t-25 149.5t-61.5 137.5t-72.5 129.5q-86 156 -86 306q0 92 31 163q58 132 154 132q36 0 68.5 -23t32.5 -50q0 -47 -50 -47q-22 0 -43 12q-65 -3 -88 -145q-5 -31 -5 -72.5t18 -102.5t45.5 -108.5t59 -105t59.5 -111.5q64 -125 63 -286q1 -124 -57 -237q-28 -56 -79.5 -91.5 t-117.5 -36.5v-5q-84 12 -92 79z" />
<glyph unicode="&#x162;" horiz-adv-x="492" d="M21 1468.5q0 24.5 49 41.5q50 18 120 26q123 14 207 14q25 0 45.5 -16.5t20.5 -41.5t-18 -39.5t-44 -14.5l-73 4q-14 0 -21 -1q14 -118 14 -252l-4 -264l18 -471l17 -368q0 -100 -59 -100q-34 0 -50 32t-16 71l16 327q0 106 -14 319t-14 319l3 179q0 147 -19 191 l-111 -11q-26 0 -46.5 15.5t-20.5 40z" />
<glyph unicode="&#x163;" horiz-adv-x="493" d="M23 1316q0 19 22 31.5t43 12.5l278 -19l33 1q64 0 64 -49q0 -25 -21 -40.5t-47 -15.5l-94 14l-4 -21q0 -194 34 -581t34 -582q0 -24 -22 -42.5t-48 -18.5l-38 27l-4 157q0 1 3 70q-8 26 -32.5 462t-26.5 533h-8q-166 3 -166 61z" />
<glyph unicode="&#x164;" horiz-adv-x="492" d="M21 1468.5q0 24.5 49 41.5q50 18 120 26q123 14 207 14q25 0 45.5 -16.5t20.5 -41.5t-18 -39.5t-44 -14.5l-73 4q-14 0 -21 -1q14 -118 14 -252l-4 -264l18 -471l17 -368q0 -100 -59 -100q-34 0 -50 32t-16 71l16 327q0 106 -14 319t-14 319l3 179q0 147 -19 191 l-111 -11q-26 0 -46.5 15.5t-20.5 40zM59 2076q0 16 15 27.5t34 11.5q43 0 101 -211l27 -94q4 22 9 69t10 84q6 37 14 76q18 83 57 83q18 0 30.5 -11.5t12.5 -31.5l-15 -31v-37l-29 -112q-29 -112 -29 -146q0 -66 -52 -66q-40 0 -112.5 166t-72.5 223z" />
<glyph unicode="&#x165;" horiz-adv-x="493" d="M23 1316q0 19 22 31.5t43 12.5l278 -19l33 1q64 0 64 -49q0 -25 -21 -40.5t-47 -15.5l-94 14l-4 -21q0 -194 34 -581t34 -582q0 -24 -22 -42.5t-48 -18.5l-38 27l-4 157q0 1 3 70q-8 26 -32.5 462t-26.5 533h-8q-166 3 -166 61zM59 1896q0 16 15 27.5t34 11.5 q43 0 101 -211l27 -94q4 22 9 69t10 84q6 37 14 76q18 83 57 83q18 0 30.5 -11.5t12.5 -31.5l-15 -31v-37l-29 -112q-29 -112 -29 -146q0 -66 -52 -66q-40 0 -112.5 166t-72.5 223z" />
<glyph unicode="&#x168;" horiz-adv-x="699" d="M39 1477q0 25 17.5 44t41.5 19q74 0 74 -146l19 -712q12 -27 20.5 -109t8.5 -127.5t14.5 -112t40 -134.5t69 -116t82.5 -48t58 18.5t26 52.5q11 54 11 113v400q0 65 -13 193t-13 193v14l-4 119l-15 351q0 25 25 40.5t52 15.5l50 -48v-34l-15 -125q0 -171 18.5 -515 t18.5 -465.5t-3.5 -162t-15.5 -86.5t-33 -76q-49 -70 -150 -70q-125 -1 -201 109q-80 116 -112 278q-38 191 -46 335q-12 217 -12 430l2 320q-15 17 -15 42zM67 1764q0 39 40 74t108 35q25 0 89 -41.5t84 -41.5t30.5 13t13.5 28t14 28t37.5 13t43.5 -16t17 -37 q0 -53 -39.5 -92.5t-93 -39.5t-89.5 14q-34 14 -48 30q-36 44 -80 43q-29 -11 -24 -39t-29 -40q-31 0 -52.5 15t-21.5 54z" />
<glyph unicode="&#x169;" horiz-adv-x="641" d="M53 1568q0 39 40 74t108 35q25 0 89 -41.5t84 -41.5t30.5 13t13.5 28t14 28t37.5 13t43.5 -16t17 -37q0 -53 -39.5 -92.5t-93 -39.5t-89.5 14q-34 14 -48 30q-36 44 -80 43q-29 -11 -24 -39t-29 -40q-31 0 -52.5 15t-21.5 54zM54 1306q19 43 43.5 43t43.5 -37.5t19 -79.5 v-557q0 -73 14.5 -217t14.5 -217q0 -150 130 -150q146 0 146 1101v115l-1 34q0 24 11 36t38.5 12t41.5 -9q13 -8 19 -24q8 -25 9 -66l-14 -206l-9 -171l2 -35q0 -909 -264 -909q-102 -1 -151 83q-51 86 -62 171q-17 131 -19.5 300.5t-2.5 489.5z" />
<glyph unicode="&#x16a;" horiz-adv-x="699" d="M39 1477q0 25 17.5 44t41.5 19q74 0 74 -146l19 -712q12 -27 20.5 -109t8.5 -127.5t14.5 -112t40 -134.5t69 -116t82.5 -48t58 18.5t26 52.5q11 54 11 113v400q0 65 -13 193t-13 193v14l-4 119l-15 351q0 25 25 40.5t52 15.5l50 -48v-34l-15 -125q0 -171 18.5 -515 t18.5 -465.5t-3.5 -162t-15.5 -86.5t-33 -76q-49 -70 -150 -70q-125 -1 -201 109q-80 116 -112 278q-38 191 -46 335q-12 217 -12 430l2 320q-15 17 -15 42zM117 1743q0 44 90 44l144 4q208 0 208 -55q0 -45 -66 -45l-148 -4q-228 0 -228 56z" />
<glyph unicode="&#x16b;" horiz-adv-x="641" d="M54 1306q19 43 43.5 43t43.5 -37.5t19 -79.5v-557q0 -73 14.5 -217t14.5 -217q0 -150 130 -150q146 0 146 1101v115l-1 34q0 24 11 36t38.5 12t41.5 -9q13 -8 19 -24q8 -25 9 -66l-14 -206l-9 -171l2 -35q0 -909 -264 -909q-102 -1 -151 83q-51 86 -62 171 q-17 131 -19.5 300.5t-2.5 489.5zM102 1547q0 44 90 44l144 4q208 0 208 -55q0 -45 -66 -45l-148 -4q-228 0 -228 56z" />
<glyph unicode="&#x16c;" horiz-adv-x="699" d="M39 1477q0 25 17.5 44t41.5 19q74 0 74 -146l19 -712q12 -27 20.5 -109t8.5 -127.5t14.5 -112t40 -134.5t69 -116t82.5 -48t58 18.5t26 52.5q11 54 11 113v400q0 65 -13 193t-13 193v14l-4 119l-15 351q0 25 25 40.5t52 15.5l50 -48v-34l-15 -125q0 -171 18.5 -515 t18.5 -465.5t-3.5 -162t-15.5 -86.5t-33 -76q-49 -70 -150 -70q-125 -1 -201 109q-80 116 -112 278q-38 191 -46 335q-12 217 -12 430l2 320q-15 17 -15 42zM125 1920v10l38 32q46 0 60 -75q15 -81 48 -105h44q14 0 30 32t16 52t1 31t6 26.5t17.5 22.5t33.5 7t37.5 -15.5 t16.5 -28.5t-8 -41l4 -16v-1q-52 -133 -108 -154q-26 -10 -75 -10t-89 37q-72 65 -72 196z" />
<glyph unicode="&#x16d;" horiz-adv-x="641" d="M54 1306q19 43 43.5 43t43.5 -37.5t19 -79.5v-557q0 -73 14.5 -217t14.5 -217q0 -150 130 -150q146 0 146 1101v115l-1 34q0 24 11 36t38.5 12t41.5 -9q13 -8 19 -24q8 -25 9 -66l-14 -206l-9 -171l2 -35q0 -909 -264 -909q-102 -1 -151 83q-51 86 -62 171 q-17 131 -19.5 300.5t-2.5 489.5zM111 1724v10l38 32q46 0 60 -75q15 -81 48 -105h44q14 0 30 32t16 52t1 31t6 26.5t17.5 22.5t33.5 7t37.5 -15.5t16.5 -28.5t-8 -41l4 -16v-1q-52 -133 -108 -154q-26 -10 -75 -10t-89 37q-72 65 -72 196z" />
<glyph unicode="&#x16e;" horiz-adv-x="699" d="M33 1990.5q0 93.5 63.5 161t168.5 67.5q97 0 144 -23t70.5 -42.5t37.5 -40.5q14 -22 24 -46q18 -43 18 -78.5t-7 -69.5t-27 -76q-19 -42 -50 -76q-74 -80 -210 -80q-150 0 -205 141q-27 69 -27 162.5zM39 1477q0 25 17.5 44t41.5 19q74 0 74 -146l19 -712 q12 -27 20.5 -109t8.5 -127.5t14.5 -112t40 -134.5t69 -116t82.5 -48t58 18.5t26 52.5q11 54 11 113v400q0 65 -13 193t-13 193v14l-4 119l-15 351q0 25 25 40.5t52 15.5l50 -48v-34l-15 -125q0 -171 18.5 -515t18.5 -465.5t-3.5 -162t-15.5 -86.5t-33 -76q-49 -70 -150 -70 q-125 -1 -201 109q-80 116 -112 278q-38 191 -46 335q-12 217 -12 430l2 320q-15 17 -15 42zM109 1914q0 -48 50.5 -99t104 -51t89 11.5t58.5 30.5t40 41q16 22 24 48q16 51 16 77.5t-6 48t-21 45.5t-38 42t-62.5 30t-87.5 12t-82 -21q-33 -21 -51 -57q-34 -69 -34 -158z " />
<glyph unicode="&#x16f;" horiz-adv-x="641" d="M19 1794.5q0 93.5 63.5 161t168.5 67.5q97 0 144 -23t70.5 -42.5t37.5 -40.5q14 -22 24 -46q18 -43 18 -78.5t-7 -69.5t-27 -76q-19 -42 -50 -76q-74 -80 -210 -80q-150 0 -205 141q-27 69 -27 162.5zM54 1306q19 43 43.5 43t43.5 -37.5t19 -79.5v-557q0 -73 14.5 -217 t14.5 -217q0 -150 130 -150q146 0 146 1101v115l-1 34q0 24 11 36t38.5 12t41.5 -9q13 -8 19 -24q8 -25 9 -66l-14 -206l-9 -171l2 -35q0 -909 -264 -909q-102 -1 -151 83q-51 86 -62 171q-17 131 -19.5 300.5t-2.5 489.5zM95 1718q0 -48 50.5 -99t104 -51t89 11.5 t58.5 30.5t40 41q16 22 24 48q16 51 16 77.5t-6 48t-21 45.5t-38 42t-62.5 30t-87.5 12t-82 -21q-33 -21 -51 -57q-34 -69 -34 -158z" />
<glyph unicode="&#x172;" horiz-adv-x="699" d="M39 1477q0 25 17.5 44t41.5 19q74 0 74 -146l19 -712q12 -27 20.5 -109t8.5 -127.5t14.5 -112t40 -134.5t69 -116t82.5 -48t58 18.5t26 52.5q11 54 11 113v400q0 65 -13 193t-13 193v14l-4 119l-15 351q0 25 25 40.5t52 15.5l50 -48v-34l-15 -125q0 -171 18.5 -515 t18.5 -465.5t-3.5 -162t-15.5 -86.5t-33 -76q-49 -70 -150 -70q-125 -1 -201 109q-80 116 -112 278q-38 191 -46 335q-12 217 -12 430l2 320q-15 17 -15 42zM273 -264q0 82 56 156t136 123l55 -27q-12 -8 -31.5 -25.5t-37.5 -33t-24.5 -22.5t-21 -22.5t-21 -25.5t-16.5 -26 t-14 -28q-11 -34 -11 -72.5t27 -38.5q40 0 86 33l14 -34q0 -27 -38 -45.5t-74 -18.5t-60.5 32t-24.5 75z" />
<glyph unicode="&#x173;" horiz-adv-x="641" d="M54 1306q19 43 43.5 43t43.5 -37.5t19 -79.5v-557q0 -73 14.5 -217t14.5 -217q0 -150 130 -150q146 0 146 1101v115l-1 34q0 24 11 36t38.5 12t41.5 -9q13 -8 19 -24q8 -25 9 -66l-14 -206l-9 -171l2 -35q0 -909 -264 -909q-102 -1 -151 83q-51 86 -62 171 q-17 131 -19.5 300.5t-2.5 489.5zM87 -276q0 82 56 156t136 123l55 -27q-12 -8 -31.5 -25.5t-37.5 -33t-24.5 -22.5t-21 -22.5t-21 -25.5t-16.5 -26t-14 -28q-11 -34 -11 -72.5t27 -38.5q40 0 86 33l14 -34q0 -27 -38 -45.5t-74 -18.5t-60.5 32t-24.5 75z" />
<glyph unicode="&#x178;" horiz-adv-x="453" d="M25 1513q0 15 17.5 25.5t36.5 10.5t40.5 -47t39.5 -120t33.5 -146t28.5 -141.5t19 -88.5q4 18 9.5 85.5t12.5 138.5q8 72 20 144q27 165 81.5 165t54.5 -22q0 -115 -49 -343t-49 -346l-6 -71v-31l11 -543l7 -102v-46q0 -27 -20.5 -43.5t-44.5 -16.5t-39.5 14.5 t-15.5 35.5l10 396q0 60 -19.5 177.5t-19.5 189t-24.5 174t-54.5 184.5q-79 215 -79 367z" />
<glyph unicode="&#x179;" horiz-adv-x="429" d="M34 31q47 75 105.5 389.5t96 607.5t45.5 423q-70 -10 -117 -10q-111 0 -111 65v9l28 34v1q27 -7 58 -7l193 21q24 0 40 -17.5t16 -41.5q0 -536 -227 -1420l108 8q108 0 108 -63v-9l-32 -32l-253 -8q-39 0 -58 50z" />
<glyph unicode="&#x17a;" horiz-adv-x="493" d="M41 57q0 183 138 638t165 561l-167 -12q-22 0 -37.5 17.5t-15.5 39.5q0 58 225 58q101 0 101 -57q0 -72 -44.5 -195.5t-52.5 -173.5q-26 -163 -107 -475t-89 -353h35l86 6v1q83 0 83 -50q0 -25 -22 -37.5t-49 -12.5l-121 6q-13 0 -36 -11t-40.5 -11t-34.5 13.5t-17 47.5z " />
<glyph unicode="&#x17b;" horiz-adv-x="429" d="M34 31q47 75 105.5 389.5t96 607.5t45.5 423q-70 -10 -117 -10q-111 0 -111 65v9l28 34v1q27 -7 58 -7l193 21q24 0 40 -17.5t16 -41.5q0 -536 -227 -1420l108 8q108 0 108 -63v-9l-32 -32l-253 -8q-39 0 -58 50zM166 1761.5q0 29.5 23 53.5t53 24t52 -24t22 -55.5 t-23 -52t-54.5 -20.5t-52 22.5t-20.5 52z" />
<glyph unicode="&#x17c;" horiz-adv-x="493" d="M41 57q0 183 138 638t165 561l-167 -12q-22 0 -37.5 17.5t-15.5 39.5q0 58 225 58q101 0 101 -57q0 -72 -44.5 -195.5t-52.5 -173.5q-26 -163 -107 -475t-89 -353h35l86 6v1q83 0 83 -50q0 -25 -22 -37.5t-49 -12.5l-121 6q-13 0 -36 -11t-40.5 -11t-34.5 13.5t-17 47.5z M216 1554.5q0 29.5 23 53.5t53 24t52 -24t22 -55.5t-23 -52t-54.5 -20.5t-52 22.5t-20.5 52z" />
<glyph unicode="&#x17d;" horiz-adv-x="429" d="M34 31q47 75 105.5 389.5t96 607.5t45.5 423q-70 -10 -117 -10q-111 0 -111 65v9l28 34v1q27 -7 58 -7l193 21q24 0 40 -17.5t16 -41.5q0 -536 -227 -1420l108 8q108 0 108 -63v-9l-32 -32l-253 -8q-39 0 -58 50zM77 2076q0 16 15 27.5t34 11.5q43 0 101 -211l27 -94 q4 22 9 69t10 84q6 37 14 76q18 83 57 83q18 0 30.5 -11.5t12.5 -31.5l-15 -31v-37l-29 -112q-29 -112 -29 -146q0 -66 -52 -66q-40 0 -112.5 166t-72.5 223z" />
<glyph unicode="&#x17e;" horiz-adv-x="493" d="M41 57q0 183 138 638t165 561l-167 -12q-22 0 -37.5 17.5t-15.5 39.5q0 58 225 58q101 0 101 -57q0 -72 -44.5 -195.5t-52.5 -173.5q-26 -163 -107 -475t-89 -353h35l86 6v1q83 0 83 -50q0 -25 -22 -37.5t-49 -12.5l-121 6q-13 0 -36 -11t-40.5 -11t-34.5 13.5t-17 47.5z M123 1869q0 16 15 27.5t34 11.5q43 0 101 -211l27 -94q4 22 9 69t10 84q6 37 14 76q18 83 57 83q18 0 30.5 -11.5t12.5 -31.5l-15 -31v-37l-29 -112q-29 -112 -29 -146q0 -66 -52 -66q-40 0 -112.5 166t-72.5 223z" />
<glyph unicode="&#x1f4;" horiz-adv-x="727" d="M51 862q0 198 13 284t26.5 141t31.5 97.5t44 82.5q26 41 60 67q73 58 167 57.5t94 -58.5q0 -22 -16 -35t-38 -13l-59 10q-77 -1 -121 -93q-47 -101 -60 -192t-19 -147q-8 -55 -10 -125q-4 -97 -3 -194l-1 -127q0 -196 17.5 -279t36.5 -132q18 -50 44 -82q85 -65 149 -73 q91 0 151 86q-3 182 -33 234l-80 -8q-70 0 -70 58q0 50 132 65q26 3 57 3t53 -32t22 -85.5t20.5 -174.5t20.5 -163q0 -75 -50.5 -75t-67.5 43v2q-12 -5 -45 -23q-62 -34 -123 -34q-44 0 -88 18q-94 37 -144 125q-54 93 -71 178t-23 134q-7 50 -11 114q-5 81 -5 195z" />
<glyph unicode="&#x1f5;" horiz-adv-x="638" d="M46 568v88q0 289 17 365.5t39 142.5t54 102q77 88 178 88t101 -52q0 -24 -20 -39.5t-45 -15.5l-43 5q-71 0 -107 -140q-52 -200 -52 -483q0 -193 12.5 -265.5t27.5 -121.5q14 -50 34 -80q47 -71 121 -71q99 0 99 326v94q-15 8 -48 8l-40 -1q-71 0 -71 47q0 29 20.5 44 t49.5 15v-1h28q184 0 184 -63l-22 -149l10 -217q0 -101 -70.5 -155.5t-164.5 -54.5q-142 0 -206 106q-46 75 -58 141.5t-17 102.5t-7 97q-4 85 -4 137z" />
<glyph unicode="&#x202;" d="M34 64q28 40 91 409t103.5 577.5t87.5 350.5t90 142t66 -18q0 -73 40 -395t40 -416.5t21.5 -314t21.5 -329.5q0 -69 -68 -69q-63 0 -63 53v267q-29 20 -104.5 34t-134.5 18q-21 -36 -34.5 -104t-28 -137t-38.5 -109q-80 0 -90 41zM238 464q85 -23 142.5 -23t81.5 6 q-3 41 -21 222.5t-32.5 346t-14.5 199t1 39.5q-32 -33 -92.5 -367t-64.5 -423zM243 1719q-1 93 27 146q50 97 136 97t127 -55q19 -25 55 -109l-5 -17q9 -31 9 -42.5t-16.5 -27t-44.5 -15.5q-51 0 -51 77q0 22 -14.5 58t-32.5 36h-43q-32 -23 -49 -105q-16 -75 -60 -75z" />
<glyph unicode="&#x203;" horiz-adv-x="621" d="M42 44l5 18q138 533 205 1038q2 14 6 82q10 150 38 191h69q28 0 49 -13t21 -39q0 -156 41.5 -463t41.5 -442l22 -126q0 -25 19.5 -122t19.5 -127v-2q0 -45 -34 -58q-43 0 -67 14t-24 54q0 87 -30 253l-202 30q-19 -68 -29 -149t-19 -118q-18 -76 -67 -76 q-24 0 -44.5 15.5t-20.5 39.5zM196 1512q-1 93 27 146q50 97 136 97t127 -55q19 -25 55 -109l-5 -17q9 -31 9 -42.5t-16.5 -27t-44.5 -15.5q-51 0 -51 77q0 22 -14.5 58t-32.5 36h-43q-32 -23 -49 -105q-16 -75 -60 -75zM230 408q35 -23 181 -33q-6 30 -6 104.5t-8.5 185 t-24.5 257t-22 212.5q-93 -515 -120 -726z" />
<glyph unicode="&#x206;" horiz-adv-x="457" d="M5 1719q-1 93 27 146q50 97 136 97t127 -55q19 -25 55 -109l-5 -17q9 -31 9 -42.5t-16.5 -27t-44.5 -15.5q-51 0 -51 77q0 22 -14.5 58t-32.5 36h-43q-32 -23 -49 -105q-16 -75 -60 -75zM62 1454v7q34 56 51 72l152 18q31 0 62.5 -18.5t31.5 -48.5q0 -61 -93 -61l-59 2 q-15 0 -22 -1l16 -338q0 -41 -5 -119.5t-5 -114.5q11 2 30 7q42 11 65.5 11t42 -17t18.5 -41t-15 -43t-39 -19l-51 2q-30 0 -42 -15v-632q105 6 114 6q117 0 117 -54v-7q-14 -28 -48 -43t-60 -17t-67 -2h-64q-76 0 -94 30q-8 14 -8 37v1190q0 35 -14 104t-14 105z" />
<glyph unicode="&#x207;" horiz-adv-x="455" d="M29 1512q-1 93 27 146q50 97 136 97t127 -55q19 -25 55 -109l-5 -17q9 -31 9 -42.5t-16.5 -27t-44.5 -15.5q-51 0 -51 77q0 22 -14.5 58t-32.5 36h-43q-32 -23 -49 -105q-16 -75 -60 -75zM72 436l14 598l-11 173q0 145 86 145q55 0 150 -25.5t95 -65.5q0 -42 -60 -64 q-95 32 -155 39q3 -44 3 -88l-9 -294q0 -2 6 -32l73 3q99 0 99 -56q0 -22 -18 -38.5t-45.5 -16.5t-59.5 4h-52q6 -78 6 -155l-9 -371q0 -115 4 -115l151 5q78 0 78 -50q0 -31 -27 -45t-61 -14h-173q-27 0 -49 18.5t-23 44.5v54z" />
<glyph unicode="&#x20a;" horiz-adv-x="432" d="M-27 1719q-1 93 27 146q50 97 136 97t127 -55q19 -25 55 -109l-5 -17q9 -31 9 -42.5t-16.5 -27t-44.5 -15.5q-51 0 -51 77q0 22 -14.5 58t-32.5 36h-43q-32 -23 -49 -105q-16 -75 -60 -75zM36 64q0 49 62 49l43 -3q30 0 30 48q0 158 -19 473.5t-19 473.5l4 209 q0 66 -5 114q-27 -9 -48 -9q-48 0 -48 49q0 25 31 43.5t77 26.5q86 15 127.5 15t59.5 -16.5t18 -39t-13.5 -39t-34.5 -16.5l-36 1q-20 0 -29.5 -8.5t-9.5 -33.5q0 -200 25 -599t25 -599v-79q21 3 42 3q85 0 85 -72v-12l-51 -35l-139 -5q-177 0 -177 61z" />
<glyph unicode="&#x20b;" horiz-adv-x="499" d="M25 1309q0 47 101 47h17q263 0 263 -83q0 -11 -12 -38l-70 -5l-35 12q8 -75 8 -170l-11 -391l15 -435l-3 -62l-2 1q0 -39 10 -54l16 -3l59 2q84 0 84 -51q0 -26 -20.5 -44.5t-47.5 -18.5l-68 7q-5 0 -31 -11.5t-57.5 -11.5t-52.5 20q-16 -2 -25 -2q-57 0 -76 37 q0 40 32 55l7 8h58l4 27l-14 435l11 456q0 115 -10 218l-39 2q-8 1 -24 -0.5t-34.5 -1.5t-35.5 11.5t-17 43.5zM31 1512q-1 93 27 146q50 97 136 97t127 -55q19 -25 55 -109l-5 -17q9 -31 9 -42.5t-16.5 -27t-44.5 -15.5q-51 0 -51 77q0 22 -14.5 58t-32.5 36h-43 q-32 -23 -49 -105q-16 -75 -60 -75z" />
<glyph unicode="&#x20e;" horiz-adv-x="650" d="M54 974v46.5v54.5q1 59 3.5 106t9 101.5t16.5 96t27 81.5q18 41 40 67q50 58 115 58t111 -23.5t77.5 -75.5t55 -101t37 -136.5t21.5 -141.5q8 -55 11 -157q4 -137 4 -214v-118l-18 -259v-9q-13 -57 -13 -123t-23 -127.5t-70 -109t-103 -47.5t-102 38t-76 97.5t-53 142 t-35.5 161t-20.5 165.5q-12 133 -11.5 206.5t-0.5 126t-2 94.5zM95 1719q-1 93 27 146q50 97 136 97t127 -55q19 -25 55 -109l-5 -17q9 -31 9 -42.5t-16.5 -27t-44.5 -15.5q-51 0 -51 77q0 22 -14.5 58t-32.5 36h-43q-32 -23 -49 -105q-16 -75 -60 -75zM149 852 q0 -137 21 -295.5t43.5 -259.5t60.5 -171.5t85 -70.5q41 0 69 77q28 78 40 192q20 204 20.5 286.5t0 120.5t-3 110.5t-8.5 136t-15.5 140.5t-25 137t-36 112.5t-51 81t-60.5 28.5t-49.5 -21t-33 -59.5t-24 -82.5t-16 -101.5t-9.5 -104.5q-3 -46 -5 -102q-2 -93 -3 -145v-9z " />
<glyph unicode="&#x20f;" horiz-adv-x="651" d="M50 714v37q0 322 37 458q31 115 60 142t57 27q238 0 328 -240q52 -138 52 -340v-15l4 -232q0 -589 -273 -589q-113 0 -173 125q-57 120 -70 236q-21 175 -21 303l2 78q0 10 -3 10zM103 1512q-1 93 27 146q50 97 136 97t127 -55q19 -25 55 -109l-5 -17q9 -31 9 -42.5 t-16.5 -27t-44.5 -15.5q-51 0 -51 77q0 22 -14.5 58t-32.5 36h-43q-32 -23 -49 -105q-16 -75 -60 -75zM162 717q0 -297 48 -518q51 -129 97 -152q37 0 67 30t47.5 80.5t29.5 106.5q11 55 17 118q10 109 10 186t-13.5 236t-13.5 237v36q-2 75 -49 133.5t-120 58.5 q-70 0 -93 -79q-19 -66 -19 -163l2 -121z" />
<glyph unicode="&#x212;" horiz-adv-x="548" d="M41 1719q-1 93 27 146q50 97 136 97t127 -55q19 -25 55 -109l-5 -17q9 -31 9 -42.5t-16.5 -27t-44.5 -15.5q-51 0 -51 77q0 22 -14.5 58t-32.5 36h-43q-32 -23 -49 -105q-16 -75 -60 -75zM78 44v16l8 1201v252q0 24 10 34t52.5 10t86 -20.5t73.5 -54.5q29 -36 50 -80 q40 -85 40 -185t-50 -229q-6 -14 -24 -59t-21 -53q1 -152 77 -395q26 -82 74 -224.5t60 -180.5v-5q0 -69 -16 -80.5t-34 -11.5q-38 0 -74 55v7q-10 186 -128 563q-54 172 -75 255v-807q0 -31 -11 -48t-40 -17t-43.5 16.5t-14.5 40.5zM180 1045q0 -63 2 -94q35 33 69 79 l32 177q3 14 3 32q0 49 -20 119q-28 96 -75 105z" />
<glyph unicode="&#x213;" horiz-adv-x="504" d="M36 1512q-1 93 27 146q50 97 136 97t127 -55q19 -25 55 -109l-5 -17q9 -31 9 -42.5t-16.5 -27t-44.5 -15.5q-51 0 -51 77q0 22 -14.5 58t-32.5 36h-43q-32 -23 -49 -105q-16 -75 -60 -75zM63 1268q0 97 68 97q107 0 180 -56t73 -160v-144q0 -59 -22 -107.5t-51 -102 t-32 -59.5q11 -50 39 -196q60 -319 133 -459q21 -40 21 -62.5t-12.5 -38t-33.5 -15.5q-43 0 -82.5 98.5t-63.5 218.5q-73 367 -89 404h-25l-2 -222q0 -271 39 -427l-23 -55h-57l-27 30q2 92 2 206.5t-17.5 489.5t-17.5 560zM167 1260q0 -84 4 -242.5t4 -230.5 q48 25 77.5 130.5t29.5 161.5t-3 82.5t-13 58.5q-20 66 -92 69z" />
<glyph unicode="&#x216;" horiz-adv-x="699" d="M39 1477q0 25 17.5 44t41.5 19q74 0 74 -146l19 -712q12 -27 20.5 -109t8.5 -127.5t14.5 -112t40 -134.5t69 -116t82.5 -48t58 18.5t26 52.5q11 54 11 113v400q0 65 -13 193t-13 193v14l-4 119l-15 351q0 25 25 40.5t52 15.5l50 -48v-34l-15 -125q0 -171 18.5 -515 t18.5 -465.5t-3.5 -162t-15.5 -86.5t-33 -76q-49 -70 -150 -70q-125 -1 -201 109q-80 116 -112 278q-38 191 -46 335q-12 217 -12 430l2 320q-15 17 -15 42zM133 1719q-1 93 27 146q50 97 136 97t127 -55q19 -25 55 -109l-5 -17q9 -31 9 -42.5t-16.5 -27t-44.5 -15.5 q-51 0 -51 77q0 22 -14.5 58t-32.5 36h-43q-32 -23 -49 -105q-16 -75 -60 -75z" />
<glyph unicode="&#x217;" horiz-adv-x="641" d="M54 1306q19 43 43.5 43t43.5 -37.5t19 -79.5v-557q0 -73 14.5 -217t14.5 -217q0 -150 130 -150q146 0 146 1101v115l-1 34q0 24 11 36t38.5 12t41.5 -9q13 -8 19 -24q8 -25 9 -66l-14 -206l-9 -171l2 -35q0 -909 -264 -909q-102 -1 -151 83q-51 86 -62 171 q-17 131 -19.5 300.5t-2.5 489.5zM119 1523q-1 93 27 146q50 97 136 97t127 -55q19 -25 55 -109l-5 -17q9 -31 9 -42.5t-16.5 -27t-44.5 -15.5q-51 0 -51 77q0 22 -14.5 58t-32.5 36h-43q-32 -23 -49 -105q-16 -75 -60 -75z" />
<glyph unicode="&#x237;" horiz-adv-x="520" d="M19 -174q0 19 36 48q51 41 126 80q59 70 59 233l-18 1046l-5 9q-22 0 -60 7t-49 12q-12 5 -24 12q-24 14 -24 36.5t23 36t54.5 13.5t111.5 -10t161.5 -36.5t81.5 -59.5q0 -22 -16.5 -35t-38.5 -13t-60 9.5t-45 10.5l-1 -17l21 -826v-224q-25 -42 -39 -147 q-15 -105 -31 -155q-36 -110 -176 -110h-24l-61 61z" />
<glyph unicode="&#x2c6;" horiz-adv-x="516" d="M93 980.5q0 31.5 33 123t81.5 173.5t83.5 82t83.5 -157t48.5 -238q0 -24 -18.5 -40.5t-41.5 -16.5q-55 1 -77 189q-10 86 -13 97q0 -6 -15.5 -48.5t-27 -74.5t-23 -58t-24 -50t-24.5 -37.5t-25.5 -13.5t-27 19t-13.5 50.5z" />
<glyph unicode="&#x2c7;" horiz-adv-x="498" d="M94 1317q0 16 15 27.5t34 11.5q43 0 101 -211l27 -94q4 22 9 69t10 84q6 37 14 76q18 83 57 83q18 0 30.5 -11.5t12.5 -31.5l-15 -31v-37l-29 -112q-29 -112 -29 -146q0 -66 -52 -66q-40 0 -112.5 166t-72.5 223z" />
<glyph unicode="&#x2d8;" horiz-adv-x="576" d="M114 1100v10l38 32q46 0 60 -75q15 -81 48 -105h44q14 0 30 32t16 52t1 31t6 26.5t17.5 22.5t33.5 7t37.5 -15.5t16.5 -28.5t-8 -41l4 -16v-1q-52 -133 -108 -154q-26 -10 -75 -10t-89 37q-72 65 -72 196z" />
<glyph unicode="&#x2d9;" horiz-adv-x="355" d="M103 176.5q0 29.5 23 53.5t53 24t52 -24t22 -55.5t-23 -52t-54.5 -20.5t-52 22.5t-20.5 52z" />
<glyph unicode="&#x2da;" horiz-adv-x="685" d="M80 405.5q0 93.5 63.5 161t168.5 67.5q97 0 144 -23t70.5 -42.5t37.5 -40.5q14 -22 24 -46q18 -43 18 -78.5t-7 -69.5t-27 -76q-19 -42 -50 -76q-74 -80 -210 -80q-150 0 -205 141q-27 69 -27 162.5zM156 329q0 -48 50.5 -99t104 -51t89 11.5t58.5 30.5t40 41 q16 22 24 48q16 51 16 77.5t-6 48t-21 45.5t-38 42t-62.5 30t-87.5 12t-82 -21q-33 -21 -51 -57q-34 -69 -34 -158z" />
<glyph unicode="&#x2db;" horiz-adv-x="427" d="M90 -259q0 82 56 156t136 123l55 -27q-12 -8 -31.5 -25.5t-37.5 -33t-24.5 -22.5t-21 -22.5t-21 -25.5t-16.5 -26t-14 -28q-11 -34 -11 -72.5t27 -38.5q40 0 86 33l14 -34q0 -27 -38 -45.5t-74 -18.5t-60.5 32t-24.5 75z" />
<glyph unicode="&#x2dc;" horiz-adv-x="675" d="M99 1115q0 39 40 74t108 35q25 0 89 -41.5t84 -41.5t30.5 13t13.5 28t14 28t37.5 13t43.5 -16t17 -37q0 -53 -39.5 -92.5t-93 -39.5t-89.5 14q-34 14 -48 30q-36 44 -80 43q-29 -11 -24 -39t-29 -40q-31 0 -52.5 15t-21.5 54z" />
<glyph unicode="&#x2dd;" horiz-adv-x="684" d="M150 0v13q2 31 69.5 136.5t141 198t91.5 92.5t33 -11t15 -27q0 -46 -75 -141.5t-159.5 -173.5t-115.5 -87zM408 38q0 26 86 124.5t181 188t117 89.5t39 -14.5t23 -33.5q-19 -50 -192 -197.5t-234 -181.5q-20 -1 -20 25z" />
<glyph unicode="&#x307;" horiz-adv-x="384" d="M120 1464.5q0 29.5 23 53.5t53 24t52 -24t22 -55.5t-23 -52t-54.5 -20.5t-52 22.5t-20.5 52z" />
<glyph unicode="&#x311;" horiz-adv-x="575" d="M113 899q-1 93 27 146q50 97 136 97t127 -55q19 -25 55 -109l-5 -17q9 -31 9 -42.5t-16.5 -27t-44.5 -15.5q-51 0 -51 77q0 22 -14.5 58t-32.5 36h-43q-32 -23 -49 -105q-16 -75 -60 -75z" />
<glyph unicode="&#x2000;" horiz-adv-x="1109" />
<glyph unicode="&#x2001;" horiz-adv-x="2219" />
<glyph unicode="&#x2002;" horiz-adv-x="1109" />
<glyph unicode="&#x2003;" horiz-adv-x="2219" />
<glyph unicode="&#x2004;" horiz-adv-x="739" />
<glyph unicode="&#x2005;" horiz-adv-x="554" />
<glyph unicode="&#x2006;" horiz-adv-x="369" />
<glyph unicode="&#x2007;" horiz-adv-x="369" />
<glyph unicode="&#x2008;" horiz-adv-x="277" />
<glyph unicode="&#x2009;" horiz-adv-x="443" />
<glyph unicode="&#x200a;" horiz-adv-x="123" />
<glyph unicode="&#x2010;" horiz-adv-x="731" d="M145 715q0 25 48.5 43t118.5 26q123 14 207 14q26 0 47 -16.5t21 -42t-49 -43.5q-48 -18 -119 -26q-128 -14 -207 -14q-26 0 -46.5 17t-20.5 42z" />
<glyph unicode="&#x2011;" horiz-adv-x="731" d="M145 715q0 25 48.5 43t118.5 26q123 14 207 14q26 0 47 -16.5t21 -42t-49 -43.5q-48 -18 -119 -26q-128 -14 -207 -14q-26 0 -46.5 17t-20.5 42z" />
<glyph unicode="&#x2012;" horiz-adv-x="731" d="M145 715q0 25 48.5 43t118.5 26q123 14 207 14q26 0 47 -16.5t21 -42t-49 -43.5q-48 -18 -119 -26q-128 -14 -207 -14q-26 0 -46.5 17t-20.5 42z" />
<glyph unicode="&#x2013;" horiz-adv-x="1313" d="M145 715q0 25 112.5 43t274.5 26q285 14 479 14q61 0 109.5 -16.5t48.5 -42t-114 -43.5q-111 -18 -275 -26q-297 -14 -480 -14q-60 0 -107.5 17t-47.5 42z" />
<glyph unicode="&#x2014;" horiz-adv-x="2337" d="M145 715q0 25 224.5 43t549.5 26q570 14 959 14q120 0 217.5 -16.5t97.5 -42t-227 -43.5q-222 -18 -551 -26q-594 -14 -960 -14q-120 0 -215 17t-95 42z" />
<glyph unicode="&#x202f;" horiz-adv-x="443" />
<glyph unicode="&#x205f;" horiz-adv-x="554" />
<glyph unicode="&#x25fc;" horiz-adv-x="1355" d="M0 0v1355h1355v-1355h-1355z" />
</font>
</defs>
</svg>
